/* XPM */
static const char *New_imagelist_xpm[] = {
/* columns rows colors chars-per-pixel */
"32 32 208 2",
"   c #000000",
".  c #786B11",
"X  c #7C6F15",
"o  c #8A7500",
"O  c #9B7500",
"+  c #957C00",
"@  c #AC6F00",
"#  c #8C7E27",
"$  c #91842C",
"%  c #FFFE04",
"&  c #C9A048",
"*  c #C9BF7D",
"=  c #4A688D",
"-  c #4B688F",
";  c #4C698F",
":  c #4C6A8F",
">  c #4D6A8F",
",  c #4C6B8F",
"<  c #4C6A90",
"1  c #4D6A90",
"2  c #4D6A91",
"3  c #4F6B92",
"4  c #4F6C91",
"5  c #4F6D92",
"6  c #506D92",
"7  c #516E93",
"8  c #516D94",
"9  c #536F96",
"0  c #527095",
"q  c #537095",
"w  c #537096",
"e  c #557197",
"r  c #557198",
"t  c #567499",
"y  c #577499",
"u  c #57749A",
"i  c #5A769B",
"p  c #5A769C",
"a  c #5B789D",
"s  c #5C789E",
"d  c #5C799E",
"f  c #5E7AA0",
"g  c #607DA1",
"h  c #607CA2",
"j  c #617DA3",
"k  c #637FA5",
"l  c #769C9C",
"z  c #6681A7",
"x  c #6582A6",
"c  c #6682A8",
"v  c #6884AA",
"b  c #6986AA",
"n  c #6986AB",
"m  c #6A86AA",
"M  c #6A86AB",
"N  c #6A86AC",
"B  c #6B87AC",
"V  c #6D89AE",
"C  c #6E8AAF",
"Z  c #6F8AAF",
"A  c #6E8BAF",
"S  c #6F8BAF",
"D  c #6996A4",
"F  c #709DA2",
"G  c #739CA2",
"H  c #759DA2",
"J  c #6F8BB0",
"K  c #708BB1",
"L  c #728EB2",
"P  c #728EB3",
"I  c #738FB3",
"U  c #7490B5",
"Y  c #7490B6",
"T  c #7792B7",
"R  c #7893B7",
"E  c #7693B8",
"W  c #7893B8",
"Q  c #7995BA",
"!  c #7A95BA",
"~  c #7C97BB",
"^  c #7B96BC",
"/  c #7C98BC",
"(  c #7D98BC",
")  c #7E98BE",
"_  c #7E99BE",
"`  c #7F9ABF",
"'  c #7FA5A4",
"]  c #79A5AB",
"[  c #79A6AB",
"{  c #7CA5AB",
"}  c #7EA6AB",
"|  c #76A3B0",
" . c #7FACBC",
".. c #819BBF",
"X. c #C8C28C",
"o. c #E5EB97",
"O. c #EBEF97",
"+. c #DCC8A2",
"@. c #C4C8BD",
"#. c #C4C9BD",
"$. c #E7EDB0",
"%. c #809AC0",
"&. c #809BC0",
"*. c #809CC0",
"=. c #819DC1",
"-. c #839EC3",
";. c #849FC3",
":. c #84A0C4",
">. c #87A2C5",
",. c #86A1C6",
"<. c #86A2C6",
"1. c #87A2C7",
"2. c #88A3C7",
"3. c #8DA5C7",
"4. c #88A3C8",
"5. c #89A3C8",
"6. c #88A4C8",
"7. c #89A4C8",
"8. c #8EA7C8",
"9. c #8FA9C9",
"0. c #91AACA",
"q. c #89B5C5",
"w. c #A0B3CC",
"e. c #A2B4CC",
"r. c #A3B5CD",
"t. c #A4B7CD",
"y. c #A5B8CE",
"u. c #A6B8CE",
"i. c #A5B8D0",
"p. c #ABBDD4",
"a. c #B1C2D9",
"s. c #B9C9DE",
"d. c #BBCADE",
"f. c #BACBDE",
"g. c #BCCBDF",
"h. c #BDCCE0",
"j. c #CACEC3",
"k. c #E3EACC",
"l. c #E3E9D0",
"z. c #C0CDE0",
"x. c #C0CEE1",
"c. c #C1D0E3",
"v. c #C1D1E3",
"b. c #C2D0E2",
"n. c #C4D1E3",
"m. c #C9D5E6",
"M. c #C9D7E9",
"N. c #CBD8EA",
"B. c #CBD9EA",
"V. c #CCD8E9",
"C. c #CFDAE9",
"Z. c #CCD8EA",
"A. c #CCD9EA",
"S. c #CCD9EB",
"D. c #CDD9EB",
"F. c #CCDAEB",
"G. c #CEDBEB",
"H. c #CDDAEC",
"J. c #CDDAED",
"K. c #D0DCEC",
"L. c #D1DCEC",
"P. c #D0DDEC",
"I. c #D2DEED",
"U. c #D4DFEE",
"Y. c #D5DFEE",
"T. c #D3DFF2",
"R. c #D9E2E3",
"E. c #D4E0EE",
"W. c #D7E1EF",
"Q. c #D7E2EF",
"!. c #D7E1F2",
"~. c #D9E3F0",
"^. c #DAE3F0",
"/. c #DCE5F1",
"(. c #DEE7F2",
"). c #DFE7F2",
"_. c #E0E8EA",
"`. c #E7EDEB",
"'. c #ECEBEC",
"]. c #E8EFEE",
"[. c #F2F2EE",
"{. c #E1E8F3",
"}. c #E3EAF4",
"|. c #E4EAF4",
" X c #E6EDF5",
".X c #E7EDF5",
"XX c #EAEFF5",
"oX c #EBEFF5",
"OX c #E9EEF6",
"+X c #E2ECFF",
"@X c #EBF0F6",
"#X c #EBF0F7",
"$X c #EBF1F7",
"%X c #EEF2F8",
"&X c #EBF4FB",
"*X c #EAF1FF",
"=X c #F0F4F9",
"-X c #F3F6FA",
";X c #F5F7FB",
":X c #F0F6FF",
">X c #F7F9FC",
",X c #F9FAFD",
"<X c #F9FBFD",
"1X c #FBFCFD",
"2X c #FCFDFE",
"3X c #FEFEFF",
"4X c #FFFFFF",
"5X c None",
/* pixels */
"5X5X5X5.7.7.5.5.5.5.4.5.5.7.7.5.6.6.5.7.4.4.:.5X5X5X5X5X5X5X5X5X",
"5X5X5X7.4X4X4X4X4X4X4X4X4X4X4X4X4X4X4X4X4X4X%X0.5X5X5X5X5X5X5X5X",
"5X5X5X:.4Xs.a.p.i.w.e.e.w.w.w.w.w.e.w.w.w.4X4X@X9.5X5X5X5X5X5X5X",
"5X5X5X:.4XM.M.M.N.c.x.x.c.c.c.c.c.c.s.s.w.4X4X4XoX8.5X5X5X5X5X5X",
"5X5X5X=.4XB.B.M.M.G.M.M.G.M.Z.M.B.B.Z.g.e.4X4X4X4XoX8.5X5X5X5X5X",
"5X5X5X=.4XB.H.H.Z.G.D.D.H.Z.H.G.H.B.G.g.e.4X4X4X4X4XoX( 5X5X5X5X",
"5X5X5X&.4XG.G.G.G.G.G.G.G.G.G.G.G.G.G.x.t.4X4X4X4X4X4X&.5X5X5X5X",
"5X5X5X) 4XK.K.K.K.K.K.K.I.H.K.I.G.I.H.x.u.u.u.u.u.u.4X(   5X5X5X",
"5X5X5X) 4XI.I.I.I.I.I.I.I.I.I.I.I.I.I.c.c.c.c.c.c.c.4X~   5X5X5X",
"5X5X5XQ 4XU.U.U.U.U.U.U.U.I.U.U.Q.U.U.U.Q.U.U.U.U.n.4XQ   5X5X5X",
"5X5X5XE 4XQ.W.2.7.7.7.7.5.5.7.7.2.2.2.5.2.2.7.7.Q.K.4XR   5X5X5X",
"5X5X5XY 4X^.W.2.O.% o.R.R.~.G.:.O.% o.R.R.~.G.:.W.~.4XI   5X5X5X",
"5X5X5XL 4X/./.:.k.$.l._._.+XT.;.k.$.l._._.+XT.;././.4XL   5X5X5X",
"5X5X5XJ 4X/./.=.`.].&X*X*XX.j.=.`.].&X*X*XX.j...{./.4XK   5X5X5X",
"5X5X5XV 4X{.{.( :X'.+.'.* + $ ( :X'.+.'.* + $ ~ {.{.4XV   5X5X5X",
"5X5X5XN 4X}.}.R [.& @ O O o X R [.& @ O O o X Q |.}.4XN   5X5X5X",
"5X5X5Xv 4X X XU q...} [ [ [ | U q.' } } } [ | U  X X4Xv   5X5X5X",
"5X5X5Xx 4X XoXS D S V S S S S S V L V V J V V J oXoX4Xc   5X5X5X",
"5X5X5Xk 4X@X%Xm m m m m m m m m m m m m m m N m oX#X4Xx   5X5X5X",
"5X5X5Xh 4X%X&Xx O.% o.R.R.!.m.x O.% o.R.R.!.m.x %X%X4Xf   5X5X5X",
"5X5X5Xf 4X%X-Xf k.$.k._.).+XC.d k.$.l._._.+XH.h %X-X4Xf   5X5X5X",
"5X5X5Xs 4X-X-Xp `.`.%X&X*XX.#.a `.].&X*X*XX.@.a -X-X4Xs   5X5X5X",
"5X5X5Xp 4X;X;Xi :X'.+.'.* + # t :X'.+.'.* + # t ;X;X4Xp   5X5X5X",
"5X5X5Xi 4X>X>X0 [.& @ O O o . r [.& @ O O o . 0 >X>X4Xt   5X5X5X",
"5X5X5Xe 4X,X,X7  .l H F H F D 4 :.l H F F F D 4 ,X,X4Xr   5X5X5X",
"5X5X5X9 4X1X4X= 1 1 1 < = 1 = < , 1 1 = ; 1 1 1 1X1X4X9   5X5X5X",
"5X5X5X9 4X1X1X1X1X1X4X1X4X1X1X1X1X1X1X4X4X4X1X1X4X1X4X7   5X5X5X",
"5X5X5X1 4X4X4X4X1X4X4X4X4X4X4X4X4X4X4X,X4X4X4X4X4X1X4X4   5X5X5X",
"5X5X5X1 4X4X4X4X4X4X4X4X4X4X4X4X4X4X4X4X4X4X4X4X4X4X4X1   5X5X5X",
"5X5X5X= 4X4X4X4X4X4X4X4X4X4X4X4X4X4X4X4X4X4X4X4X4X4X4X;   5X5X5X",
"5X5X5X= = = = = = = = = = = = = = = = = = = = = = = = =   5X5X5X",
"5X5X5X5X5X                                              5X5X5X5X"
};
