/* XPM */
static const char * amilab_logo_new_16x16_alpha_xpm[] = {
"16 16 142 2",
"  	c None",
". 	c #4CF64C",
"+ 	c #3DD93D",
"@ 	c #60DD60",
"# 	c #318E31",
"$ 	c #40D540",
"% 	c #51FE51",
"& 	c #29C929",
"* 	c #3A9E3A",
"= 	c #4FC14F",
"- 	c #71FB71",
"; 	c #65E565",
"> 	c #49DA49",
", 	c #52D052",
"' 	c #3F4E3F",
") 	c #31C331",
"! 	c #63FA63",
"~ 	c #21AF21",
"{ 	c #274927",
"] 	c #607160",
"^ 	c #64C164",
"/ 	c #83FB83",
"( 	c #5CC85C",
"_ 	c #6DB76D",
": 	c #35C935",
"< 	c #56D956",
"[ 	c #72F872",
"} 	c #42D042",
"| 	c #234923",
"1 	c #709570",
"2 	c #4DE64D",
"3 	c #56E156",
"4 	c #7AE17A",
"5 	c #1FA91F",
"6 	c #5EED5E",
"7 	c #2CAF2C",
"8 	c #78FB78",
"9 	c #208D20",
"0 	c #58E658",
"a 	c #26D426",
"b 	c #98FA98",
"c 	c #318B31",
"d 	c #84EB84",
"e 	c #198819",
"f 	c #62F062",
"g 	c #34CB34",
"h 	c #355E35",
"i 	c #56D256",
"j 	c #7AF67A",
"k 	c #31C031",
"l 	c #7BD57B",
"m 	c #9DF69D",
"n 	c #2FD02F",
"o 	c #B6FEB6",
"p 	c #1F821F",
"q 	c #569056",
"r 	c #5EE45E",
"s 	c #2CE02C",
"t 	c #6EEB6E",
"u 	c #366D36",
"v 	c #8AE28A",
"w 	c #6ECA6E",
"x 	c #B8FDB8",
"y 	c #57D257",
"z 	c #7BED7B",
"A 	c #5EC55E",
"B 	c #3FD83F",
"C 	c #AAFFAA",
"D 	c #259E25",
"E 	c #74D874",
"F 	c #AAF7AA",
"G 	c #90EF90",
"H 	c #2CCE2C",
"I 	c #489448",
"J 	c #5AEF5A",
"K 	c #41D841",
"L 	c #84E384",
"M 	c #69D769",
"N 	c #95FB95",
"O 	c #1BB81B",
"P 	c #22BE22",
"Q 	c #28E028",
"R 	c #9DF89D",
"S 	c #2C882C",
"T 	c #90F990",
"U 	c #19AF19",
"V 	c #8FFE8F",
"W 	c #1DA11D",
"X 	c #50F350",
"Y 	c #95FE95",
"Z 	c #2DB52D",
"` 	c #64D164",
" .	c #4CE04C",
"..	c #98E798",
"+.	c #1DBA1D",
"@.	c #88FC88",
"#.	c #1A831A",
"$.	c #42D342",
"%.	c #30DD30",
"&.	c #56F756",
"*.	c #53DE53",
"=.	c #669966",
"-.	c #70E970",
";.	c #B2FDB2",
">.	c #5BCE5B",
",.	c #20B620",
"'.	c #1A851A",
").	c #1C6F1C",
"!.	c #48EE48",
"~.	c #87FA87",
"{.	c #1C781C",
"].	c #4CB14C",
"^.	c #5CF65C",
"/.	c #58CF58",
"(.	c #86D686",
"_.	c #1CA61C",
":.	c #82FF82",
"<.	c #17AB17",
"[.	c #3AEF3A",
"}.	c #84FD84",
"|.	c #1CA01C",
"1.	c #2ED92E",
"2.	c #21E121",
"3.	c #27E627",
"4.	c #57FC57",
"5.	c #76E276",
"6.	c #54BA54",
"7.	c #A5F9A5",
"8.	c #69EE69",
"9.	c #3EF73E",
"0.	c #74FC74",
"a.	c #1FA21F",
"b.	c #1D511D",
"c.	c #29BA29",
"d.	c #43EA43",
"e.	c #50ED50",
"f.	c #2DBA2D",
"g.	c #2E632E",
"h.	c #74BA74",
"i.	c #207C20",
"j.	c #299629",
"k.	c #1D711D",
"    .                           ",
"  + @ # $   % & * =       - ;   ",
"  > , ' ) ! ~ {   ] ^   / ( _   ",
"  : <   [ } |       1 2 3   4   ",
"  5 6 7 8 9 0       a b c   d   ",
"  e 6 f g h i       j k l   m   ",
"    n o p   q r   s t u v w x   ",
"    y z       A B C D     E F   ",
"    G H       I J K       L M   ",
"    N O P     Q R S       T     ",
"  U V W X     Y Z `      ...    ",
"  +.@.#.$.%.&.*.  =.-.  ;.>.    ",
"  ,./ '.).!.~.{.    ].^./.(.    ",
"  _.:.<.[.}.|.1.2.3.4.5.6.7.    ",
"    8.9.0.a.b.c.d.e.f.g.h.      ",
"    i.j.k.                      "};
