/* XPM */
static const char *bb_string[] = {
/* columns rows colors chars-per-pixel */
"30 30 4 1",
"  c Gray100",
". c Red",
"X c Gray0",
"y c Yellow",
/* pixels */
"                              ",
"                              ",
"                              ",
"         ..................   ",
"        ..               ..   ",
"        ..               ..   ",
"       . .    XXXXX     . .   ",
"       . .  XX     XX   . .   ",
"      .  . X         X .  .   ",
"      ..................  .   ",
"      .  X   yyyyyyy   .  .   ",
"      .  X  yyyyyyyyy  .  .   ",
"      . XX yyyyyyyyyyy .X .   ",
"      . XXyyyyyyyyyyyyy.X .   ",
"      . XXyyyyyyyyyyyyy.X .   ",
"      . XXyyyyyyyyyyyyy.X .   ",
"      . XXyyyyyyyyyyyyy.X .   ",
"      .  Xyyyyyyyyyyyyy.  .   ",
"      .  XXyyyyyyyyyyyy....   ",
"      . . XyyyyyyyyyyyX. .    ",
"      . .  XyyyyyyyyyX . .    ",
"      ..    XXyyyyyXX  ..     ",
"      ..      XXXXX    ..     ",
"      .                .      ",
"      ..................      ",
"                              ",
"                              ",
"                              ",
"                              ",
"                              "
};
