/* XPM */
static const char *center_string[] = {
/* columns rows colors chars-per-pixel */
"40 30 2 1",
"X c Gray0",
". c White",
/* pixels */
"........................................",
"......................X.................",
"................X....X..................",
".................XX.X...................",
"...................X....................",
"...................X....................",
"...................X...............X....",
"....X..............X..............X.....",
".....X.............X.............X......",
"......X............X............X.......",
".......X...........X...........X........",
"........XXXXXXXXXXXXXXXXXXXXXXX.........",
".......X...........X..........XX........",
"......X............X............X.......",
".....X.............X.............X......",
"....X..............X..............X.....",
"...................X...............X....",
"...................X....................",
"..................X.X...................",
".................X...XX.................",
"................X......X................",
".......................X................",
"...XXX....XXX...X.XX..XXX..XXX...X.X....",
"..X...X..X...X..XX..X..X..X...X..XX.....",
"..X......X...X..X...X..X..X...X..X......",
"..X......XXXXX..X...X..X..XXXXX..X......",
"..X......X......X...X..X..X......X......",
"..X...X..X...X..X...X..X..X...X..X......",
"...XXX....XXX...X...X..XX..XXX...X......",
"........................................"
};
