/* XPM */
static const char *fog_string[] = {
/* columns rows colors chars-per-pixel */
"30 30 4 1",
"  c Gray100",
". c #afafb5b5ffff",
"X c #80807b7bffff",
"o c Blue",
/* pixels */
"                              ",
"                              ",
"                              ",
"            ...............   ",
"           ................   ",
"          XXXXXXXXXXXXXXX..   ",
"         XXXXXXXXXXXXXXXX..   ",
"        XXXXXXXXXXXXXXXXX..   ",
"       XXXXXXXXXXXXXXXXXX..   ",
"       ooooooooooooXXXXXX..   ",
"      ooooooooooooooooXXX..   ",
"     oooooooooooooooooXXX..   ",
"     oooooooooooooooooXXX..   ",
"     oooooooooooooooooXXX..   ",
"     oooooooooooooooooXXX..   ",
"     oooooooooooooooooXXX..   ",
"     oooooooooooooooooXXX..   ",
"     oooooooooooooooooXXX..   ",
"     oooooooooooooooooXXX..   ",
"     ooooooooooooooooXXXX..   ",
"     oooooooooooooooooXXX..   ",
"     oooooooooooooooooXXX.    ",
"     oooooooooooooooooXXX     ",
"     oooooooooooooooooXX      ",
"     oooooooooooooooooXX      ",
"     ooooooooooooooooo        ",
"     ooooooooooooooo          ",
"                              ",
"                              ",
"                              "
};
