/* XPM */
static const char * gl_fill_xpm[] = {
"30 30 13 1",
" 	c None",
".	c #FFEF96",
"+	c #FFFF00",
"@	c #FFF8BC",
"#	c #FFFAC1",
"$	c #FFF5AF",
"%	c #FFF6B2",
"&	c #FFF5B0",
"*	c #FFF9BF",
"=	c #FFF7B6",
"-	c #FFF3A7",
";	c #FFF7B7",
">	c #FFF8B9",
".........+++++++..............",
"...........+++................",
"..........+++.................",
"............+.................",
"...........@##................",
"...........$###...............",
"..........########............",
".........%#########...........",
"........&*###########.........",
"........=#############........",
".......$###############.......",
"......-################.......",
".....%*###############........",
".....;###############.........",
"....>*##############..........",
"...################...........",
".....#############............",
".......##########.............",
".........########.............",
"..........######..............",
"............####..............",
"..............#...............",
"..............................",
"..............................",
"..............................",
"..............................",
"..............................",
"..............................",
"..............................",
".............................."};
