/* XPM */
static const char *nobb_string[] = {
/* columns rows colors chars-per-pixel */
"30 30 4 1",
"  c Gray100",
". c Gray0",
"X c #ffffffffefef",
"y c Yellow",
/* pixels */
"                              ",
"                              ",
"                              ",
"                              ",
"                              ",
"                              ",
"              .....           ",
"            ..     ..         ",
"           .         .        ",
"         ...         ..       ",
"         .   yyyyyy    .      ",
"         .  yyyyyyyyy  .      ",
"        .  yyyyyyyyyyy ..     ",
"        . yyyyyyyyyyyyy .     ",
"        . yyyyyyyyyyyyy .     ",
"        . yyyyyyyyyyyyy .     ",
"        ..yyyyyyyyyyyyy .     ",
"         .yyyyyyyyyyyyy.      ",
"         ..yyyyyyyyyyy.       ",
"          .yyyyyyyyyyy.       ",
"           .yyyyyyyyy.        ",
"            ..yyyyy..         ",
"              .....           ",
"                              ",
"                              ",
"                              ",
"                              ",
"                              ",
"                              ",
"                              "
};
