/* XPM */
static const char *nolight_string[] = {
/* columns rows colors chars-per-pixel */
"30 30 2 1",
"  c Gray0",
". c Gray100",
/* pixels */
"..............................",
"..............................",
"..............................",
"..............................",
"..............................",
"..............................",
"............      ............",
"................    ..........",
".................     ........",
"..................     .......",
"..................     .......",
"..................      ......",
"..................      ......",
"...................     ......",
"...................      .....",
"...................      .....",
"...................      .....",
"...................      .....",
"..................      ......",
"..................      ......",
"..................     .......",
"..................     .......",
".................     ........",
"................    ..........",
".............     ............",
"..............................",
"..............................",
"..............................",
"..............................",
".............................."
};
