/* XPM */
static const char *rot_z1_string[] = {
/* columns rows colors chars-per-pixel */
"30 30 2 1",
"  c Gray0",
". c White",
/* pixels */
"................. ............",
"................ .............",
"............... ..............",
"............      ............",
".........   ... ..   .........",
"........ ....... .... ........",
"....... ......... .... .......",
"...... ................ ......",
"..... .................. .....",
".... .................... ....",
".... .................... ....",
"... ...................... ...",
"... ...................... ...",
"... ...................... ...",
"... ...................... ...",
"... ...................... ...",
"... ...................... ...",
"... ...................... ...",
".... .................... ....",
".... .................... ....",
"..... .................. .....",
"...... ................ ......",
"....... .... ......... .......",
"........ .... ....... ........",
".........   .. ...   .........",
"............      ............",
".............. ...............",
"............. ................",
"............ .................",
".............................."
};
