/* XPM */
static const char *XZ2_string[]={
"30 30 42 1",
"# c #000000",
"A c #121212",
"p c #222222",
"D c #262626",
"e c #282828",
"q c #292929",
"M c #2a2a2a",
"b c #2d2d2d",
"l c #2e2e2e",
"z c #2f2f2f",
"m c #363636",
"y c #494949",
"I c #4a4a4a",
"r c #4b4b4b",
"w c #525252",
"L c #686868",
"i c #696969",
"u c #6b6b6b",
"h c #737373",
"K c #777777",
"g c #7b7b7b",
"B c #808080",
"t c #848484",
"j c #868686",
"N c #979797",
"J c #989898",
"v c #9e9e9e",
"s c #a5a5a5",
"x c #bdbdbd",
"G c #c3c3c3",
"a c #cacaca",
"f c #d3d3d3",
"C c #d8d8d8",
"E c #e2e2e2",
"o c #e6e6e6",
"F c #f0f0f0",
"d c #f4f4f4",
"c c #f7f7f7",
"k c #f9f9f9",
"n c #fcfcfc",
"H c #fdfdfd",
". c #ffffff",
"..............................",
"..............................",
"..............................",
".......................#......",
"........................#.....",
".........................##...",
"....########################..",
"....#....................##...",
"....#...................##....",
"....#..........abcdef..#......",
"....#...........ghij..........",
"....#...........klmn..........",
"....#...........opqd..........",
"....#...........rstu..........",
"....#..........vw.nmx.........",
"....#.........................",
"....#.........................",
"....#.........................",
"....#.........................",
"....#.........................",
"....#.........................",
"....#.........................",
"....#.....yzzAB...............",
"..#.#..#....CDE...............",
"...##.#....FbG................",
"...###....HIJ.................",
"....#.....KL..................",
"..........#MzzN...............",
"..............................",
".............................."};
