/* XPM */
static const char *Registry_xpm[] = {
/* columns rows colors chars-per-pixel */
"32 32 178 2",
"   c #001D00",
".  c #002000",
"X  c #002200",
"o  c #002500",
"O  c #002C00",
"+  c #004000",
"@  c #005200",
"#  c #005400",
"$  c #005500",
"%  c #005600",
"&  c #005900",
"*  c #005A00",
"=  c #005B00",
"-  c #005C00",
";  c #005E00",
":  c #005F00",
">  c #006000",
",  c #006100",
"<  c #006200",
"1  c #006400",
"2  c #006500",
"3  c #006600",
"4  c #006700",
"5  c #006800",
"6  c #006A00",
"7  c #006B00",
"8  c #006C00",
"9  c #006D00",
"0  c #006E00",
"q  c #007000",
"w  c #007100",
"e  c #007200",
"r  c #007300",
"t  c #007400",
"y  c #007600",
"u  c #007800",
"i  c #007900",
"p  c #007A00",
"a  c #007C00",
"s  c #007D00",
"d  c #007E00",
"f  c #007F00",
"g  c #008000",
"h  c #008100",
"j  c #008300",
"k  c #008400",
"l  c #008500",
"z  c #008600",
"x  c #008700",
"c  c #0C8100",
"v  c #008900",
"b  c #008A00",
"n  c #008B00",
"m  c #008C00",
"M  c #008D00",
"N  c #008F00",
"B  c #009000",
"V  c #009100",
"C  c #009200",
"Z  c #009300",
"A  c #009500",
"S  c #009600",
"D  c #009700",
"F  c #009800",
"G  c #009900",
"H  c #009B00",
"J  c #009C00",
"K  c #009D00",
"L  c #009E00",
"P  c #009F00",
"I  c #0A9C00",
"U  c #0B9C00",
"Y  c #0B9D00",
"T  c #0B9F00",
"R  c #0C9D00",
"E  c #00A100",
"W  c #00A200",
"Q  c #0BA200",
"!  c #0BA300",
"~  c #0CA400",
"^  c #00AA00",
"/  c #01AF00",
"(  c #06AD00",
")  c #0CA900",
"_  c #0CAA00",
"`  c #0DAA00",
"'  c #0DAB00",
"]  c #0CAD00",
"[  c #0DAD00",
"{  c #0CAF00",
"}  c #14AB00",
"|  c #17AF01",
" . c #0DB300",
".. c #0AB600",
"X. c #1CB706",
"o. c #17BA02",
"O. c #18BB02",
"+. c #18BD02",
"@. c #18BF02",
"#. c #1EB708",
"$. c #1EBD08",
"%. c #2EA41E",
"&. c #2EB51C",
"*. c #31B91F",
"=. c #00CC00",
"-. c #04CD00",
";. c #07CE00",
":. c #18C002",
">. c #14D100",
",. c #17D200",
"<. c #22D40A",
"1. c #29D712",
"2. c #2FD819",
"3. c #31D81A",
"4. c #38C226",
"5. c #3BDB26",
"6. c #42DD30",
"7. c #47DE35",
"8. c #4ADE38",
"9. c #4DDE3A",
"0. c #4EDF3B",
"q. c #4FDF3C",
"w. c #50DF3E",
"e. c #52DF3E",
"r. c #5AC24D",
"t. c #54D143",
"y. c #6ADB5A",
"u. c #53E040",
"i. c #54E042",
"p. c #55E044",
"a. c #58E044",
"s. c #59E146",
"d. c #5FE34E",
"f. c #5FE44E",
"g. c #67E558",
"h. c #71E761",
"j. c #71E762",
"k. c #73E764",
"l. c #77E967",
"z. c #7AEA6D",
"x. c #7CEA6E",
"c. c #80EB72",
"v. c #83EB74",
"b. c #84EC78",
"n. c #85EC78",
"m. c #8AEC7D",
"M. c #8AED7F",
"N. c #8DED81",
"B. c #8DEF83",
"V. c #91EF84",
"C. c #96EB8B",
"Z. c #93F089",
"A. c #96F08B",
"S. c #97F18D",
"D. c #98F18C",
"F. c #99F18F",
"G. c #9EEF95",
"H. c #9EF293",
"J. c #A2F298",
"K. c #A3F398",
"L. c #A7F39D",
"P. c #A9F29F",
"I. c #AAF5A1",
"U. c #AAF5A2",
"Y. c #ABF5A2",
"T. c #ADF3A4",
"R. c #AEF6A4",
"E. c #B1F6AA",
"W. c #B3F7AA",
"Q. c #B7F8B0",
"!. c #B9F8B0",
"~. c #B9F8B1",
"^. c #BCF9B5",
"/. c #BFF9B6",
"(. c #BFF9B9",
"). c #C0F9B9",
"_. c #C2FBBC",
"`. c None",
/* pixels */
"`.`.`.`.`.`.`.`.`.`.`.`.`.`.`.`.`.`.( `.`.`.`.`.`.`.`.`.`.`.`.`.",
"`.`.`.`.`.`.`.`.`.`.`.`.`.`.`.`.`.#.T.4.`.`.`.`.`.`.`.`.`.`.`.`.",
"`.`.`.`.`.`.`.`.`.`.`.`.`.`.`.`.X.P.C.t.D `.`.`.`.`.`.`.`.`.`.`.",
"`.`.`.`.`.`.`.`.`.`.`.`.`.`.`.] H.y.$.^ P r `.`.`.`.] W P `.`.`.",
"`.`.`.`.`.`.`.`.`.`.`.`.`.`.`.W c ..^ W 6 1 `.`.`.X.G.c V v `.`.",
"`.`.`.`.`.`.`.`.`.`.`.`.`.`.`.P V p P 6 6 = `.`.#.I.y...p p r `.",
"`.`.`.`.`.`.`.`.`.`.`.`.`.`.`.`.z p 6 6 = `.`.( T.C.$.^ P 6 6 = ",
"`.`.`.`.`.`.`.`.`.`.`.`.`.`.`.`.`.r 6 = `.`.`.`.4.t.^ W 6 6 = `.",
"`.`.`.`.`.`.`.`.`.`.`.`.`.`.`.`.`.`.- `.`.`.`.`.`.D P 6 6 - `.`.",
"`.`.`.`.`.`.`.`.`.`.`.`.`.`.`.`.`.`.`.`.`.`.`.`.`.`.t 1 = `.`.`.",
"`.`.`.`.`.`.W W P P P G G G V D V V v m z 6 `.`.`.`.`.`.`.`.`.`.",
"`.`.`.`.`.W W.I.J.H.G n.x.j.g.V t.8.6.5.6 6 `.`.`.`.`.`.`.`.`.`.",
"`.`.`.`.W W W P P G D D D V V ]  .] ` z h 9 ] W P `.`.`.`.`.`.`.",
"`.`.`.W (.~.E.I.P S.B.n.z.V 9 r.M.n.c.z h } H.c V z `.`.`.`.`.`.",
"`.`.W W P P P G  .O.o.o.v s 9 %.*.3.,.h | P.y...p p r `.`.`.`.`.",
"`./ _._./.Q.G r r.m.n.c.p p 9 R D ^ =.P T.C.$.^ P 6 6 - `.`.`.`.",
"W :.@.:.+.V h r %.*.3.,.p p 6 D D G ^ s &.t.^ W 6 6 = `.`.`.`.`.",
"W _././.~.h s r R D ^ =.p p 6 6 1 1 1 < p m W 6 6 = `.`.`.`.`.`.",
"P T.D.n.j.h s r D D G ^ p 6 %.*.w.7.p < t < t 1 = `.`.`.`.`.`.`.",
"P z.f.a.a.s s r 9 9 6 6 6 D ~ ! Q V p - t - `.`.`.`.`.`.`.`.`.`.",
"P w.w.9.9.s 9 *.r.Z.M.z 6 r.M.n.c.t t < r - `.`.`.`.`.`.`.`.`.`.",
"G G D D V r ] ` ` _ D 1 1 %.*.3.,.p t - - = `.`.`.`.`.`.`.`.`.`.",
"G Y.P.K.H.V A.M.n.c.t t 1 R G ^ =.r 9 < 9 = `.`.`.`.`.`.`.`.`.`.",
"D V.l.w.1.m j.u.3.,.t t 1 D D G ^ r - - 9 = `.`.`.`.`.`.`.`.`.`.",
"D t.<.;.=.v 2.;.=.=.r t < < < - < - 9 = 6 = `.`.`.`.`.`.`.`.`.`.",
"G ,.;.=.=.z =.=.=.=.r < %.r.g.p.9 - 6 = 1 $ `.`.`.`.`.`.`.`.`.`.",
"D m m m z z z h s s 1 T T U U 9 9 = 9 = $   `.`.`.`.`.`.`.`.`.`.",
"V B.M.n.c.h B.m.n.c.p B.m.n.x.9 9 = 1 $ X `.`.`.`.`.`.`.`.`.`.`.",
"V k.t.3.,.h k.u.3.,.t k.u.3.,.6 6 = $ X `.`.`.`.`.`.`.`.`.`.`.`.",
"m 2.;.=.=.s 2.;.=.=.t 2.;.=.=.6 1 $ o `.`.`.`.`.`.`.`.`.`.`.`.`.",
"v =.=.=.=.s =.=.=.=.r =.=.=.=.6 $ O `.`.`.`.`.`.`.`.`.`.`.`.`.`.",
"z z h r 9 9 9 6 - < - - $ $ $ @ + `.`.`.`.`.`.`.`.`.`.`.`.`.`.`."
};
