/* XPM */
static const char *Clear_xpm[] = {
/* columns rows colors chars-per-pixel */
"32 32 192 2",
"   c #090500",
".  c #0F0902",
"X  c #140C02",
"o  c #1A1002",
"O  c #341D03",
"+  c #37240E",
"@  c #2B2F34",
"#  c #313333",
"$  c #34373A",
"%  c #432603",
"&  c #472804",
"*  c #4B2B04",
"=  c #543303",
"-  c #5E3604",
";  c #573709",
":  c #593408",
">  c #593A0B",
",  c #683600",
"<  c #6A3A06",
"1  c #603D0C",
"2  c #693F09",
"3  c #59411D",
"4  c #6C430C",
"5  c #774706",
"6  c #784904",
"7  c #704508",
"8  c #794C0B",
"9  c #62421E",
"0  c #724D19",
"q  c #7D5212",
"w  c #7C5319",
"e  c #684620",
"r  c #7D5B26",
"t  c #725329",
"y  c #79592C",
"u  c #071550",
"i  c #182E5D",
"p  c #081C60",
"a  c #011F6C",
"s  c #0B2163",
"d  c #0B226C",
"f  c #002175",
"g  c #00247E",
"h  c #0D2779",
"j  c #0C297C",
"k  c #132E73",
"l  c #2F4075",
"z  c #575758",
"x  c #5B5858",
"c  c #66615F",
"v  c #626569",
"b  c #61686F",
"n  c #6A6B6C",
"m  c #726E69",
"M  c #696E72",
"N  c #6E7175",
"B  c #707476",
"V  c #74767A",
"C  c #77797D",
"Z  c #82540C",
"A  c #805516",
"S  c #835815",
"D  c #845B1A",
"F  c #895E1B",
"G  c #8B621E",
"H  c #845E24",
"J  c #876123",
"K  c #8B6424",
"L  c #8E6826",
"P  c #866128",
"I  c #8D6629",
"U  c #8F692D",
"Y  c #906927",
"T  c #916C2B",
"R  c #8F6E33",
"E  c #926D31",
"W  c #947237",
"Q  c #95733C",
"!  c #99753A",
"~  c #9A793C",
"^  c #917343",
"/  c #9B7D42",
"(  c #917348",
")  c #827C73",
"_  c #A28245",
"`  c #A4844D",
"'  c #AA894D",
"]  c #A78A52",
"[  c #AB8B52",
"{  c #AE9159",
"}  c #B09661",
"|  c #B69A64",
" . c #B79A6A",
".. c #BDA26C",
"X. c #BAA273",
"o. c #C1A87D",
"O. c #042886",
"+. c #0C2C83",
"@. c #0A2E8B",
"#. c #112F81",
"$. c #0C308C",
"%. c #16398D",
"&. c #103A9A",
"*. c #1C4296",
"=. c #1D449B",
"-. c #224986",
";. c #3C5180",
":. c #244892",
">. c #234A9E",
",. c #284A9E",
"<. c #2E519A",
"1. c #305097",
"2. c #1342A1",
"3. c #1C48A4",
"4. c #1748AA",
"5. c #2D5DA7",
"6. c #2450A8",
"7. c #2A55AC",
"8. c #3557A7",
"9. c #2655B1",
"0. c #275EB6",
"q. c #2F5AB0",
"w. c #2C5EBB",
"e. c #335EB1",
"r. c #3560AE",
"t. c #3961AD",
"y. c #2D60BD",
"u. c #3762B7",
"i. c #3A66B7",
"p. c #4C6086",
"a. c #40609C",
"s. c #60708E",
"d. c #757B82",
"f. c #516EA2",
"g. c #456EBB",
"h. c #4570BD",
"j. c #4D74BD",
"k. c #597DB8",
"l. c #3165C2",
"z. c #366ECA",
"x. c #3B76D5",
"c. c #4978CE",
"v. c #467FDA",
"b. c #7E8183",
"n. c #73829F",
"m. c #6984AA",
"M. c #5780C1",
"N. c #5B80C9",
"B. c #5A86D0",
"V. c #5C8CD8",
"C. c #7C9AD5",
"Z. c #779EDF",
"A. c #5F90E1",
"S. c #6798E4",
"D. c #828588",
"F. c #87888A",
"G. c #928C87",
"H. c #99938C",
"J. c #949695",
"K. c #9C9C9C",
"L. c #8992A5",
"P. c #959AA0",
"I. c #9D9FA1",
"U. c #939AAB",
"Y. c #9EA0A3",
"T. c #A7A9AC",
"R. c #AFAFAF",
"E. c #B4ADA1",
"W. c #A7ADB5",
"Q. c #ACAEB1",
"!. c #AFB1B3",
"~. c #B4B5B7",
"^. c #BAB9B6",
"/. c #B7B9BB",
"(. c #BABABB",
"). c #CFBA93",
"_. c #D2BE98",
"`. c #D8C5A3",
"'. c #DFCEB1",
"]. c #E0CFB1",
"[. c #A3BAE4",
"{. c #BCC2C8",
"}. c #B2D5FD",
"|. c #C2C6CC",
" X c #CBCBCC",
".X c #D6D8DC",
"XX c #E4E3DD",
"oX c #DFE2E4",
"OX c #ECEBED",
"+X c #F4F3F4",
"@X c #FEFEFD",
"#X c None",
/* pixels */
"#X#X#X#X#X#X#X#X#X#X#X#X#X#X#X#X#X#X#X#X#X#X#X#X#X#X#X#X#X#X#X#X",
"#X#X,.e.a.#X#X#X#X#X#X#X#X#X#X#X#X#X#X#X#X#X#X#X#X#X#X#X#X#X#X#X",
"#Xw.7.q.g.k.#X#X#X#X#X#X#X#X#X#X#X#X#X#X#X#X#X#X#X#X#X#X#X#X#X#X",
"#Xw.&.2.7.j.f.#X#X#X#X#X#X#X#X#X#X#X#X#X#X#X#X#X#X#X#X#X#X#X#X#X",
"#Xz.j.8.3.i.M.i #X#X#X#X#X#X#X#X#X#X#X#X#X#X#X#X#X#X#X#X#X#X#X#X",
"#X#XS.C.7.6.h.:.#X#X#X#X#X#X#X#X#X#X#X#X#X#X#X#X#X#X#X#X#X#X#X#X",
"#X#X-.S.Z.i.u.e.k #Xf g g #X#Xg g g #X#Xg g g #X#Xg g g #X#Xg g ",
"#X#X#X#Xz.x.y.7.%.s #X#X#X#X#X#X#X#X#X#X#X#X#X#X#X#X#X#X#X#X#Xg ",
"#X#X#X#X#X5.v.B.,.j p u d j #.l #X#X#X#X#X#X#X#X#X#X#X#X#X#X#X#X",
"#X#X#X#X#X#Xm.}.N.+.d d @.*.;.n n # #X#X#X#X#X#X#X#X#X#X#X#X#X#X",
"#X#X#X#X#X#Xa V.y.+.j $.=.p.C n C M $ #X#X#X#X#X#X#X#X#X#X#X#Xg ",
"#X#X#X#X#X#Xg 0.9.j @.>.s.b.J.N v B v @ #X#X#X#X#X#X#X#X#X#X#Xg ",
"#X#X#X#X#X#Xg #X4.O.1.n.K.K.D.N v v M z + #X#X#X#X#X#X#X#X#X#Xg ",
"#X#X#X#X#X#X#X#Xc.1.L.~.R.K.b.C N b x 9 , : #X#X#X#X#X#X#X#X#X#X",
"#X#X#X#X#X#X#X#X[.U.(.~.T.~.K.b.d.c e 4 D w - #X#X#X#X#X#X#X#X#X",
"#X#X#X#X#X#Xg #X|.XX XT.T.~.T.P.m 9 8 I Q ] Q 4 #X#X#X#X#X#X#Xg ",
"#X#X#X#X#X#Xg #XT.@X+X~.I./.{.) t 6 J / } { [ w 4 O #X#X#X#X#Xg ",
"#X#X#X#X#X#Xg #X#X(.OXOX/.W.G.y Z K / { | | _ T q < #X#X#X#X#Xg ",
"#X#X#X#X#X#X#X#X#X#X|.@X.XH.0 F L W ` ..[ [ ~ Y A % #X#X#X#X#X#X",
"#X#X#X#X#X#X#X#X#X#XD.OXE.^ T 6 ! X.] ' _ ~ T S &   #X#X#X#X#X#X",
"#X#X#X#X#X#Xg #X#X#X#X) ^ ` ).D G | { Q ~ U q *   #X#X#X#X#X#Xg ",
"#X#X#X#X#X#Xg #X#X#X#X#X4 ] ).).T L ] R L q & X #X#X#X#X#X#X#Xg ",
"#X#X#X#X#X#Xg #X#X#X#X#X#Xr [ ]. .W J E G ; X #X#X#X#X#X#X#X#Xg ",
"#X#X#X#X#X#X#X#X#X#X#X#X#X#XH  .'.).F S > o #X#X#X#X#X#X#X#X#X#X",
"#X#X#X#X#X#X#X#X#X#X#X#X#X#X#XP | `.I : o #X#X#X#X#X#X#X#X#X#X#X",
"#X#X#X#X#X#Xg #X#X#X#X#X#X#X#X#XE ~ > X #X#X#X#X#X#X#X#X#X#X#Xg ",
"#X#X#X#X#X#Xg #X#X#X#X#X#X#X#X#X3 = . #X#X#X#X#X#X#X#X#X#X#X#Xg ",
"#X#X#X#X#X#Xg #X#X#X#X#X#X#X#X#X#X#X#X#X#X#X#X#X#X#X#X#X#X#X#Xg ",
"#X#X#X#X#X#X#X#X#X#X#X#X#X#X#X#X#X#X#X#X#X#X#X#X#X#X#X#X#X#X#X#X",
"#X#X#X#X#X#X#X#X#X#X#X#X#X#X#X#X#X#X#X#X#X#X#X#X#X#X#X#X#X#X#X#X",
"#X#X#X#X#X#Xg #X#X#X#X#X#X#X#X#X#X#X#X#X#X#X#X#X#X#X#X#X#X#X#Xg ",
"#X#X#X#X#X#Xg g #X#Xg g g #X#Xg g g #X#Xg g g #X#Xg g g #X#Xg g "
};
