/* XPM */
static const char *Color_palete_xpm[] = {
/* columns rows colors chars-per-pixel */
"32 32 163 2",
"   c #010000",
".  c #171206",
"X  c #1C180F",
"o  c #2B2007",
"O  c #2D2208",
"+  c #352B13",
"@  c #392F18",
"#  c #4E3B11",
"$  c #644C11",
"%  c #6D5213",
"&  c #7C5E14",
"*  c #70571C",
"=  c #645632",
"-  c #675A39",
";  c #6C5F3B",
":  c #776230",
">  c #87671C",
",  c #916D16",
"<  c #A57C1C",
"1  c #A87F1C",
"2  c #BD4622",
"3  c #806524",
"4  c #8A6C25",
"5  c #927122",
"6  c #98782B",
"7  c #957837",
"8  c #C14F26",
"9  c #C15027",
"0  c #C55827",
"q  c #C65A2E",
"w  c #D47C3B",
"e  c #907A48",
"r  c #CF795E",
"t  c #65AF46",
"y  c #66B048",
"u  c #70B34E",
"i  c #70B451",
"p  c #7BB756",
"a  c #7CB95C",
"s  c #B1861F",
"d  c #B6891D",
"f  c #AD8423",
"g  c #A9852E",
"h  c #B68A20",
"j  c #BA902B",
"k  c #BA9230",
"l  c #C1921E",
"z  c #C49626",
"x  c #CA9A27",
"c  c #C49628",
"v  c #CE9E2B",
"b  c #D6813A",
"n  c #C29835",
"m  c #CD9F30",
"M  c #CDA032",
"N  c #D6A736",
"B  c #D8A836",
"V  c #DAAC3C",
"C  c #F8C727",
"Z  c #F8C728",
"A  c #F8C828",
"S  c #F9CA33",
"D  c #F9CC3E",
"F  c #A9945E",
"G  c #BCA56E",
"H  c #D78544",
"J  c #DDB045",
"K  c #E2B444",
"L  c #E7B847",
"P  c #EBBB47",
"I  c #E2B64A",
"U  c #EBB04F",
"Y  c #E4B84E",
"T  c #ECBE4D",
"R  c #EBB251",
"E  c #E6BA51",
"W  c #E9BD55",
"Q  c #EDB75D",
"!  c #CBB378",
"~  c #D5B977",
"^  c #8FC579",
"/  c #A3C777",
"(  c #A3C97C",
")  c #ABCA7E",
"_  c #F9CE42",
"`  c #EEC051",
"'  c #EFC45C",
"]  c #F3C455",
"[  c #F3C65A",
"{  c #F4C85E",
"}  c #F0C660",
"|  c #F5CA63",
" . c #F6CD6C",
".. c #FAD664",
"X. c #FAD76B",
"o. c #FBD86E",
"O. c #F7CF70",
"+. c #F7D072",
"@. c #F8D275",
"#. c #FBDB75",
"$. c #F9D37C",
"%. c #586FB2",
"&. c #6F7FAE",
"*. c #6477B2",
"=. c #6478B5",
"-. c #7082B7",
";. c #7082B8",
":. c #9B9FB2",
">. c #9BA1B7",
",. c #9CA3BC",
"<. c #A2A1A8",
"1. c #A2A5B3",
"2. c #A4A9BD",
"3. c #DC9D8A",
"4. c #A4CA80",
"5. c #ABCE86",
"6. c #ADD49D",
"7. c #EDCE82",
"8. c #E7CC8B",
"9. c #ECD18D",
"0. c #F3D383",
"q. c #F8D685",
"w. c #F3D68E",
"e. c #F9D98C",
"r. c #E4CB91",
"t. c #EAD194",
"y. c #E9D299",
"u. c #F2D693",
"i. c #F8DB94",
"p. c #F2D99D",
"a. c #F9DE9C",
"s. c #FBE28D",
"d. c #E0CCA0",
"f. c #ECD6A0",
"g. c #EED9A4",
"h. c #EFDBA8",
"j. c #F3DCA3",
"k. c #FADFA2",
"l. c #F2DEAC",
"z. c #E1D6BC",
"x. c #E4E0AA",
"c. c #FAE1A4",
"v. c #F6E1AE",
"b. c #FAE4AD",
"n. c #E5E4B4",
"m. c #E5E6BD",
"M. c #F5E2B3",
"N. c #FBE6B4",
"B. c #FCE8B6",
"V. c #F7E6BD",
"C. c #F8E6BB",
"Z. c #FCE9BB",
"A. c #8596C7",
"S. c #8596C8",
"D. c #A6B2D7",
"F. c #E2D9C5",
"G. c #FCECC4",
"H. c #FDEECB",
"J. c #FEF0CF",
"K. c #FEF1D3",
"L. c #FEF4DB",
"P. c #FFF6E2",
"I. c None",
/* pixels */
"I.I.I.I.I.I.I.I.I.I.I.I.I.I.I.I.I.I.I.I.I.I.I.I.I.I.I.I.I.I.I.I.",
"I.I.I.I.I.I.I.I.I.I.I.I.I.I.I.I.I.I.I.p.y.p.j.f.y.I.I.I.I.I.I.I.",
"I.I.I.I.I.I.I.I.I.I.I.I.I.I.I.I.l.M.G.G.G.H.H.H.G.C.v.y.I.I.I.I.",
"I.I.I.I.I.I.I.I.I.I.I.I.I.v.C.G.H.P.P.L.L.K.K.K.K.J.J.Z.N.r.I.I.",
"I.I.I.I.I.I.I.I.I.I.p.M.H.K.P.P.L.K.K.K.B.#._ D #.B.G.J.H.B.t.I.",
"I.I.I.I.I.I.I.I.I.V.H.K.P.P.K.K.K.K.J.J.o.A s...A X.G.G.G.G.v.G ",
"I.I.I.I.I.I.I.j.H.H.P.P.K.K.K.K.K.J.J.J.S s.A A A A G.G.G.Z.N.! ",
"I.I.I.I.I.I.l.H.P.P.K.K.m.5.a a 5.m.H.H.o...A A A X.G.G.Z.N.u.- ",
"I.I.I.I.I.M.H.P.K.K.K.H.4.y 6.^ t ( J.G.b.o.D D X.c.Z.C.c.8.;   ",
"I.I.I.I.l.G.P.K.K.K.H.K.u 6.y y t u G.G.G.G.Z.Z.Z.Z.B.j.G X   I.",
"I.I.I.h.G.P.K.K.H.H.H.H.( ^ t t t / G.Z.Z.Z.Z.Z.B.B.c.F   I.I.I.",
"I.I.t.V.L.K.H.H.H.H.H.H.n.4.p p ) x.Z.Z.Z.B.N.B.B.b.u.= I.I.I.I.",
"I.I.h.L.H.H.H.H.H.G.G.G.G.Z.Z.Z.Z.B.Z.N.N.N.N.b.b.v.7.7 I.I.I.I.",
"I.t.V.L.H.F.2.;.&.2.F.Z.Z.Z.Z.Z.B.B.N.N.b.p.9.9.7.0.@.W 6 I.I.I.",
"I.f.K.H.H.,.%.D.S.%.,.Z.Z.B.C.N.N.N.b.b.~ e @ + 3 n  . .E g I.I.",
"I.h.K.H.G.=.D.%.%.%.=.C.B.B.N.b.b.v.l.$.:   I.I.I.4 E a. .Y 4 I.",
"I.l.K.Z.Z.>.A.%.%.%.:.N.b.b.b.k.i.e.$.V . I.I.I.I.I.V a. .} k I.",
"I.t.H.Z.Z.z.1.&.&.<.y.i.e.q.$.O.o.O. .I * I.I.I.I.I.I i.| | M I.",
"I.J c.+.+.+.+.O.O.O.O.O.o.O. . .O. . .[ j 5 I.I.I.m u.| | } M   ",
"I.V a.+.O.O.O.O. . . . . . . . .| |  .| [ I B B K w.| { { W f   ",
"I.v a.O. . . . .Q b 0 0 r P { | | | | | | [ i.i.i.{ { { { V # I.",
"I.c W  . . .| | r 2 3.r 2 w | { | } | [ | [ [ [ [ [ [ ` V >   I.",
"I.I.x | | | | | 8 3.8 2 8 8 { [ [ [ [ [ [ [ [ [ [ ] J c %   I.I.",
"I.I.s J | | [ [ w r 2 2 2 w [ [ [ [ [ [ ] ] ] ] T V 1 o   I.I.I.",
"I.I.I.s V { { [ R b 0 0 b U ] ] ] ] ] ] ] ] P V d $   I.I.I.I.I.",
"I.I.I.I.< V T [ [ ] ] ] ] ] ] ] ] ] ] T V x f $     I.I.I.I.I.I.",
"I.I.I.I.I.& d N K T ] ] ] ] T P K B x d & O   I.I.I.I.I.I.I.I.I.",
"I.I.I.I.I.I.I.% < d l l l l d 1 , $ O     I.I.I.I.I.I.I.I.I.I.I.",
"I.I.I.I.I.I.I.I.I.I.            I.I.I.I.I.I.I.I.I.I.I.I.I.I.I.I.",
"I.I.I.I.I.I.I.I.I.I.I.I.I.I.I.I.I.I.I.I.I.I.I.I.I.I.I.I.I.I.I.I.",
"I.I.I.I.I.I.I.I.I.I.I.I.I.I.I.I.I.I.I.I.I.I.I.I.I.I.I.I.I.I.I.I.",
"I.I.I.I.I.I.I.I.I.I.I.I.I.I.I.I.I.I.I.I.I.I.I.I.I.I.I.I.I.I.I.I."
};
