/* XPM */
static const char *Refresh_xpm[] = {
/* columns rows colors chars-per-pixel */
"32 32 250 2",
"   c #000000",
".  c #000100",
"X  c #000B00",
"o  c #000C00",
"O  c #000D00",
"+  c #010F00",
"@  c #011900",
"#  c #011C00",
"$  c #011D00",
"%  c #012100",
"&  c #012300",
"*  c #012500",
"=  c #032A00",
"-  c #032D00",
";  c #032E00",
":  c #033000",
">  c #033100",
",  c #033200",
"<  c #033400",
"1  c #033500",
"2  c #033600",
"3  c #033800",
"4  c #033900",
"5  c #033A00",
"6  c #033B00",
"7  c #033D00",
"8  c #033E00",
"9  c #033F00",
"0  c #034200",
"q  c #034300",
"w  c #044400",
"e  c #044600",
"r  c #044700",
"t  c #044800",
"y  c #044900",
"u  c #044B00",
"i  c #044C00",
"p  c #044D00",
"a  c #044E00",
"s  c #045000",
"d  c #045100",
"f  c #095705",
"g  c #0C5A07",
"h  c #0C5808",
"j  c #0D5C09",
"k  c #11510D",
"l  c #115D0C",
"z  c #135110",
"x  c #1B5317",
"c  c #11600D",
"v  c #146110",
"b  c #156111",
"n  c #176213",
"m  c #186314",
"M  c #196315",
"N  c #186614",
"B  c #196614",
"V  c #186814",
"C  c #1B6A15",
"Z  c #1F6F1B",
"A  c #246E1F",
"S  c #295827",
"D  c #2A7525",
"F  c #2C7E27",
"G  c #31772C",
"H  c #327B2E",
"J  c #3B7F38",
"K  c #43793F",
"L  c #15A709",
"P  c #18A80C",
"I  c #19A80D",
"U  c #1BA90F",
"Y  c #1CA910",
"T  c #1CAA11",
"R  c #20AC15",
"E  c #23AB18",
"W  c #24AB19",
"Q  c #23AD18",
"!  c #27AC1C",
"~  c #2AB01F",
"^  c #31812C",
"/  c #34852E",
"(  c #3A8036",
")  c #3A8935",
"_  c #3A8C35",
"`  c #3E8839",
"'  c #3F913A",
"]  c #2DB121",
"[  c #31B025",
"{  c #32B128",
"}  c #34B129",
"|  c #3EB934",
" . c #41893B",
".. c #42A939",
"X. c #43B639",
"o. c #49B43F",
"O. c #43BB38",
"+. c #46BD3B",
"@. c #4D8C4B",
"#. c #479543",
"$. c #499644",
"%. c #4B9746",
"&. c #489A42",
"*. c #4D9B47",
"=. c #4C9C46",
"-. c #52944D",
";. c #52944E",
":. c #589753",
">. c #539B50",
",. c #569C51",
"<. c #5E9C5B",
"1. c #52A34C",
"2. c #4BB442",
"3. c #4CBD42",
"4. c #50B947",
"5. c #52BA49",
"6. c #53BB4B",
"7. c #56BC4D",
"8. c #58BD4E",
"9. c #61BA5A",
"0. c #66BB5E",
"q. c #63BD5D",
"w. c #64BF5D",
"e. c #6D976A",
"r. c #64A960",
"t. c #70AD6C",
"y. c #68B862",
"u. c #69B862",
"i. c #77AB74",
"p. c #77B472",
"a. c #7EB47A",
"s. c #4EC044",
"d. c #50C146",
"f. c #52C248",
"g. c #5AC550",
"h. c #5BC651",
"j. c #61C757",
"k. c #67C65E",
"l. c #62C858",
"z. c #62C95A",
"x. c #63C95A",
"c. c #69C261",
"v. c #6EC267",
"b. c #6DCD63",
"n. c #72C56C",
"m. c #76C66F",
"M. c #71C969",
"N. c #74CA6C",
"B. c #76CD6D",
"V. c #78C771",
"C. c #7AC774",
"Z. c #7DC977",
"A. c #7ECA77",
"S. c #7FCA79",
"D. c #7BD472",
"F. c #80CA79",
"G. c #82CA7B",
"H. c #81CD7A",
"J. c #83CA7D",
"K. c #84CB7E",
"L. c #85CB7F",
"P. c #80D677",
"I. c #82D77A",
"U. c #83D77A",
"Y. c #8ABD86",
"T. c #8EBF89",
"R. c #8EBD8A",
"E. c #87CC81",
"W. c #8AC985",
"Q. c #8CCD86",
"!. c #8ECE88",
"~. c #8FCF89",
"^. c #89D981",
"/. c #8FDA88",
"(. c #91D08C",
"). c #94D18F",
"_. c #95D28F",
"`. c #91DC89",
"'. c #91DE89",
"]. c #94DE8D",
"[. c #94C290",
"{. c #97CA92",
"}. c #9ACC96",
"|. c #9EC69B",
" X c #96D191",
".X c #96D291",
"XX c #97D192",
"oX c #96D790",
"OX c #9AD395",
"+X c #9BD396",
"@X c #9AD496",
"#X c #9BD796",
"$X c #97DA91",
"%X c #9BD498",
"&X c #9CD798",
"*X c #9DD49A",
"=X c #A0D39C",
"-X c #A1D79C",
";X c #A1D69D",
":X c #A2D59E",
">X c #A3D49F",
",X c #A2DA9E",
"<X c #A4DA9F",
"1X c #9CE197",
"2X c #A5D1A1",
"3X c #A6D4A2",
"4X c #A6D6A3",
"5X c #A9D6A6",
"6X c #A7D9A3",
"7X c #A7DDA1",
"8X c #A7DDA2",
"9X c #A8D8A3",
"0X c #A9DDA5",
"qX c #AEDAAA",
"wX c #ACDDA8",
"eX c #AEDDAA",
"rX c #AFDDAB",
"tX c #B1D7AE",
"yX c #B1DFAE",
"uX c #ABE4A7",
"iX c #B3E1AF",
"pX c #B1E5AD",
"aX c #B3E5AF",
"sX c #B3E0B0",
"dX c #B5E0B1",
"fX c #B5E1B1",
"gX c #B6E0B2",
"hX c #B6E3B2",
"jX c #B5E5B0",
"kX c #B7E5B2",
"lX c #B8E6B3",
"zX c #BAE3B7",
"xX c #B9E6B5",
"cX c #BBE7B7",
"vX c #BAE9B6",
"bX c #BBE2B8",
"nX c #BBE4B8",
"mX c #BCE5B8",
"MX c #BDE8B8",
"NX c #C1E9BD",
"BX c #C3EBC0",
"VX c #C3EAC1",
"CX c #C5EBC2",
"ZX c #C6ECC3",
"AX c #C7EBC4",
"SX c #CAECC6",
"DX c #CBECC8",
"FX c #CCEEC9",
"GX c #CEEDCB",
"HX c None",
/* pixels */
"HXHXHXHXHXHXHXHXHXHXHXHXHXHXHXHXHXHXHXHXHXHXHXHXHXHXHXHXHXHXHXHX",
"HXHXHXHXHXHXHXHXHXHXHXHXp p s s d p p y HXHXHXHXHXHXHXHXHXHXHXHX",
"HXHXHXd HXHXHXHXHXHXp ( a.2XbXCXCXhX}.t.H y HXHXHXHXHXHXHXHXHXHX",
"HXHXHXd q HXHXHXp G [.bXmXeX,XXX(.).#X7X<Xp.A q HXHXHXHXHXHXHXHX",
"HXHXHXl %.5 HXp ;.5XbX6XOXXX(.Q.E.G.S.V.A.oXW.` q HXHXHXHXHXHXHX",
"HXHXHXM FX%.y -.qXyX*XOX).~.n.8.X.[ R U L I 3.v.^ 9 HXHXHXHXHXHX",
"HXHXHXM FXiXr.3XyXOXXXS.8.} L L L L L L L L L | 9.N 2 HXHXHXHXHX",
"HXHXHXM DX9XhXsXOXK.7.! L ~ s.b.U.`.`.U.b.3.] L d.1.e HXHXHXHXHX",
"HXHXHXM SX;X*XOXc.{ L T f.q.1./ C f f C / 1.q.f.R k.A ; HXHXHXHX",
"HXHXHXM AX%X(.8.U L Q 2._ p 5 = @ O   O @ ; 9 ) 2.g.&.5 HXHXHXHX",
"HXHXHXn VX~.4.L L L o.c 2 @   HXHXHXHXHXHXHXHX% z ..y.y HXHXHXHX",
"HXHXHXn NX6.L L L L j.' > HXHXHXHXHXHXHXHXHXHXHXHX2 =.p HXHXHXHX",
"HXHXHXn uXL L L L L L l.' 5 HXHXHXHXHXHXHXHXHXHXHXHXx y HXHXHXHX",
"HXHXHXn 1XP.P.P.P.P.P.P.].' 5 HXHXHXHXHXHXHXHXHXHXHXHX2 HXHXHXHX",
"HXHXHXd d d d d d d d d d d d 5 HXHXHXHXHXHXHXHXHXHXHXHXHXHXHXHX",
"HXHXHXHXHX                    HXHXHXHXHXHXHXHXHXHXHXHXHXHXHXHXHX",
"HXHXHXHXHXHXHXHXHXHXHXHXHXHXHXe d d d d d d d d d d s s HXHXHXHX",
"HXHXHXHXHXHXHXHXHXHXHXHXHXHXHXHXq ,.VXMXvXxXxXkXkXaXvXj HXHXHXHX",
"HXHXHXd e.HXHXHXHXHXHXHXHXHXHXHXHX5 >.7XK.J.S.A.V.m.aXj   HXHXHX",
"HXHXHXd |.S HXHXHXHXHXHXHXHXHXHXHXHX9 #.B.! U L U W /.j   HXHXHX",
"HXHXHXp tX{.K HXHXHXHXHXHXHXHXHXHXHXy l 2.L L L L L U.j   HXHXHX",
"HXHXHXp R.hX*Xi.k e HXHXHXHXHXHXp d _ 2.R L L L L L U.j   HXHXHX",
"HXHXHXHX@.hX#XwX3XY.<.D j f C / 1.q.f.T L L L U L L P.j   HXHXHX",
"HXHXHXHXy [.0X~.XX,X$X^.'./.U.b.s.~ L L L L L d.l.L D.j   HXHXHX",
"HXHXHXHX9 J 2X&XG.6.L L L L L L L L L L L L | 9.=.l.D.j   HXHXHX",
"HXHXHXHXHXq :.;XN.L L L L L L L L L L L L X.k.F e ' ].j   HXHXHX",
"HXHXHXHXHXHXq  .0.g.] L L L L L L L L ] g.0.F 5 O 2 ' j   HXHXHX",
"HXHXHXHXHXHXHX5 N 1.M.l.+.] U Y ] +.l.N.1.N > O HXHX5 d   HXHXHX",
"HXHXHXHXHXHXHXHX; 9 A &.y.H.`.`.S.y.&.Z 9 %   HXHXHXHX5 HXHXHXHX",
"HXHXHXHXHXHXHXHXHXHX* 2 0 y d p y 9 > $   HXHXHXHXHXHXHXHXHXHXHX",
"HXHXHXHXHXHXHXHXHXHXHXHXHXHX        HXHXHXHXHXHXHXHXHXHXHXHXHXHX",
"HXHXHXHXHXHXHXHXHXHXHXHXHXHXHXHXHXHXHXHXHXHXHXHXHXHXHXHXHXHXHXHX"
};
