/* XPM */
static const char *Target_xpm[] = {
/* columns rows colors chars-per-pixel */
"32 32 2 1",
"  c #00217F",
". c None",
/* pixels */
"............... ................",
"............... ................",
"............... ................",
"...           . .           ....",
"... ........... ........... ....",
"... ........... ........... ....",
"... ........... ........... ....",
"... ........... ........... ....",
"... ........... ........... ....",
"... ........... ........... ....",
"... ........... ........... ....",
"... ........... ........... ....",
"... ........... ........... ....",
"... ........... ........... ....",
"................................",
"              . .              .",
"................................",
"... ........... ........... ....",
"... ........... ........... ....",
"... ........... ........... ....",
"... ........... ........... ....",
"... ........... ........... ....",
"... ........... ........... ....",
"... ........... ........... ....",
"... ........... ........... ....",
"... ........... ........... ....",
"... ........... ........... ....",
"...           . .           ....",
"............... ................",
"............... ................",
"............... ................",
"................................"
};
