/* XPM */
static char *Zoom[] = {
/* columns rows colors chars-per-pixel */
"32 32 137 2",
"   c #000001",
".  c #04070B",
"X  c #05080D",
"o  c #080E16",
"O  c #111A25",
"+  c #1A2129",
"@  c #282827",
"#  c #2B2B2B",
"$  c #323336",
"%  c #011F46",
"&  c #01224E",
"*  c #1D3759",
"=  c #2F3F53",
"-  c #3C4044",
";  c #2D425E",
":  c #11407B",
">  c #25426A",
",  c #29476D",
"<  c #384A62",
"1  c #304B6E",
"2  c #254672",
"3  c #1C4984",
"4  c #1D4D8F",
"5  c #1C539D",
"6  c #2C5A97",
"7  c #29599C",
"8  c #1C59AC",
"9  c #1C5DB5",
"0  c #1B5EB8",
"q  c #255DA7",
"w  c #285EA7",
"e  c #275FAC",
"r  c #215FB2",
"t  c #2B60A6",
"y  c #2D63AC",
"u  c #3368AE",
"i  c #3B6DAF",
"p  c #2362B4",
"a  c #2666BA",
"s  c #296ABE",
"d  c #336DBD",
"f  c #3D71B6",
"g  c #3E74BD",
"h  c #446793",
"j  c #4A7BBC",
"k  c #2F6FC3",
"l  c #256DCC",
"z  c #2D72CE",
"x  c #3472C5",
"c  c #3374CB",
"v  c #3876C9",
"b  c #3778CF",
"n  c #3D79CC",
"m  c #2E76D6",
"M  c #3177D4",
"N  c #3278D6",
"B  c #3C7ED6",
"V  c #347CDB",
"C  c #3B7FDD",
"Z  c #447AC4",
"A  c #427BCA",
"S  c #5782BB",
"D  c #3D83E1",
"F  c #5F8AC2",
"G  c #5186CF",
"H  c #4889DE",
"J  c #5A92DC",
"K  c #648DC4",
"L  c #6E9FDD",
"P  c #7EA5D6",
"I  c #4086E7",
"U  c #4689E2",
"Y  c #4B8AE1",
"T  c #468CEC",
"R  c #4B93F3",
"E  c #5195F4",
"W  c #5398F5",
"Q  c #5097F8",
"!  c #549BFC",
"~  c #5B9DFA",
"^  c #6499E1",
"/  c #5CA0FE",
"(  c #70A0E2",
")  c #78AAED",
"_  c #6AA6F6",
"`  c #67A6FE",
"'  c #6AA7FA",
"]  c #6BA9FE",
"[  c #7AACF0",
"{  c #72ACFD",
"}  c #76B0FF",
"|  c #7DB3FF",
" . c #89A9D4",
".. c #8BAFDF",
"X. c #9CB9DF",
"o. c #81AAE0",
"O. c #98B7E1",
"+. c #9CBEEB",
"@. c #84B8FF",
"#. c #8CBCFE",
"$. c #91BEFB",
"%. c #B6C7DE",
"&. c #94C1FF",
"*. c #9DC6FE",
"=. c #9FC8FF",
"-. c #ABC7ED",
";. c #BBCDE5",
":. c #BCD1EC",
">. c #A7C6F0",
",. c #AFD1FF",
"<. c #B4D4FF",
"1. c #BAD6FE",
"2. c #C2D2E6",
"3. c #C9D4E2",
"4. c #D7DCE1",
"5. c #DADEE3",
"6. c #D7DFE9",
"7. c #C4D7F0",
"8. c #CEDEF3",
"9. c #C6DEFF",
"0. c #DEE2E6",
"q. c #DEE6EF",
"w. c #D3E2F4",
"e. c #D7E8FF",
"r. c #DAEAFF",
"t. c #E3E4E6",
"y. c #E3E6EA",
"u. c #E6E8EB",
"i. c #EBECED",
"p. c #EDEEF0",
"a. c #EEF1F6",
"s. c #EEF3FB",
"d. c #F2F3F4",
"f. c #F6F7F8",
"g. c #F7F8F9",
"h. c #FDFDFD",
"j. c None",
/* pixels */
"j.j.j.j.j.j.j.j.j.j.j.j.j.j.j.j.j.j.j.^ _ ! n 6 j.j.j.j.j.j.j.j.",
"j.j.j.j.j.j.j.j.j.j.j.j.j.j.j.j.j.P f q 0 l M C D x j.j.j.j.j.j.",
"j.j.j.j.j.j.j.j.j.j.j.j.j.j.j.X.j K O.8.s.f.w.>.) T I 2 j.j.j.j.",
"j.j.j.j.j.j.j.j.j.j.j.j.j.j...K X.g.d.i.i.f.g.g.h.q._ U > j.j.j.",
"j.j.j.j.j.j.j.j.j.j.j.j.j.j.K ;.h.h.d.u.y.i.h.h.h.h.h.{ T j.j.j.",
"j.j.j.j.j.j.j.j.j.j.j.j.j.G ;.h.f.0.4.0.0.0.p.h.h.h.h.g.W Z j.j.",
"j.j.j.j.j.j.j.j.j.j.j.j.j. .h.h.5.4.y.i.t.5.y.j.j.h.h.h.u.~ O j.",
"j.j.j.j.j.j.j.j.j.j.j.j.d 2.h.i.4.y.i.u.j.j.j.j.j.j.h.h.f.R 1 j.",
"j.j.j.j.j.j.j.j.j.j.j.j.B a.h.0.t.p.i.t.j.j.j.j.j.j.h.h.h.! S j.",
"j.j.j.j.j.j.j.j.j.j.j.j.b h.g.0.u.i.u.j.j.j.j.j.j.j.j.h.h.] [ j.",
"j.j.j.j.j.j.j.j.j.j.j.j.w a.g.y.p.p.u.j.j.j.j.j.j.j.j.h.h.@.(   ",
"j.j.j.j.j.j.j.j.j.j.j.j.j.:.h.p.p.p.i.j.j.j.j.j.j.j.h.h.p.#.j   ",
"j.j.j.j.j.j.j.j.j.j.j.j.j.o.h.f.f.d.i.j.j.j.j.j.j.j.h.h.3.#., j.",
"j.j.j.j.j.j.j.j.j.j.j.j.j.u :.h.g.f.d.d.j.j.j.j.j.h.h.y.<.' X j.",
"j.j.j.j.j.j.j.j.j.j.j.j.j.j.J 7.h.g.g.g.h.j.j.j.h.h.d.e.#.*   j.",
"j.j.j.j.j.j.j.j.j.j.j.j.j.j.k H +.h.h.h.h.h.h.h.f.0.w.$.i   j.j.",
"j.j.j.j.j.j.j.j.j.j.j.j.j.N ] m N Y P >.-.w.<.*.1.*.' h +   j.j.",
"j.j.j.j.j.j.j.j.j.j.j.j.N ] *.' 5 w m V T ! ~ ~ R N < # j.j.j.j.",
"j.j.j.j.j.j.j.j.j.j.j.N ] =.] r 6 @ = ; 4 0 8 3 = $   j.j.j.j.j.",
"j.j.j.j.j.j.j.j.j.j.V ] =.] r t     j.j.j.      j.j.j.j.j.j.j.j.",
"j.j.j.j.j.j.j.j.j.D ] <.] p y   j.j.j.j.j.j.j.j.j.j.j.j.j.j.j.j.",
"j.j.j.j.j.j.j.j.I } <.] p d     j.j.j.j.j.j.j.j.j.j.j.j.j.j.j.j.",
"j.j.j.j.j.j.j.T | ,.{ a x     j.j.j.j.j.j.j.j.j.j.j.j.j.j.j.j.j.",
"j.j.j.j.j.j.Q @.9.@.s N     j.j.j.j.j.j.j.j.j.j.j.j.j.j.j.j.j.j.",
"j.j.j.j.j./ #.e.@.k B     j.j.j.j.j.j.j.j.j.j.j.j.j.j.j.j.j.j.j.",
"j.j.j.j.` &.e.#.c U     j.j.j.j.j.j.j.j.j.j.j.j.j.j.j.j.j.j.j.j.",
"j.j.j.{ *.r.&.v E     j.j.j.j.j.j.j.j.j.j.j.j.j.j.j.j.j.j.j.j.j.",
"j.j.| *.r.*.A ~     j.j.j.j.j.j.j.j.j.j.j.j.j.j.j.j.j.j.j.j.j.j.",
"j.j.: ;.>.A ' .   j.j.j.j.j.j.j.j.j.j.j.j.j.j.j.j.j.j.j.j.j.j.j.",
"j.j.& 3 v { .   j.j.j.j.j.j.j.j.j.j.j.j.j.j.j.j.j.j.j.j.j.j.j.j.",
"j.j.j.& 3 o   j.j.j.j.j.j.j.j.j.j.j.j.j.j.j.j.j.j.j.j.j.j.j.j.j.",
"j.j.j.j.j.j.j.j.j.j.j.j.j.j.j.j.j.j.j.j.j.j.j.j.j.j.j.j.j.j.j.j."
};
