/* XPM */
static const char *reload[] = {
/* columns rows colors chars-per-pixel */
"18 18 134 2",
"   c #0D3A3E",
".  c #0F422E",
"X  c #225F3F",
"o  c #1F603C",
"O  c #337E3E",
"+  c #14494D",
"@  c #175A40",
"#  c #1F564B",
"$  c #1C5D59",
"%  c #215B5E",
"&  c #2E6D41",
"*  c #2F6E48",
"=  c #297245",
"-  c #30714A",
";  c #2B6A63",
":  c #2E6D69",
">  c #2D706B",
",  c #30834B",
"<  c #37804D",
"1  c #378452",
"2  c #378054",
"3  c #3A8757",
"4  c #3E8B5B",
"5  c #35846F",
"6  c #378278",
"7  c #37827C",
"8  c #338A7F",
"9  c #3C8D7B",
"0  c #3DA062",
"q  c #519B40",
"w  c #408D50",
"e  c #41885A",
"r  c #40895C",
"t  c #499652",
"y  c #59A45C",
"u  c #46977F",
"i  c #5DA069",
"p  c #5FA66A",
"a  c #5DA06E",
"s  c #5BAE69",
"d  c #5EBD79",
"f  c #61B663",
"g  c #62AD72",
"h  c #65AE73",
"j  c #6BAE77",
"k  c #6BB277",
"l  c #70B174",
"z  c #7FBE71",
"x  c #70B77C",
"c  c #78BB7D",
"v  c #7EC17E",
"b  c #69EC78",
"n  c #6FEE7B",
"m  c #84BF6C",
"M  c #98DE75",
"N  c #A1DE7D",
"B  c #9DE071",
"V  c #A6EC67",
"C  c #AAED6E",
"Z  c #B0ED6E",
"A  c #B8EE7D",
"S  c #BBF37E",
"D  c #3B8A84",
"F  c #4B988A",
"G  c #589F8C",
"H  c #5E9D92",
"J  c #709F9A",
"K  c #4DA686",
"L  c #50BB8C",
"P  c #5BA895",
"I  c #54B196",
"U  c #66AF9D",
"Y  c #69B691",
"T  c #7EBB98",
"R  c #6BB4A2",
"E  c #77BEA6",
"W  c #7DB6B3",
"Q  c #6AC189",
"!  c #78C59E",
"~  c #74DF90",
"^  c #7CDB97",
"/  c #71E286",
"(  c #79E886",
")  c #7FF487",
"_  c #7BE291",
"`  c #7ECFA2",
"'  c #87C582",
"]  c #86C787",
"[  c #8ACC81",
"{  c #99D881",
"}  c #9DDC87",
"|  c #99D88B",
" . c #90CF90",
".. c #86DF9D",
"X. c #93D491",
"o. c #A2DD92",
"O. c #88F38D",
"+. c #82EB91",
"@. c #81E892",
"#. c #A9E681",
"$. c #B0EA81",
"%. c #81C2AD",
"&. c #87C8AF",
"*. c #89D4A5",
"=. c #8BDAA7",
"-. c #92D1B6",
";. c #91D4B4",
":. c #9AD3B2",
">. c #90E3A7",
",. c #A3F6A9",
"<. c #A7F0AE",
"1. c #ABF4AE",
"2. c #BAFDBA",
"3. c #C0F489",
"4. c #C7EFA6",
"5. c #CFF5A2",
"6. c #CDF1AA",
"7. c #DEFDB6",
"8. c #E3FCBF",
"9. c #D6EEC7",
"0. c #C0FDC0",
"q. c #C7FEC3",
"w. c #C3F0CF",
"e. c #D2FDD2",
"r. c #E7FCC3",
"t. c #EBFBD2",
"y. c #EBFEEB",
"u. c #EFFFED",
"i. c #F7FEEB",
"p. c #F8FEEB",
"a. c #F9FFED",
"s. c #F2FDF2",
"d. c #F9FDF2",
"f. c None",
/* pixels */
"f.f.f.f.f.f.f.f.f.f.f.f.f.f.f.f.f.f.",
"f.f.f.f.f.f.f.j j j j j j j j f.f.f.",
"f.f.f.f.f.f.f., d.t.5.Z M s f.f.f.f.",
"f.f.f.f.f.f.f., a.8.S V i f.f.f.f.f.",
"f.f.f.F ! d f., p.7.3.C x - f.f.f.f.",
"f.f.P &.Q $ f., i.r.' A { h X f.f.f.",
"f.6 ` @.0 f.f., 9.T & a $.X.c * f.f.",
"7 u _ 1.5 f.f., f f.f.f.a o. .k . f.",
"D K / <.J f.f.f.f.f.f.f.= l } | w f.",
"f.9 =...:.> f.f.f.f.f.f.f.= 4.B y 3 ",
"f.  R -.>.*.+ f.f.L 8 f.f.O 6.N t 1 ",
"f.f.: E ;.+.H # W w.8 f.f.q #.[ < f.",
"f.f.f.% U ^ ( Y q.y.8 f.o z ] p f.f.",
"f.f.f.f.; %.n O.2.u.8 @ m v g 4 f.f.",
"f.f.f.f.f.G b ) 0.u.8 e 2 r f.f.f.f.",
"f.f.f.f.I ~ n ,.e.s.8 f.f.f.f.f.f.f.",
"f.f.f.8 ; ; ; ; ; ; 8 f.f.f.f.f.f.f.",
"f.f.f.f.f.f.f.f.f.f.f.f.f.f.f.f.f.f."
};
