/* XPM */
static const char * amilab_logo_new_16x16_xpm[] = {
"16 16 173 2",
"  	c None",
". 	c #FFFFFF",
"+ 	c #E1E1EB",
"@ 	c #AAAAB5",
"# 	c #E2E3EA",
"$ 	c #FAFAFB",
"% 	c #DADAF0",
"& 	c #CFCEEA",
"* 	c #EFEFF7",
"= 	c #FFFEFE",
"- 	c #FFFFFE",
"; 	c #9998C6",
"> 	c #F8F6F6",
", 	c #9E9EB0",
"' 	c #D0D0E6",
") 	c #DDDEED",
"! 	c #8788C8",
"~ 	c #A9A9C3",
"{ 	c #C1C1C6",
"] 	c #9B9CAC",
"^ 	c #CACADC",
"/ 	c #FEFEFD",
"( 	c #FCFCFC",
"_ 	c #C6C6E2",
": 	c #B3B2C1",
"< 	c #F4F4F6",
"[ 	c #7D7EBA",
"} 	c #FEFEFE",
"| 	c #F8F8F8",
"1 	c #8B8CB3",
"2 	c #7576C7",
"3 	c #D0D0DD",
"4 	c #FAFAFA",
"5 	c #ACACB8",
"6 	c #D8D7E8",
"7 	c #ABABD3",
"8 	c #CACAE6",
"9 	c #C1C1C5",
"0 	c #E1E0E9",
"a 	c #6E6EB5",
"b 	c #F7F7F9",
"c 	c #F0F0F4",
"d 	c #7878CC",
"e 	c #7A79B2",
"f 	c #F0EFF7",
"g 	c #F1F1F1",
"h 	c #8E8FB6",
"i 	c #A5A6DB",
"j 	c #FDFDFC",
"k 	c #C0BFCA",
"l 	c #E4E3EE",
"m 	c #7E7DBF",
"n 	c #D4D4E6",
"o 	c #9F9FD2",
"p 	c #7A7AC1",
"q 	c #C2C2CC",
"r 	c #A9A7D5",
"s 	c #FDFDFE",
"t 	c #D4D4E2",
"u 	c #8483CE",
"v 	c #CECEE5",
"w 	c #B0B1C8",
"x 	c #EFEFF5",
"y 	c #9A99C7",
"z 	c #9392C8",
"A 	c #6567C8",
"B 	c #C7C7DB",
"C 	c #A4A4C4",
"D 	c #CECEEA",
"E 	c #F2F2F4",
"F 	c #8586CB",
"G 	c #AFAFD3",
"H 	c #BDBDD6",
"I 	c #F6F6F5",
"J 	c #A6A7C8",
"K 	c #FCFCFD",
"L 	c #C0C0D2",
"M 	c #6262BB",
"N 	c #7474C2",
"O 	c #E7E8EA",
"P 	c #9E9ECE",
"Q 	c #F0EFF6",
"R 	c #9F9ECA",
"S 	c #9090D6",
"T 	c #FBFAFC",
"U 	c #C1C0D3",
"V 	c #D4D3DC",
"W 	c #BABCDC",
"X 	c #EEEEF1",
"Y 	c #6262BC",
"Z 	c #AAA8CE",
"` 	c #C8C6D4",
" .	c #9A9AC8",
"..	c #7777CD",
"+.	c #D9D8E9",
"@.	c #D8D7DF",
"#.	c #ADACC9",
"$.	c #D7D8ED",
"%.	c #D1D0DE",
"&.	c #5E60C4",
"*.	c #9B99CD",
"=.	c #FEFFFE",
"-.	c #F0F0F2",
";.	c #7272BC",
">.	c #A0A0D5",
",.	c #E4E4E6",
"'.	c #A5A5CC",
").	c #F6F6FA",
"!.	c #A9A9CE",
"~.	c #6A6CBA",
"{.	c #7170C1",
"].	c #E8E8F1",
"^.	c #9E9EC5",
"/.	c #7C7DCF",
"(.	c #B2B2D7",
"_.	c #F9F9FC",
":.	c #CAC9D8",
"<.	c #C2C2E5",
"[.	c #908FCA",
"}.	c #9C9CCB",
"|.	c #A3A4C5",
"1.	c #9A9AD5",
"2.	c #D4D4DE",
"3.	c #6A6AC4",
"4.	c #CDCEE4",
"5.	c #DADAE3",
"6.	c #D3D2EB",
"7.	c #F2F1F2",
"8.	c #A6A5CE",
"9.	c #D8D8EA",
"0.	c #7B7AC1",
"a.	c #BEBED8",
"b.	c #F4F4F5",
"c.	c #8584C0",
"d.	c #BDBDDE",
"e.	c #7373B8",
"f.	c #A3A2D5",
"g.	c #D4D3E1",
"h.	c #AEAECC",
"i.	c #CACBE3",
"j.	c #E4E4EC",
"k.	c #7070B8",
"l.	c #DCDCE8",
"m.	c #E8E8EC",
"n.	c #6766A8",
"o.	c #7979C7",
"p.	c #F7F8F9",
"q.	c #FEFEFF",
"r.	c #BBBBD4",
"s.	c #BABADE",
"t.	c #F4F4F8",
"u.	c #7C7CBB",
"v.	c #E8E8ED",
"w.	c #BABACE",
"x.	c #7272C1",
"y.	c #A7A6D0",
"z.	c #A2A2D3",
"A.	c #B6B6DE",
"B.	c #A5A6D0",
"C.	c #CECEE8",
"D.	c #FEFEFC",
"E.	c #A4A4CB",
"F.	c #D1D2E0",
"G.	c #BBBBCC",
"H.	c #7475B9",
"I.	c #E6E5F0",
"J.	c #F9F9FA",
"K.	c #F0F0F3",
"L.	c #FFFEFF",
"M.	c #F4F3F5",
"N.	c #8E8EBE",
"O.	c #A2A1CE",
"P.	c #F2F1F6",
". + @ # . . $ % & * = . . - - . ",
". ; > , ' ) ! ~ { ] ^ / ( _ : < ",
". [ } | 1 2 3 . . 4 5 6 7 8 9 0 ",
"} a b c d e f . . . g h i j k l ",
". m n o p q r s . . t u v / w x ",
". y z A B ( C D . E F G H I J K ",
". L M N ( . O P Q R S T U V W } ",
". X Y Z - . } `  ...+.. @.#.$.. ",
". %.&.*.=.. . -.;.>.} . ,.'.).. ",
". !.~.{.].- } ^./.(._.- :.<.} . ",
". [.}.|.1.=.2.3.4.5.6.7.8.9.. . ",
". 0.a.b.c.d.e.f./ } g.h.i.j.} . ",
". k.l.. m.n.o.p.q.$ r.s.j.t.. . ",
". u.v.. w.x.y.z.A.B.C.D.} - . . ",
". E.F.G.H.I.} J.K.( } . . . . . ",
"L.M.N.O.P.= L.L.L.L.L.L.L.L.L.L."};
