/* XPM */
static const char *gl_fill_line_string[] = {
/* columns rows colors chars-per-pixel */
"30 30 4 1",
"  c #ffffefef9696",
". c Gray0",
"X c Yellow",
"o c #fffffafac1c1",
/* pixels */
"       ..XXXXXXX..            ",
"         ..XXX..              ",
"           ...                ",
"           .o..               ",
"          .oooo.              ",
"          .ooooo..            ",
"         .oooooooo.         ..",
"        .oooooooooo..      .  ",
"       .ooooooooooooo.   ..   ",
"       .oooooooooooooo...     ",
"      .ooooooooooooooooo..    ",
"     .ooooooooooooooooo.  ..  ",
"    .ooooooooooooooooo.     ..",
".   .oooooooooooooooo.        ",
" ...ooooooooooooooooo.        ",
"  .ooooooooooooooooo.         ",
" . ..oooooooooooooo.         .",
" .   ..ooooooooooo.         . ",
".      .ooooooooo.         .  ",
".       ..oooooo.          .  ",
"          ..oooo.         .   ",
"            ..o.         .    ",
"              .         .     ",
"             . .        .     ",
"             .  .      .      ",
"            .    .    .       ",
"            .     .  .        ",
"           .       . .        ",
"           .        ..        ",
"          .         .X.       "
};
