/* XPM */
static const char *loadvrml_string[] = {
/* columns rows colors chars-per-pixel */
"27 27 2 1",
"X c Gray0",
". c White",
/* piXels */
"...........................",
".XXXXXXXXXXXXXXXXXXXXXXXXX.",
".XX.........XXX.........XX.",
".XX........X............XX.",
".XX.....XXX.............XX.",
".XX....X................XX.",
".XX.XXX.................XX.",
".XXX...............X....XX.",
".XX...X.X.X.XXX.X..X....XX.",
".XX...X.X.XX.X.X.X.X....XX.",
".XX...X.X.X..X.X.X.X....XX.",
".XX....X..X..X.X.X.X....XX.",
".XX.....................XX.",
".XX.....................XX.",
".XX.....................XX.",
".XXXXXXXXXXXXXXXXXXXXXXXXX.",
"...........................",
"...XX..XXXX....XX..X.XX....",
"..X..X..X..X..X..X..X..X...",
"..X..X..X..X..XXXX..X..X...",
"..X..X..X..X..X.....X..X...",
"..X..X..X..X..XX..X.X..X...",
"...XX...XXX....XXX.XXX.XX..",
"........X..................",
"........X..................",
".......XXX.................",
"..........................."
};
