/* XPM */
static const char *YZ_string[] = {
/* columns rows colors chars-per-pixel */
"30 30 2 1",
"X c Gray0",
"  c White",
/* pixels */
"                              ",
"                              ",
"          XXXX                ",
"    X     X X                 ",
"   XXX     X                  ",
"   XX X   X  X                ",
"  X X  X  XXXX                ",
"    X                         ",
"    X                         ",
"    X                         ",
"    X                         ",
"    X                         ",
"    X                         ",
"    X                         ",
"    X               XX XX     ",
"    X                X X      ",
"    X                 X       ",
"    X                 X       ",
"    X                XXX      ",
"    X                         ",
"    X                  X      ",
"    X                   XX    ",
"    X                    XX   ",
"    XXXXXXXXXXXXXXXXXXXXXXXX  ",
"                         XX   ",
"                        X     ",
"                       X      ",
"                              ",
"                              ",
"                              "
};
