/* XPM */
static const char * amilab_logo_new_32x32_xpm[] = {
"32 32 562 2",
"  	c None",
". 	c #FFFFFF",
"+ 	c #FFFFFE",
"@ 	c #FBFAF8",
"# 	c #D9D8E3",
"$ 	c #EAEBF0",
"% 	c #FBFDFA",
"& 	c #FAF9FA",
"* 	c #9191BD",
"= 	c #787581",
"- 	c #6E6E80",
"; 	c #9D9EBE",
"> 	c #F0F1F3",
", 	c #FEFFFE",
"' 	c #FEFFFF",
") 	c #FDFCFB",
"! 	c #EEEEF4",
"~ 	c #C4C5E5",
"{ 	c #A6A6DC",
"] 	c #9895D5",
"^ 	c #A5A5D3",
"/ 	c #C9CAE6",
"( 	c #F4F5F9",
"_ 	c #FEFEFC",
": 	c #FFFEFE",
"< 	c #FFFFFC",
"[ 	c #FEFFFC",
"} 	c #C4C3DA",
"| 	c #7B7AB6",
"1 	c #FCFAF9",
"2 	c #E6E6E4",
"3 	c #828487",
"4 	c #8280B9",
"5 	c #E1E1EF",
"6 	c #FAFAFA",
"7 	c #B5B5D8",
"8 	c #7E80D3",
"9 	c #7070B7",
"0 	c #777695",
"a 	c #888792",
"b 	c #85848F",
"c 	c #7E8093",
"d 	c #8C8DB6",
"e 	c #D6D6EB",
"f 	c #FCFDFA",
"g 	c #FFFFFD",
"h 	c #FCFCFB",
"i 	c #DCDAE9",
"j 	c #C0BFD9",
"k 	c #C5C5D2",
"l 	c #FAFAFC",
"m 	c #9897C8",
"n 	c #8C8EC0",
"o 	c #FEFCFD",
"p 	c #FFFEFF",
"q 	c #EFEDEF",
"r 	c #868793",
"s 	c #7D7FBB",
"t 	c #E4E2EF",
"u 	c #F0F1F4",
"v 	c #8B8CC7",
"w 	c #7A79D6",
"x 	c #70709D",
"y 	c #C2C3C7",
"z 	c #F9FAF9",
"A 	c #D0CED2",
"B 	c #939497",
"C 	c #8B8BA7",
"D 	c #CACAE5",
"E 	c #F2F4F4",
"F 	c #A7A8CD",
"G 	c #9B9BD5",
"H 	c #AEAEBE",
"I 	c #98969A",
"J 	c #D8D8E2",
"K 	c #FEFEFD",
"L 	c #7F80B8",
"M 	c #898BC3",
"N 	c #FEFDFE",
"O 	c #FEFEFE",
"P 	c #E6E6E7",
"Q 	c #7E8096",
"R 	c #8283C0",
"S 	c #7D81C4",
"T 	c #7576D8",
"U 	c #7778A6",
"V 	c #E8E7EA",
"W 	c #ECECEC",
"X 	c #9C9EA1",
"Y 	c #9492B6",
"Z 	c #DAD9EE",
"` 	c #FDFCFE",
" .	c #F2F1F2",
"..	c #9596C3",
"+.	c #9291D8",
"@.	c #D9D9E9",
"#.	c #E2E2DF",
"$.	c #9D9CA6",
"%.	c #C4C4D4",
"&.	c #FDFDFD",
"*.	c #7676B3",
"=.	c #7577BC",
"-.	c #FDFCFD",
";.	c #C8C7CC",
">.	c #6364A9",
",.	c #7779DD",
"'.	c #6B69A2",
").	c #E5E4E7",
"!.	c #FDFEFE",
"~.	c #9A9CA0",
"{.	c #A09EC8",
"].	c #E9E9EE",
"^.	c #9695BA",
"/.	c #9091DC",
"(.	c #BEC0DA",
"_.	c #FDFCFC",
":.	c #E7E6E7",
"<.	c #9E9FA9",
"[.	c #C5C3D7",
"}.	c #FDFEFC",
"|.	c #FCFCFC",
"1.	c #7474AD",
"2.	c #6667BC",
"3.	c #FCFCFD",
"4.	c #FDFDFB",
"5.	c #9596C2",
"6.	c #7B7ADE",
"7.	c #5858AC",
"8.	c #9C9CC6",
"9.	c #FBFCF8",
"0.	c #CECECC",
"a.	c #9D9EAD",
"b.	c #8686B8",
"c.	c #8A8AD9",
"d.	c #9A9CD2",
"e.	c #F8FAF8",
"f.	c #E5E5E5",
"g.	c #A09FB1",
"h.	c #C6C5DC",
"i.	c #FDFDFC",
"j.	c #7677A8",
"k.	c #6867C4",
"l.	c #E2E1EB",
"m.	c #C7C6D8",
"n.	c #6E6DCD",
"o.	c #6161C4",
"p.	c #6B6B8F",
"q.	c #8786C9",
"r.	c #C8C7E7",
"s.	c #FAFAFB",
"t.	c #9898AD",
"u.	c #7C80C8",
"v.	c #8A8BD3",
"w.	c #E5E6EE",
"x.	c #DADADA",
"y.	c #9F9EBA",
"z.	c #CECCE4",
"A.	c #FEFDFC",
"B.	c #8786AE",
"C.	c #6A68CE",
"D.	c #C1C2DA",
"E.	c #F6F6F9",
"F.	c #6C6CAE",
"G.	c #7674DE",
"H.	c #6466A7",
"I.	c #D1D2D0",
"J.	c #8786AB",
"K.	c #8F8ECE",
"L.	c #E6E4F2",
"M.	c #DCDDE3",
"N.	c #7675B7",
"O.	c #8E8EE3",
"P.	c #A1A1D0",
"Q.	c #CACCCF",
"R.	c #9E9FC3",
"S.	c #D8D7EA",
"T.	c #9E9BB4",
"U.	c #6A6ACB",
"V.	c #9796C9",
"W.	c #FCFCF9",
"X.	c #A9A7CA",
"Y.	c #7274D6",
"Z.	c #5655B5",
"`.	c #BABBCA",
" +	c #B2B2B8",
".+	c #8B8CBF",
"++	c #A39FD6",
"@+	c #F8F6FB",
"#+	c #F4F5F5",
"$+	c #8382B3",
"%+	c #8C8CE0",
"&+	c #7F7EC0",
"*+	c #A7AAD0",
"=+	c #F2F0F9",
"-+	c #B8B9C0",
";+	c #A0A0CE",
">+	c #E7E8F0",
",+	c #BCBCCA",
"'+	c #6C68C4",
")+	c #7170BD",
"!+	c #EFEEF0",
"~+	c #6362B2",
"{+	c #6F72DC",
"]+	c #696AA7",
"^+	c #F8F8F9",
"/+	c #F4F4F4",
"(+	c #9697AC",
"_+	c #9292D4",
":+	c #C3C1E3",
"<+	c #FCFDFC",
"[+	c #A1A1BC",
"}+	c #7C7ED2",
"|+	c #7E7ED0",
"1+	c #B2B1C6",
"2+	c #ADAECA",
"3+	c #D5D6EC",
"4+	c #F9F9F8",
"5+	c #A3A6B4",
"6+	c #A0A2D1",
"7+	c #F7F6FA",
"8+	c #FEFEFF",
"9+	c #DCDDE1",
"0+	c #6463AC",
"a+	c #6666C6",
"b+	c #8584AF",
"c+	c #7174D8",
"d+	c #5255B9",
"e+	c #BCBBCD",
"f+	c #D7D7DB",
"g+	c #9291B6",
"h+	c #9698D9",
"i+	c #E5E4F2",
"j+	c #CCCEDA",
"k+	c #6E6FB6",
"l+	c #8889E7",
"m+	c #A2A2CC",
"n+	c #EBEBEA",
"o+	c #B4B3C1",
"p+	c #BFBEDF",
"q+	c #FDFEFA",
"r+	c #E4E4E4",
"s+	c #A1A1BE",
"t+	c #B2B4DC",
"u+	c #FAFCFC",
"v+	c #6C6B9C",
"w+	c #6C6CCE",
"x+	c #5553A6",
"y+	c #7174E0",
"z+	c #6060A4",
"A+	c #F7F7F7",
"B+	c #B0B1BA",
"C+	c #9696CC",
"D+	c #ABABDE",
"E+	c #F9F8FA",
"F+	c #F0F0F2",
"G+	c #7777A9",
"H+	c #8887E3",
"I+	c #797AC4",
"J+	c #F0EFF6",
"K+	c #C0C0C5",
"L+	c #B6B4D7",
"M+	c #F3F2F8",
"N+	c #CCCAD0",
"O+	c #9EA1C9",
"P+	c #C8CAE5",
"Q+	c #FDFEFD",
"R+	c #9C9BB3",
"S+	c #6160AC",
"T+	c #6768CB",
"U+	c #5D5CC5",
"V+	c #A4A2C1",
"W+	c #F0F2F2",
"X+	c #9B9CB3",
"Y+	c #9E9CD9",
"Z+	c #CACAE9",
"`+	c #FCFCFA",
" @	c #9E9DBC",
".@	c #7875D1",
"+@	c #7A7CD5",
"@@	c #C3C3DB",
"#@	c #D7D6DA",
"$@	c #B8B8D5",
"%@	c #E2E0EE",
"&@	c #AEAFBC",
"*@	c #A2A4D5",
"=@	c #E2E3EE",
"-@	c #D0D0D8",
";@	c #525292",
">@	c #7374E0",
",@	c #504DA6",
"'@	c #E8E6EC",
")@	c #D1D1D4",
"!@	c #9D9AC0",
"~@	c #A3A4DD",
"{@	c #BFC2D2",
"]@	c #6867B0",
"^@	c #8586E6",
"/@	c #8A89C2",
"(@	c #FBFAFB",
"_@	c #E8E8E9",
":@	c #BDBCD0",
"<@	c #C2C0D8",
"[@	c #A0A0BB",
"}@	c #A7A8D8",
"|@	c #ECECEF",
"1@	c #5758A6",
"2@	c #6B6CD8",
"3@	c #7472AA",
"4@	c #FBFAFA",
"5@	c #FFFEFD",
"6@	c #FBFBFA",
"7@	c #B5B3C2",
"8@	c #9E9CCB",
"9@	c #6668A6",
"0@	c #807EDE",
"a@	c #7071C1",
"b@	c #E0E0EC",
"c@	c #FEFEFB",
"d@	c #C2C2CC",
"e@	c #B0AEC4",
"f@	c #A3A0CC",
"g@	c #C0C2E2",
"h@	c #BCBBCC",
"i@	c #6869CA",
"j@	c #5758BF",
"k@	c #625EA5",
"l@	c #EDECF0",
"m@	c #EEEEEE",
"n@	c #7D7D9E",
"o@	c #6B6BC4",
"p@	c #7B78DA",
"q@	c #A9ABCE",
"r@	c #FBFBFB",
"s@	c #CAC9CE",
"t@	c #A3A3B9",
"u@	c #A5A4D8",
"v@	c #E0E2EF",
"w@	c #8B8BB0",
"x@	c #6E70DC",
"y@	c #4C4EA9",
"z@	c #6E6CCA",
"A@	c #B0AED4",
"B@	c #D8D7DF",
"C@	c #6060A6",
"D@	c #8180E6",
"E@	c #6E6DBA",
"F@	c #ECF1F3",
"G@	c #CAC8CC",
"H@	c #9EA0C7",
"I@	c #AEAEDA",
"J@	c #FCFBFD",
"K@	c #FBFDFC",
"L@	c #6262A0",
"M@	c #6B6DDA",
"N@	c #505296",
"O@	c #7070C6",
"P@	c #7573C5",
"Q@	c #F2F1F5",
"R@	c #7876A4",
"S@	c #7477D6",
"T@	c #696AC5",
"U@	c #999ACE",
"V@	c #CCCBEA",
"W@	c #AEAEC0",
"X@	c #A2A4D6",
"Y@	c #D2D3E9",
"Z@	c #FEFDFA",
"`@	c #EBECF0",
" #	c #5C59AA",
".#	c #6162CA",
"+#	c #8C8EB0",
"@#	c #6A69A1",
"##	c #7472D7",
"$#	c #B0B0D4",
"%#	c #A8A9BE",
"&#	c #6163BA",
"*#	c #7778DD",
"=#	c #9A9BC5",
"-#	c #B0B0C4",
";#	c #B4B1DF",
">#	c #EAEAF6",
",#	c #DCDCE1",
"'#	c #9F9EC4",
")#	c #A7A5DE",
"!#	c #EBECF8",
"~#	c #C7C7D2",
"{#	c #6662C6",
"]#	c #5454B6",
"^#	c #D0D2DA",
"/#	c #ABACBD",
"(#	c #7273C0",
"_#	c #7473C6",
":#	c #E8E7F0",
"<#	c #DEDEE4",
"[#	c #5B5D9F",
"}#	c #787AE2",
"|#	c #7073BA",
"1#	c #F3F2F2",
"2#	c #E3E2E6",
"3#	c #B2B3CF",
"4#	c #C2C0E8",
"5#	c #FAF9FD",
"6#	c #ACABBC",
"7#	c #A2A2D6",
"8#	c #B6B5DD",
"9#	c #EFEFF6",
"0#	c #AEACC2",
"a#	c #6767CD",
"b#	c #5452A5",
"c#	c #F8F7F6",
"d#	c #F6F6F6",
"e#	c #797AA2",
"f#	c #7876D2",
"g#	c #FCFBFA",
"h#	c #76769D",
"i#	c #6B6CCE",
"j#	c #6965C3",
"k#	c #D4D6E4",
"l#	c #D6D4DA",
"m#	c #B8B8DA",
"n#	c #D8D8EE",
"o#	c #CECDD3",
"p#	c #9C9CC8",
"q#	c #ACAADD",
"r#	c #CBCDDA",
"s#	c #EFF0FA",
"t#	c #9C9AB6",
"u#	c #6665D2",
"v#	c #7172B0",
"w#	c #FCFCF8",
"x#	c #D7D7DC",
"y#	c #7070AB",
"z#	c #7874D5",
"A#	c #C1C4DE",
"B#	c #FBFCFA",
"C#	c #A8A7BB",
"D#	c #5A5BB2",
"E#	c #7070DA",
"F#	c #A8A6C9",
"G#	c #FDFCF7",
"H#	c #CCCDD4",
"I#	c #BEBDE0",
"J#	c #D9DAE5",
"K#	c #A09FBE",
"L#	c #A1A2DB",
"M#	c #D6D7E3",
"N#	c #D1D0DC",
"O#	c #F2F3F8",
"P#	c #8789AC",
"Q#	c #6462D0",
"R#	c #908DBC",
"S#	c #B8B7C4",
"T#	c #7574BB",
"U#	c #7A78CD",
"V#	c #BDBCD2",
"W#	c #575898",
"X#	c #7272DD",
"Y#	c #7E7CBC",
"Z#	c #FAF9F9",
"`#	c #CCCAD7",
" $	c #9FA0BC",
".$	c #9E9DD3",
"+$	c #C8C7E3",
"@$	c #EBEDEA",
"#$	c #D2D1E0",
"$$	c #8082A8",
"%$	c #6060CB",
"&$	c #ACADCA",
"*$	c #A8A6B9",
"=$	c #7777C0",
"-$	c #535496",
";$	c #6767CC",
">$	c #6A6ABC",
",$	c #E6E8ED",
"'$	c #B2B2C5",
")$	c #9A9ACC",
"!$	c #ADAEDC",
"~$	c #F0F3F8",
"{$	c #E0E2E3",
"]$	c #DDDCEA",
"^$	c #8282A9",
"/$	c #5E5EC4",
"($	c #C7C7D8",
"_$	c #FAFAF8",
":$	c #767597",
"<$	c #5B57B2",
"[$	c #6665C9",
"}$	c #AEAECC",
"|$	c #F9FAFA",
"1$	c #A9AAC1",
"2$	c #9897CE",
"3$	c #BAB8E0",
"4$	c #E7E7EE",
"5$	c #DEDCE7",
"6$	c #E1E0EC",
"7$	c #F7F6FB",
"8$	c #9393B4",
"9$	c #5A5ABE",
"0$	c #C9CAD6",
"a$	c #BCBECA",
"b$	c #5352A0",
"c$	c #6B6ACF",
"d$	c #7172B3",
"e$	c #8281D0",
"f$	c #9EA1CF",
"g$	c #D2D2E2",
"h$	c #E3E2EC",
"i$	c #D8D8E3",
"j$	c #B8B8CE",
"k$	c #9494C1",
"l$	c #9A9AD5",
"m$	c #C1C0E0",
"n$	c #A9A9BD",
"o$	c #595ABC",
"p$	c #D7D8E0",
"q$	c #D6D5DD",
"r$	c #555692",
"s$	c #6868C9",
"t$	c #A4A4CC",
"u$	c #F0F0F0",
"v$	c #B8B6CE",
"w$	c #9290C9",
"x$	c #8687D1",
"y$	c #8C8CD2",
"z$	c #9090D5",
"A$	c #9596D4",
"B$	c #B4B4DE",
"C$	c #E2E2F0",
"D$	c #D2D3D9",
"E$	c #5756AD",
"F$	c #C7CAD9",
"G$	c #DBDCDE",
"H$	c #5C5D93",
"I$	c #6061C2",
"J$	c #A6A2CF",
"K$	c #FCFBFB",
"L$	c #EAEAEF",
"M$	c #DFDFE7",
"N$	c #E4E4EC",
"O$	c #F5F6F8",
"P$	c #FBFDF9",
"Q$	c #6E6AAD",
"R$	c #8E8FB7",
"S$	c #F2F2F3",
"T$	c #BAB9C8",
"U$	c #5A598E",
"V$	c #5E60B6",
"W$	c #B7B6D8",
"X$	c #FEFFFD",
"Y$	c #D6D6DF",
"Z$	c #5958A1",
"`$	c #4A4D90",
" %	c #4E509C",
".%	c #7472BB",
"+%	c #D1D0E3",
"@%	c #FBFAFC",
"#%	c #FDFAFD",
"$%	c #E2E2EB",
"%%	c #B3B0DA",
"&%	c #CCCAE5",
"*%	c #F8F7FA",
"=%	c #FEFDFD",
". . + @ # $ % . . . . . . . . . . . . . . . . . . . . . . . . . ",
". . & * = - ; > , . . ' ) ! ~ { ] ^ / ( _ : + . . + + : < [ + . ",
". . } | 1 2 3 4 5 . . 6 7 8 9 0 a b c d e f , . . g h i j k l + ",
". . m n o p q r s t u v w x y 6 , z A B C D f g + E F G H I J K ",
". . L M N . O P Q R S T U V O . . . O W X Y Z `  ...+.@.#.$.%.&.",
". O *.=.-.. , : ;.>.,.'.).!.. . . . . O P ~.{.].^./.(._.:.<.[.}.",
". |.1.2.3.. ' 4.5.6.7.8.9.p . . . . . . O 0.a.b.c.d.e.p f.g.h.i.",
". . j.k.l.+ O m.n.o.p.q.r.o . . . . . . + s.t.u.v.w.O < x.y.z.A.",
". . B.C.D.O E.F.G.H.I.J.K.L.+ . . . . . : M.N.O.P.|.+ : Q.R.S._ ",
". . T.U.V.W.X.Y.Z.`.h  +.+++@++ . . . . #+$+%+&+*+=+_ K -+;+>+: ",
". . ,+'+)+!+~+{+]+^+. /+(+_+:+<+. . + |.[+}+|+1+2+3+O 4+5+6+7+8+",
". . 9+0+a+b+c+d+e+O . . f+g+h+i+. . : j+k+l+m+n+o+p+q+r+s+t+<+O ",
". . u+v+w+x+y+z+A+. . . O B+C+D+E+< F+G+H+I+J+O K+L+M+N+O+P+Q+. ",
". . _ R+S+T+U+V+&.. . . . W+X+Y+Z+`+ @.@+@@@A.. #@$@%@&@*@=@O . ",
". . , -@;@>@,@'@+ . . . . O )@!@~@{@]@^@/@(@. 8+_@:@<@[@}@l . . ",
". . , |@1@2@3@4@5@. . . . O 6@7@8@9@0@a@b@c@. . A+d@e@f@g@3.. . ",
". . : h@i@j@k@l@, . . . . + O m@n@o@p@q@r@. . . O s@t@u@v@!.. . ",
". . K w@x@y@z@A@_ . . . . . K B@C@D@E@F@8+. . . . G@H@I@J@, . . ",
". . K@L@M@N@O@P@Q@g + + . O ^+R@S@T@U@V@!.. + . &.W@X@Y@Z@. . . ",
". . `@ #.#+#@###$#K + + . K %#&#*#=#-#;#>#K . g ,#'#)#!#O . . . ",
". . ~#{#]#^#/#(#_#:#g . + <#[#}#|#1#2#3#4#5#+ W.6#7#8#9#. . . . ",
". . 0#a#b#c#d#e#f#C+Q+, g#h#i#j#k#O K l#m#n#A.o#p#q#r#s#O . . . ",
". . t#u#v#w#}.x#y#z#A#B#C#D#E#F#G#: + h H#I#J#K#L#M#N#O#O . . . ",
". . P#Q#R#i.p 5@S#T#U#V#W#X#Y#d#. . . . Z#`# $.$+$@$#$l O . . . ",
". . $$%$&$O . + + *$=$-$;$>$,$O . . . . 6 '$)$!$~${$]$K . . . . ",
". . ^$/$($. . . . _$:$<$[$}$|$O 8+8+o l@1$2$3$4$5$6$7$O . . . . ",
". . 8$9$0$. . . . a$b$c$d$e$f$g$h$i$j$k$l$m$4@c@_ _ O . . . . . ",
". . n$o$p$. . + q$r$s$t$u$v$w$x$y$z$A$B$C$&., . . . + . . . . . ",
". . D$E$F$O O G$H$I$J$l O K K$L$M$N$O$-.N . . . . . . . . . . . ",
". . P$Q$R$S$T$U$V$W$@ O . , , . K K , X$, . . . . . . . . . . . ",
". . i.Y$Z$`$ %.%+%@%g + . . . . . . . . . . . . . . . . . . . . ",
"p p K #%$%%%&%*%=%5@: p p p p p p p p p p p p p p p p p p p p p "};
