/* XPM */
static const char * amilab_logo_new_32x32_alpha_xpm[] = {
"32 32 539 2",
"  	c None",
". 	c #35E335",
"+ 	c #A0FFA0",
"@ 	c #35EA35",
"# 	c #2ED52E",
"$ 	c #38DC38",
"% 	c #37FA37",
"& 	c #3EFE3E",
"* 	c #42F742",
"= 	c #4BEF4B",
"- 	c #69F369",
"; 	c #92FF92",
"> 	c #1EC11E",
", 	c #2D8F2D",
"' 	c #36CC36",
") 	c #3ED83E",
"! 	c #34F934",
"~ 	c #49FF49",
"{ 	c #33EF33",
"] 	c #2FD22F",
"^ 	c #38C238",
"/ 	c #42C542",
"( 	c #4ED64E",
"_ 	c #5BE25B",
": 	c #65F965",
"< 	c #75FF75",
"[ 	c #6BF36B",
"} 	c #15B015",
"| 	c #95FF95",
"1 	c #66FD66",
"2 	c #1BAC1B",
"3 	c #325F32",
"4 	c #36AC36",
"5 	c #3FD63F",
"6 	c #44D644",
"7 	c #45F945",
"8 	c #65FE65",
"9 	c #27E027",
"0 	c #1FA81F",
"a 	c #2D7F2D",
"b 	c #3B6E3B",
"c 	c #467C46",
"d 	c #4F9F4F",
"e 	c #57C657",
"f 	c #63DD63",
"g 	c #66F966",
"h 	c #8EFE8E",
"i 	c #5EE65E",
"j 	c #61C461",
"k 	c #6ED86E",
"l 	c #17B017",
"m 	c #9DFF9D",
"n 	c #59FA59",
"o 	c #1AA31A",
"p 	c #3E423E",
"q 	c #3B833B",
"r 	c #3EBE3E",
"s 	c #3BDC3B",
"t 	c #49FB49",
"u 	c #7BFF7B",
"v 	c #25DC25",
"w 	c #1C991C",
"x 	c #244E24",
"y 	c #3B3C3B",
"z 	c #4F4F4F",
"A 	c #575757",
"B 	c #596A59",
"C 	c #5C9F5C",
"D 	c #61C961",
"E 	c #6BDD6B",
"F 	c #53F853",
"G 	c #A3FFA3",
"H 	c #53E453",
"I 	c #54A454",
"J 	c #68A668",
"K 	c #74DF74",
"L 	c #18AB18",
"M 	c #94FF94",
"N 	c #5CFA5C",
"O 	c #1BA11B",
"P 	c #475747",
"Q 	c #379D37",
"R 	c #36F136",
"S 	c #9CFF9C",
"T 	c #33E633",
"U 	c #1C9E1C",
"V 	c #1E3E1E",
"W 	c #667C66",
"X 	c #65AF65",
"Y 	c #6BD46B",
"Z 	c #5EC75E",
"` 	c #42EB42",
" .	c #AEFFAE",
"..	c #59EC59",
"+.	c #44A044",
"@.	c #6B886B",
"#.	c #74D774",
"$.	c #84F484",
"%.	c #18A018",
"&.	c #80FA80",
"*.	c #6AFD6A",
"=.	c #28CB28",
"-.	c #9AFF9A",
";.	c #50F650",
">.	c #1CB31C",
",.	c #1C521C",
"'.	c #6E946E",
").	c #6AC06A",
"!.	c #32DC32",
"~.	c #8DFF8D",
"{.	c #79F979",
"].	c #36B236",
"^.	c #7BA97B",
"/.	c #78E478",
"(.	c #95F895",
"_.	c #1A911A",
":.	c #65F165",
"<.	c #81FF81",
"[.	c #1CBC1C",
"}.	c #6CFA6C",
"|.	c #9FFD9F",
"1.	c #22CE22",
"2.	c #1B6C1B",
"3.	c #3A833A",
"4.	c #818381",
"5.	c #38B938",
"6.	c #5BFA5B",
"7.	c #A9FFA9",
"8.	c #2DCC2D",
"9.	c #3A703A",
"0.	c #79AD79",
"a.	c #7DEB7D",
"b.	c #9FF99F",
"c.	c #1B801B",
"d.	c #4AE34A",
"e.	c #1FCD1F",
"f.	c #1C731C",
"g.	c #26E826",
"h.	c #BDFFBD",
"i.	c #41EE41",
"j.	c #1DA31D",
"k.	c #2E6E2E",
"l.	c #58F058",
"m.	c #2BED2B",
"n.	c #44E844",
"o.	c #288828",
"p.	c #77B477",
"q.	c #86F186",
"r.	c #A3F7A3",
"s.	c #32CE32",
"t.	c #B0FEB0",
"u.	c #28DD28",
"v.	c #1CA71C",
"w.	c #79FE79",
"x.	c #9CFE9C",
"y.	c #1ECA1E",
"z.	c #1C651C",
"A.	c #449F44",
"B.	c #5CEA5C",
"C.	c #54D954",
"D.	c #1DCF1D",
"E.	c #89FF89",
"F.	c #79FB79",
"G.	c #1BAB1B",
"H.	c #548854",
"I.	c #72BD72",
"J.	c #96F696",
"K.	c #9DF49D",
"L.	c #24B424",
"M.	c #A6FEA6",
"N.	c #3CE43C",
"O.	c #2AD92A",
"P.	c #DAFFDA",
"Q.	c #4EEE4E",
"R.	c #1CA31C",
"S.	c #293D29",
"T.	c #519251",
"U.	c #53CF53",
"V.	c #5BED5B",
"W.	c #58CE58",
"X.	c #1BB61B",
"Y.	c #4FF84F",
"Z.	c #C5FEC5",
"`.	c #2BD42B",
" +	c #2C7F2C",
".+	c #86EB86",
"++	c #6DC96D",
"@+	c #ABFAAB",
"#+	c #8FED8F",
"$+	c #1D931D",
"%+	c #7EFA7E",
"&+	c #4CD94C",
"*+	c #61FB61",
"=+	c #BCFFBC",
"-+	c #24D524",
";+	c #1C791C",
">+	c #587258",
",+	c #4FAE4F",
"'+	c #60E760",
")+	c #5AE25A",
"!+	c #22E722",
"~+	c #B5FFB5",
"{+	c #55F355",
"]+	c #198D19",
"^+	c #649A64",
"/+	c #88E988",
"(+	c #68D468",
"_+	c #C1FEC1",
":+	c #7AE47A",
"<+	c #1B7B1B",
"[+	c #4AEA4A",
"}+	c #34DC34",
"|+	c #B4FFB4",
"1+	c #68FA68",
"2+	c #1D4B1D",
"3+	c #568456",
"4+	c #54C554",
"5+	c #63F063",
"6+	c #59D659",
"7+	c #1DC21D",
"8+	c #7BFD7B",
"9+	c #A4FEA4",
"0+	c #1EC01E",
"a+	c #376237",
"b+	c #8CC08C",
"c+	c #87E287",
"d+	c #8AE48A",
"e+	c #66E166",
"f+	c #CCFFCC",
"g+	c #67DA67",
"h+	c #27BF27",
"i+	c #3CE93C",
"j+	c #E0FFE0",
"k+	c #34E534",
"l+	c #1C8E1C",
"m+	c #54A354",
"n+	c #60E060",
"o+	c #60EC60",
"p+	c #19B219",
"q+	c #36F436",
"r+	c #CFFFCF",
"s+	c #3CE53C",
"t+	c #1C811C",
"u+	c #8CAA8C",
"v+	c #85D785",
"w+	c #8DF08D",
"x+	c #6EB66E",
"y+	c #6DEE6D",
"z+	c #BEFFBE",
"A+	c #5DCA5D",
"B+	c #1DA61D",
"C+	c #81FB81",
"D+	c #BFFDBF",
"E+	c #22CF22",
"F+	c #1C681C",
"G+	c #5C7E5C",
"H+	c #56BD56",
"I+	c #6AF16A",
"J+	c #52CA52",
"K+	c #1CDA1C",
"L+	c #75FA75",
"M+	c #1BA81B",
"N+	c #85CC85",
"O+	c #93F393",
"P+	c #5FB95F",
"Q+	c #89FA89",
"R+	c #9FFA9F",
"S+	c #C1FFC1",
"T+	c #7BF97B",
"U+	c #1EB81E",
"V+	c #1C551C",
"W+	c #599659",
"X+	c #5CD35C",
"Y+	c #22C422",
"Z+	c #60FB60",
"`+	c #C9FEC9",
" @	c #29D429",
".@	c #1C6E1C",
"+@	c #89C389",
"@@	c #82C882",
"#@	c #57D257",
"$@	c #7AE87A",
"%@	c #2CE62C",
"&@	c #DEFFDE",
"*@	c #42ED42",
"=@	c #1DA11D",
"-@	c #1C691C",
";@	c #3BA93B",
">@	c #28EF28",
",@	c #C4FFC4",
"'@	c #51F251",
")@	c #1C961C",
"!@	c #67AF67",
"~@	c #5FE95F",
"{@	c #E7FEE7",
"]@	c #5FCD5F",
"^@	c #50F550",
"/@	c #D1FFD1",
"(@	c #27DE27",
"_@	c #1C831C",
":@	c #1DA21D",
"<@	c #1ED31E",
"[@	c #95FE95",
"}@	c #9CFD9C",
"|@	c #1B531B",
"1@	c #56C156",
"2@	c #84F984",
"3@	c #C0FDC0",
"4@	c #52B452",
"5@	c #1BB21B",
"6@	c #86FC86",
"7@	c #1DCE1D",
"8@	c #1D601D",
"9@	c #2BE42B",
"0@	c #1C9C1C",
"a@	c #1BC01B",
"b@	c #49FA49",
"c@	c #37E237",
"d@	c #1E861E",
"e@	c #49D949",
"f@	c #71EF71",
"g@	c #20B920",
"h@	c #BBFEBB",
"i@	c #85FB85",
"j@	c #1BBE1B",
"k@	c #327932",
"l@	c #4FFE4F",
"m@	c #1CC31C",
"n@	c #29EB29",
"o@	c #BFFFBF",
"p@	c #63F863",
"q@	c #1AA51A",
"r@	c #418C41",
"s@	c #50AB50",
"t@	c #5BF45B",
"u@	c #D7FFD7",
"v@	c #49CC49",
"w@	c #26CA26",
"x@	c #DDFEDD",
"y@	c #65F465",
"z@	c #1CB01C",
"A@	c #299129",
"B@	c #6DFF6D",
"C@	c #27E427",
"D@	c #1CA01C",
"E@	c #1DDA1D",
"F@	c #89FE89",
"G@	c #AEFEAE",
"H@	c #24CC24",
"I@	c #246F24",
"J@	c #6AE06A",
"K@	c #70F470",
"L@	c #43D543",
"M@	c #B1FEB1",
"N@	c #9DF59D",
"O@	c #4BA44B",
"P@	c #31D831",
"Q@	c #EEFEEE",
"R@	c #1CA51C",
"S@	c #1D861D",
"T@	c #52EE52",
"U@	c #55FB55",
"V@	c #1ED11E",
"W@	c #1CBD1C",
"X@	c #4DFA4D",
"Y@	c #C8FFC8",
"Z@	c #39E939",
"`@	c #1C8D1C",
" #	c #4A5E4A",
".#	c #60B360",
"+#	c #72ED72",
"@#	c #6CEB6C",
"##	c #42B442",
"$#	c #4EF54E",
"%#	c #47D247",
"&#	c #77C377",
"*#	c #3BE03B",
"=#	c #F1FFF1",
"-#	c #3FEA3F",
";#	c #1D9D1D",
">#	c #1C561C",
",#	c #26BC26",
"'#	c #63FD63",
")#	c #33F233",
"!#	c #1BBF1B",
"~#	c #2FF42F",
"{#	c #C9FFC9",
"]#	c #69F669",
"^#	c #1DAD1D",
"/#	c #1C4B1C",
"(#	c #698969",
"_#	c #63C663",
":#	c #75F575",
"<#	c #6AE26A",
"[#	c #37DE37",
"}#	c #B0FFB0",
"|#	c #88F788",
"1#	c #44AE44",
"2#	c #96F496",
"3#	c #44E544",
"4#	c #EBFFEB",
"5#	c #38E738",
"6#	c #1D9A1D",
"7#	c #1C7B1C",
"8#	c #35D435",
"9#	c #43DC43",
"0#	c #20E520",
"a#	c #98FF98",
"b#	c #94FE94",
"c#	c #22CB22",
"d#	c #1C6A1C",
"e#	c #66A166",
"f#	c #6BDA6B",
"g#	c #70EB70",
"h#	c #34CF34",
"i#	c #6CFC6C",
"j#	c #3AC53A",
"k#	c #73BC73",
"l#	c #97F497",
"m#	c #1C891C",
"n#	c #47E647",
"o#	c #E4FFE4",
"p#	c #36E736",
"q#	c #1D9C1D",
"r#	c #1C971C",
"s#	c #1DE21D",
"t#	c #76FE76",
"u#	c #BCFEBC",
"v#	c #2FDE2F",
"w#	c #63AE63",
"x#	c #30C230",
"y#	c #3EFA3E",
"z#	c #D4FFD4",
"A#	c #51E751",
"B#	c #3E913E",
"C#	c #A2FBA2",
"D#	c #99F399",
"E#	c #1C851C",
"F#	c #40E040",
"G#	c #DFFFDF",
"H#	c #3BEB3B",
"I#	c #1DA41D",
"J#	c #1DD71D",
"K#	c #5CFD5C",
"L#	c #BBFFBB",
"M#	c #43EE43",
"N#	c #1C7A1C",
"O#	c #29CC29",
"P#	c #34FA34",
"Q#	c #C5FFC5",
"R#	c #74F274",
"S#	c #289E28",
"T#	c #78BC78",
"U#	c #A4F9A4",
"V#	c #94F094",
"W#	c #32D332",
"X#	c #D2FED2",
"Y#	c #4AF24A",
"Z#	c #1CB81C",
"`#	c #1DE31D",
" $	c #51FE51",
".$	c #B8FFB8",
"+$	c #56F356",
"@$	c #1CAE1C",
"#$	c #277127",
"$$	c #2EF32E",
"%$	c #1EDE1E",
"&$	c #1CCF1C",
"*$	c #1CD11C",
"=$	c #1CD61C",
"-$	c #1FEA1F",
";$	c #44FE44",
">$	c #20A820",
",$	c #59AE59",
"'$	c #7DEC7D",
")$	c #88E588",
"!$	c #24BB24",
"~$	c #A2FEA2",
"{$	c #6DFC6D",
"]$	c #20D820",
"^$	c #57FF57",
"/$	c #AAFFAA",
"($	c #1EB71E",
"_$	c #1D681D",
":$	c #30CC30",
"<$	c #4DFB4D",
"[$	c #45FE45",
"}$	c #33FC33",
"|$	c #2FFD2F",
"1$	c #3DFE3D",
"2$	c #6CFF6C",
"3$	c #91FE91",
"4$	c #49EA49",
"5$	c #448544",
"6$	c #7DEE7D",
"7$	c #85FD85",
"8$	c #B1FBB1",
"9$	c #81C781",
"0$	c #1D8B1D",
"a$	c #4EE84E",
"b$	c #88FF88",
"c$	c #42FA42",
"d$	c #87FF87",
"e$	c #46F046",
"f$	c #1FB51F",
"g$	c #1C621C",
"h$	c #1C341C",
"i$	c #1C721C",
"j$	c #22AC22",
"k$	c #2FD12F",
"l$	c #3DE93D",
"m$	c #47F347",
"n$	c #49F249",
"o$	c #3EE43E",
"p$	c #26BF26",
"q$	c #1C781C",
"r$	c #7A917A",
"s$	c #72B072",
"t$	c #76C876",
"u$	c #7BBC7B",
"v$	c #20A920",
"w$	c #43E343",
"x$	c #53F453",
"y$	c #4DEE4D",
"z$	c #2BD32B",
"A$	c #1C9F1C",
"B$	c #1C5C1C",
"C$	c #1C461C",
"D$	c #1D671D",
"E$	c #1C881C",
"F$	c #1C801C",
"G$	c #1C701C",
"H$	c #1C4C1C",
"I$	c #1C4E1C",
"J$	c #1D871D",
"K$	c #1E9B1E",
"L$	c #1D941D",
"M$	c #1D751D",
"N$	c #1D3A1D",
"                                                                ",
"      . + @ # $             % & * =                             ",
"      - ; > , ' )       ! ~ { ] ^ / ( _             : < [       ",
"    } | 1 2 3 4 5 6   7 8 9 0 a b c d e f         g h i j k     ",
"    l m n o p q r s t u v w x y z A B C D E     F G H I J K     ",
"    L M N O   P Q R S T U V           W X Y Z `  ...+.@.#.$.    ",
"    %.&.*.2     =.-.;.>.,.              '.).!.~.{.].  ^./.(.    ",
"    _.:.<.[.    }.|.1.2.3.              4.5.6.7.8.9.  0.a.b.    ",
"    c.d.m e.f.g.h.i.j.k.l.                m.h.n.o.    p.q.r.    ",
"      s.t.u.v.w.x.y.z.A.B.C.            D.E.F.G.H.    I.J.K.    ",
"      L.M.N.O.P.Q.R.S.T.U.V.W.        X.Y.Z.`. +.+    ++@+#+    ",
"      $+%+&+*+=+-+;+  >+,+'+)+        !+~+{+]+^+/+    (+_+:+    ",
"      <+[+}+|+1+X.2+    3+4+5+6+    7+8+9+0+a+b+c+d+  e+f+g+    ",
"        h+i+j+k+l+        m+n+o+  p+q+r+s+t+  u+v+w+x+y+z+A+    ",
"        B+C+D+E+F+        G+H+I+J+K+G L+M+      N+O+P+Q+R+      ",
"        y.S+T+U+V+          W+X+Y+Z+`+ @.@      +@@@#@_+$@      ",
"        %@&@*@=@-@            ;@>@,@'@)@          !@~@{@]@      ",
"        ^@/@(@_@:@            <@[@}@0+|@          1@2@3@4@      ",
"      5@6@ .7@8@9@0@        a@b@r+c@d@            e@=+f@        ",
"      g@h@i@j@k@l@m@        n@o@p@q@r@e+        s@t@u@v@        ",
"      w@x@y@z@A@B@C@D@    E@F@G@H@I@J@K@        L@M@N@O@        ",
"      P@Q@Q.R@S@T@U@V@  W@X@Y@Z@`@ #.#+#@#    ##$#j+%#&#        ",
"      *#=#-#;#>#,#'#)#!#~#{#]#^#/#  (#_#:#<#  [#}#|#1#2#        ",
"      3#4#5#6#  7#8#9#0#a#b#c#d#      e#f#g#h#i#x@j#k#l#        ",
"    m#n#o#p#q#    r#s#t#u#v#_@          w#x#y#z#A#B#C#D#        ",
"    E#F#G#H#I#    J#K#L#M#=@N#          O#P#Q#R#S#T#U#V#        ",
"      W#X#Y#Z#)@`# $.$+$@$#$$$%$&$*$=$-$;$7.K@>$,$'$S+)$        ",
"      !$~${$J#]$^$/$F ($_$:$<$[$}$|$1$2$3$4$=@5$6$7$8$9$        ",
"      0$a$b$c$8 d$e$f$g$h$i$j$k$l$m$n$o$p$q$  r$s$t$u$          ",
"        v$w$x$y$z$A$B$      C$D$7#E$F$G$H$                      ",
"        I$J$K$L$M$N$                                            ",
"                                                                "};
