/* XPM */
static const char *center_normalize_string[] = {
/* columns rows colors chars-per-pixel */
"28 27 2 1",
"  c Gray0",
". c White",
/* pixels */
"............................",
"........... ..... ..........",
"............ ... ...........",
"...                      ...",
"...  ......... .......   ...",
"... .  ....... ...... .. ...",
". . ...              ... . .",
"..  ... ...... ..... ...  ..",
"... ... ...... ..... ... ...",
"...  .. ...... ..... ..  ...",
"... .                  . ...",
"...  .. ...... ..... ..  ...",
"..  ... ...... ..... ... ...",
". . ... ...... ..... ...  ..",
"... ... ...... ..... ... . .",
"... ...              ... ...",
"... .  ....... ...... .. ...",
"...  ......... .......   ...",
"...                      ...",
"............ ... ...........",
"........... ..... ..........",
"........... ................",
". .. ..  ..  ....  ... .. . ",
" ..   . . . ..  . . . . .  .",
" .. ... . . ..... . . . . ..",
". .. .. . .. .... . .. .. ..",
"............................"
};
