/* XPM */
static const char *normalize_string[] = {
/* columns rows colors chars-per-pixel */
"55 30 2 1",
"X c Gray0",
". c White",
/* pixels */
".......................................................",
".......................................................",
"...............XXXXXXXXXXXXXXXXXXXXXX..................",
"...............XX.................XXX..................",
"...............X.XX..............X..X..................",
"...............X...XXXXXXXXXXXXXX...X..................",
"...............X...X............X...X..................",
"...............X...X............X...X..................",
"...............X...X............X...X..................",
"...............X...X............X...X..................",
"...............X...X............X...X..................",
"...............X...X............X...X..................",
"...............X...X............X...X..................",
"...............X...X............X...X..................",
"...............X...XXXXXXXXXXXXXX...X..................",
"...............X.XX..............X..X..................",
"...............XX.................XXX..................",
"...............XXXXXXXXXXXXXXXXXXXXXX..................",
".......................................................",
".......................................................",
"...................................X..X................",
"...................................X...................",
".X.XX....XXX...X.X.X.X..X....XXX...X..X..XXXX...XXX....",
".XX..X..X...X..XX..XX.XX.X..X...X..X..X.....X..X...X...",
".X...X..X...X..X...X..X..X......X..X..X....X...X...X...",
".X...X..X...X..X...X..X..X...XXXX..X..X...X....XXXXX...",
".X...X..X...X..X...X..X..X..X...X..X..X...X....X.......",
".X...X..X...X..X...X..X..X..X...X..X..X..X.....X...X...",
".X...X...XXX...X...X..X..X...XXX.X.X..X..XXXX...XXX....",
"......................................................."
};
