/* XPM */
static const char *rot_x1_string[] = {
/* columns rows colors chars-per-pixel */
"30 30 2 1",
"X c Gray0",
"  c White",
/* pixels */
"                              ",
"                              ",
"              X               ",
"            XX X              ",
"           X    X             ",
"          X      X            ",
"         X        X           ",
"        X         X           ",
"        X         X           ",
"        X          X          ",
"       X           X          ",
"       X         XXXXX  X     ",
"       X        X  X  X  X    ",
"       X           X      X   ",
"    X   X  X  XXXXXXXXXXXXXX  ",
"     X  X X         X     X   ",
"      XXXX          X    X    ",
"        X           X   X     ",
"        X           X         ",
"        X          X          ",
"         X         X          ",
"         X         X          ",
"         X        X           ",
"          X      X            ",
"           X    X             ",
"            X XX              ",
"             X                ",
"                              ",
"                              ",
"                              "
};
