/* XPM */
static const char *Contrast_xpm[] = {
/* columns rows colors chars-per-pixel */
"32 32 190 2",
"   c #000000",
".  c #010101",
"X  c #020202",
"o  c #030303",
"O  c #040404",
"+  c #050505",
"@  c #060606",
"#  c #070707",
"$  c #080808",
"%  c #090909",
"&  c #0A0A0A",
"*  c #0B0B0B",
"=  c #0C0C0C",
"-  c #0D0D0D",
";  c #0E0E0E",
":  c #0F0F0F",
">  c #111111",
",  c #121212",
"<  c #131313",
"1  c #141414",
"2  c #151515",
"3  c #161616",
"4  c #171717",
"5  c #191919",
"6  c #1A1A1A",
"7  c #1B1B1B",
"8  c #1C1C1C",
"9  c #1D1D1D",
"0  c #1E1E1E",
"q  c #1F1F1F",
"w  c #202020",
"e  c #212121",
"r  c #222222",
"t  c #232323",
"y  c #242424",
"u  c #252525",
"i  c #262626",
"p  c #272727",
"a  c #282828",
"s  c #292929",
"d  c #2A2A2A",
"f  c #2C2C2C",
"g  c #2D2D2D",
"h  c #2F2F2F",
"j  c #303030",
"k  c #313132",
"l  c #323232",
"z  c #333333",
"x  c #353535",
"c  c #363636",
"v  c #373737",
"b  c #383838",
"n  c #393939",
"m  c #3B3B3B",
"M  c #3C3C3C",
"N  c #3D3D3D",
"B  c #3E3E3E",
"V  c #3F3F3F",
"C  c #404040",
"Z  c #414141",
"A  c #424242",
"S  c #434343",
"D  c #444444",
"F  c #454545",
"G  c #464646",
"H  c #484848",
"J  c #494949",
"K  c #4A4A4A",
"L  c #4D4D4D",
"P  c #4E4E4E",
"I  c #535353",
"U  c #595959",
"Y  c #5A5A5A",
"T  c #5B5B5B",
"R  c #5C5C5C",
"E  c #5E5E5E",
"W  c #636363",
"Q  c #666666",
"!  c #676666",
"~  c #676767",
"^  c #6B6B6B",
"/  c #747474",
"(  c #767676",
")  c #818181",
"_  c #828282",
"`  c #848484",
"'  c #878787",
"]  c #898989",
"[  c #8A8A8A",
"{  c #8E8E8E",
"}  c #8F8F8F",
"|  c #939292",
" . c #939393",
".. c #999999",
"X. c #9A9A9A",
"o. c #A4A4A4",
"O. c #ABABAB",
"+. c #ACADAD",
"@. c #ADADAD",
"#. c #AEAEAE",
"$. c #B2B2B2",
"%. c #B3B3B3",
"&. c #B4B4B4",
"*. c #B8B8B8",
"=. c #BABABA",
"-. c #BFBFBF",
";. c #C0C0C0",
":. c #C1C1C1",
">. c #C8C8C8",
",. c #CCCCCC",
"<. c #CFCFD0",
"1. c #D1D1D1",
"2. c #D3D3D3",
"3. c #D4D4D4",
"4. c #D8D8D8",
"5. c #D8D9D8",
"6. c #D8D8D9",
"7. c #D9D8D9",
"8. c #D8D9D9",
"9. c #DADAD9",
"0. c #DBDBDB",
"q. c #DCDBDB",
"w. c #DCDDDD",
"e. c #DDDDDD",
"r. c #DEDDDD",
"t. c #DEDEDD",
"y. c #DDDDDE",
"u. c #DEDDDE",
"i. c #DDDEDE",
"p. c #DEDEDE",
"a. c #DFDFDF",
"s. c #E0E0E1",
"d. c #E1E1E1",
"f. c #E1E1E2",
"g. c #E2E2E2",
"h. c #E3E3E3",
"j. c #E4E3E3",
"k. c #E4E4E3",
"l. c #E3E3E4",
"z. c #E3E4E4",
"x. c #E4E4E4",
"c. c #E5E4E4",
"v. c #E5E5E5",
"b. c #E7E7E6",
"n. c #E6E7E7",
"m. c #E7E7E7",
"M. c #E7E7E8",
"N. c #E8E7E8",
"B. c #E8E8E8",
"V. c #E9E9E9",
"C. c #EAE9E9",
"Z. c #E9EAE9",
"A. c #EAEAE9",
"S. c #E9E9EA",
"D. c #EAE9EA",
"F. c #E9EAEA",
"G. c #EAEAEA",
"H. c #ECECEC",
"J. c #EDEDED",
"K. c #EEEFEE",
"L. c #EFEFEE",
"P. c #EEEFEF",
"I. c #EFEFEF",
"U. c #F0F0EF",
"Y. c #F0EFF0",
"T. c #EFF0F0",
"R. c #F0F0F0",
"E. c #F1F1F1",
"W. c #F3F3F3",
"Q. c #F3F3F4",
"!. c #F4F3F4",
"~. c #F3F4F4",
"^. c #F4F4F4",
"/. c #F5F5F4",
"(. c #F5F4F5",
"). c #F4F5F5",
"_. c #F5F5F5",
"`. c #F8F8F8",
"'. c #F8F9F8",
"]. c #F9F9F8",
"[. c #F8F8F9",
"{. c #F9F8F9",
"}. c #F9F9F9",
"|. c #FAFAF9",
" X c #FAF9FA",
".X c #FCFCFC",
"XX c #FCFDFC",
"oX c #FCFDFD",
"OX c #FFFFFF",
"+X c None",
/* pixels */
"+X+X+X+X+X+X+X+X+X+X+X+X              +X+X+X+X+X+X+X+X+X+X+X+X+X",
"+X+X+X+X+X+X+X+X+X  S ) +.,.a.{ ` / R V 0   +X+X+X+X+X+X+X+X+X+X",
"+X+X+X+X+X+X+X  T O.a.m.V.m.m.} } } { | ' T d   +X+X+X+X+X+X+X+X",
"+X+X+X+X+X+Xl X.a.m.m.m.m.m.m.{ } { { { } { ] L 3 +X+X+X+X+X+X+X",
"+X+X+X+X+XL *.m.m.m.m.m.m.m.m.} } } } } } } } } W t   +X+X+X+X+X",
"+X+X+X+XL :.m.m.m.m.m.m.m.m.m.} } } } } } } } } { ^ t   +X+X+X+X",
"+X+X+Xl *.m.m.m.m.m.m.m.m.m.m.} } } } } } } } } { | W 1 +X+X+X+X",
"+X+X  X.m.m.m.m.m.m.m.m.m.m.m.{ } } } } } } } } { { | L   +X+X+X",
"+X+XT a.m.m.m.m.m.m.m.m.m.m.m.{ } } } } } } } } { } } ' d   +X+X",
"+X  O.m.m.m.m.m.m.m.m.m.m.m.m.{ } } } } } } } } } } } } T   +X+X",
"+XS a.m.m.m.m.m.m.m.m.m.m.m.m.| } } } } } } } } } } } } ` 0   +X",
"+X) m.m.m.m.m.m.m.m.m.m.m.m.m.{ } } } } } } } } } } } } | V   +X",
"  o.m.m.m.m.m.m.m.m.M.M.m.m.m.{ } } } } } } } } } { | { { G   +X",
"  +.a.V.m.m.N.V.B.B.M.V.m.V.V.{ } } } } } } } } } { { { T 5   +X",
"  -.<.7.g.V.H.V.V.V.V.F.V.V.V.{ } } } } } } { | } } ^ x O     +X",
"  1.1.3.3.7.g.M.H.H.H.H.H.H.H.| } } } } } } } / I g O           ",
"  >.7.3.3.6.6.7.a.s.m.M.V.H.H.} ] ) / ~ I V y $                 ",
"  $.a.a.a.a.a.a.a.a.q.a.a.a.a.  O O O                         +X",
"  | g.m.z.l.m.l.g.g.m.g.m.j.m.O O O O O   O   O               +X",
"+X~ V.V.V.V.F.V.V.V.V.V.V.V.V.$ $ $ $ O O O O                 +X",
"+Xl s.H.H.U.Y.H.H.H.E.E.P.P.E.; ; ; $ $ $ O O     O           +X",
"+X  X._._.~.Q.!._.~._._._._.!.< > > : = = $ O O O             +X",
"+X+XH V._.|.|.[.[.|.[.|.|.|.|.5 5 3 1 > ; $ $ O O     O     +X+X",
"+X+XO ] XXXXXX.X.X.X.X.X.X|.OXt t 0 7 4 > ; = # O O   O     +X+X",
"+X+X+Xd $.OXOXOXOXOXOXOXOXOXOXg d a t 0 3 > ; $ O O       +X+X+X",
"+X+X+X+XV ;.OXOXOXOXOXOXOXOXOXl l g a t 7 3 > $ $ O O   +X+X+X+X",
"+X+X+X+X  S &.OXOXOXOXOXOXOXOXV m v j a t 4 > ; $ O O +X+X+X+X+X",
"+X+X+X+X+XO g | E.OXOXOXOXOXOXG S m x f y 7 1 ; $   +X+X+X+X+X+X",
"+X+X+X+X+X+X+X> R +._.OXOXOXOXH G V v j p 7 3 ; O +X+X+X+X+X+X+X",
"+X+X+X+X+X+X+X+X; 0 T { *.7.E.G G C n g p 3 $   +X+X+X+X+X+X+X+X",
"+X+X+X+X+X+X+X+X+X+X> 0 g n S G C x a 5 ;   +X+X+X+X+X+X+X+X+X+X",
"+X+X+X+X+X+X+X+X+X+X+X+X+X+X+X    +X+X+X+X+X+X+X+X+X+X+X+X+X+X+X"
};
