/* XPM */
static const char *Curve_xpm[] = {
/* columns rows colors chars-per-pixel */
"32 32 2 1",
"  c #0F2E87",
". c None",
/* pixels */
"...................             ",
".................   ............",
"................ ...............",
"............... ................",
".............. .................",
".............. .................",
"............. ..................",
"............. ..................",
"............. ..................",
"............. ..................",
"............. ..................",
"............. ..................",
".............. .................",
".............. .................",
"............... ................",
"............... ................",
"................ ...............",
"................ ...............",
"................. ..............",
"................. ..............",
".................. .............",
".................. .............",
".................. .............",
".................. .............",
".................. .............",
".................. .............",
"................. ..............",
"................. ..............",
"................ ...............",
"............... ................",
"............   .................",
"             ..................."
};
