/* XPM */
static const char *Info_xpm[] = {
/* columns rows colors chars-per-pixel */
"32 32 103 2",
"   c #000000",
".  c #061027",
"X  c #06122A",
"o  c #091533",
"O  c #0D2251",
"+  c #0F2558",
"@  c #112B63",
"#  c #122D6C",
"$  c #132F70",
"%  c #143276",
"&  c #183777",
"*  c #15347B",
"=  c #163780",
"-  c #173A84",
";  c #193D8C",
":  c #193E91",
">  c #1A4295",
",  c #1C479E",
"<  c #204798",
"1  c #20489B",
"2  c #1D47A1",
"3  c #1E49A2",
"4  c #224EAC",
"5  c #2652A7",
"6  c #2150AF",
"7  c #2350B2",
"8  c #2A59B2",
"9  c #2556BA",
"0  c #275AC3",
"q  c #2A5DC7",
"w  c #2A5FCC",
"e  c #2D61C6",
"r  c #2C61CB",
"t  c #2E65D5",
"y  c #2F69D7",
"u  c #3067D7",
"i  c #3B6CD2",
"p  c #336CDC",
"a  c #3770D6",
"s  c #3670DD",
"d  c #3C74DA",
"f  c #336FE3",
"g  c #3572E5",
"h  c #3A76E4",
"j  c #3C7AE5",
"k  c #3976E9",
"l  c #3D7BEB",
"z  c #4270D2",
"x  c #4679DA",
"c  c #4A7BDA",
"v  c #417CE3",
"b  c #5682DA",
"n  c #5B84DA",
"m  c #4E86E5",
"M  c #4281EE",
"N  c #598FE6",
"B  c #5E92E7",
"V  c #4485F1",
"C  c #4987F1",
"Z  c #4788F3",
"A  c #4B8CF4",
"S  c #518FF3",
"D  c #4F91F6",
"F  c #5293F6",
"G  c #5897F6",
"H  c #5798F7",
"J  c #5A9AF7",
"K  c #5496F8",
"L  c #5798F9",
"P  c #5D9CF8",
"I  c #6394E6",
"U  c #629FF8",
"Y  c #5FA1FB",
"T  c #64A3FA",
"R  c #69A6FA",
"E  c #6DAAFB",
"W  c #72ADFB",
"Q  c #76B1FC",
"!  c #7CB4FC",
"~  c #7EB8FC",
"^  c #83A6E7",
"/  c #85A8E8",
"(  c #94B0E8",
")  c #81B6FC",
"_  c #84BAFC",
"`  c #8BBDFD",
"'  c #93BAF8",
"]  c #8EC0FD",
"[  c #91C3FD",
"{  c #9FC2F9",
"}  c #A2C5FA",
"|  c #A5C8FB",
" . c #AACCFC",
".. c #B5CFFA",
"X. c #B7D1FB",
"o. c #BED7FC",
"O. c #C0DAFD",
"+. c #C9DFFD",
"@. c #CDE3FE",
"#. c #D5E5FD",
"$. c #DCEBFE",
"%. c #FFFFFF",
"&. c None",
/* pixels */
"&.&.&.&.&.&.&.&.&.&.&.&.h h k l k h s &.&.&.&.&.&.&.&.&.&.&.&.&.",
"&.&.&.&.&.&.&.&.&.h M H T Q ~ _ _ Q R H Z a &.&.&.&.&.&.&.&.&.&.",
"&.&.&.&.&.&.&.h A T ! ~ ! _ _ ` _ _ ~ ~ ! R D a &.&.&.&.&.&.&.&.",
"&.&.&.&.&.&.j P Q ) _ ` ` ` ` ` ` ` ] _ _ ~ ! T j 8 &.&.&.&.&.&.",
"&.&.&.&.&.M R _ ) ] ] ` ` ` I c I ` ` ` ` ` ) ) E Z 8 &.&.&.&.&.",
"&.&.&.&.M R _ _ ` ` ` ` ` c ( %.$.` _ _ _ _ ` ` ~ E V 5 &.&.&.&.",
"&.&.&.h T _ ` ] ` ` _ _ B / %.%.%.@._ ) _ _ _ _ _ _ R d &.&.&.&.",
"&.&.g L _ ` ] ` ` ` _ ) x $.%.%.%.$.! ! ! ! ~ ) ) _ ~ P e &.&.&.",
"&.&.V Q ` ] ` ` _ ) ) ! B o.%.%.%.+.Q Q ! ! ! ! ~ ) ) W M < &.&.",
"&.p Y _ [ ] ` _ _ ) ! Q Q ! $.%.#.! W W W W W Q ! ! ) ! J e &.&.",
"&.j ! ` ] ` _ _ ! ! Q W W E E E E E W E E E W W W ! ! ! W j & &.",
"&.A _ [ ` ` _ ! ! W W W R R T d d b U R R R W W W Q Q ) ! C 1 &.",
"t P _ ] ] _ _ ! Q W W m d d b  .#.o.U T T R R R E W W ! Q L 9 &.",
"t E ] ] ` ` ) ! W W m ^ %.%.%.%.%.o.P J P T T R R E W ! Q T r &.",
"u ! _ [ ` _ ! Q W E R T P  .%.%.%.| G G P P U U R E W Q K T u &.",
"t _ Y _ ` _ ! W W R T P P I %.%.%.| G G J I U U R E R F g T u   ",
"t ~ C H W ! ~ Q E R R P J x %.%.%.} F G L J P T T P V g f T t   ",
"r E D Z D J E E E R T P J i %.%.%.} D F L L J H C j g g k L q &.",
"0 L L A C A D H J Y P J H i %.%.%.' A S D D Z l k g g g v A 4 &.",
"&.V E A A A A A A D D F F i %.%.%.' A C V M l l k k k g D V ; &.",
"&.g Q D A D A A D A D A A i %.%.%.' Z V M M l l k k k k K f @ &.",
"&.9 J T A F D D D A D F A i %.%.%.' Z Z V M M l l l k V D 9 o &.",
"&.&.j E K D D D D F F F F i %.%.%.{ C Z V M l l l k l F g % &.&.",
"&.&.9 L W D F F F F D F F i %.%.%.{ A V V M M l l l F A 4 o &.&.",
"&.&.&.r R R F F F F F v p z %.%.%.X.Z Z V V l l l Z F q + &.&.&.",
"&.&.&.: s T T F F F F n %.%.%.%.%.%.%...V V v l A F u $ &.&.&.&.",
"&.&.&.&.> g T Q L F F F F F D D A Z Z Z V l l K F u * X &.&.&.&.",
"&.&.&.&.&.; r L W T L F F D A D A Z Z l V A L A w # . &.&.&.&.&.",
"&.&.&.&.&.&.&.7 l P W R Y L D Z A A D L P A p 2 O &.&.&.&.&.&.&.",
"&.&.&.&.&.&.&.&.= 7 s C L T E Q E P A l t 2 # X &.&.&.&.&.&.&.&.",
"&.&.&.&.&.&.&.&.&.&.@ - 3 9 q 0 9 7 > % O X &.&.&.&.&.&.&.&.&.&.",
"&.&.&.&.&.&.&.&.&.&.&.&.&.&.&.    &.&.&.&.&.&.&.&.&.&.&.&.&.&.&."
};
