/* XPM */
static const char *Layers_xpm[] = {
/* columns rows colors chars-per-pixel */
"32 32 223 2",
"   c #020612",
".  c #020816",
"X  c #081A4C",
"o  c #091B50",
"O  c #0D2977",
"+  c #0E2979",
"@  c #0F2D84",
"#  c #0F2E86",
"$  c #0F2E87",
"%  c #0F2F88",
"&  c #102F88",
"*  c #113088",
"=  c #113089",
"-  c #123089",
";  c #123189",
":  c #13328A",
">  c #14338B",
",  c #15348B",
"<  c #153591",
"1  c #153693",
"2  c #1B3990",
"3  c #1E3C91",
"4  c #193A9B",
"5  c #193C9F",
"6  c #1B3DA0",
"7  c #1A3EA2",
"8  c #234095",
"9  c #284798",
"0  c #1D44A0",
"q  c #1F48A6",
"w  c #1D41A8",
"e  c #234DAA",
"r  c #2551AF",
"t  c #234AB9",
"y  c #264DBB",
"u  c #254DBD",
"i  c #264DBD",
"p  c #264EBD",
"a  c #274EBE",
"s  c #274FBE",
"d  c #274FBF",
"f  c #2856B5",
"g  c #2A57B6",
"h  c #2950BF",
"j  c #2B52BF",
"k  c #516FB5",
"l  c #526CB7",
"z  c #2B51C0",
"x  c #2B52C0",
"c  c #2D53C1",
"v  c #2D54C1",
"b  c #2F55C2",
"n  c #2F56C2",
"m  c #3055C2",
"M  c #3157C3",
"N  c #3257C3",
"B  c #3158C3",
"V  c #3459C4",
"C  c #365BC5",
"Z  c #365BC6",
"A  c #365CC5",
"S  c #395DC7",
"D  c #385EC7",
"F  c #395EC7",
"G  c #3B5FC8",
"H  c #3B60C8",
"J  c #3E61C9",
"K  c #3D62C9",
"L  c #3E62C9",
"P  c #3D62CA",
"I  c #3B76DC",
"U  c #3F7CE3",
"Y  c #3F7DE3",
"T  c #4064CA",
"R  c #4064CB",
"E  c #4366CB",
"W  c #4266CC",
"Q  c #4366CC",
"!  c #4568CD",
"~  c #476ACE",
"^  c #496BCF",
"/  c #496CCF",
"(  c #496CD0",
")  c #4B6ED0",
"_  c #4C6DD0",
"`  c #4C6ED0",
"'  c #4D6FD1",
"]  c #407BDE",
"[  c #5072D1",
"{  c #5274D2",
"}  c #5576D3",
"|  c #5676D3",
" . c #5978D4",
".. c #617AC3",
"X. c #647FC0",
"o. c #417DE3",
"O. c #417FE3",
"+. c #437FE3",
"@. c #7893CF",
"#. c #6783D7",
"$. c #6684D9",
"%. c #6B87D8",
"&. c #728DDB",
"*. c #7892DC",
"=. c #7D96DE",
"-. c #4380E3",
";. c #4380E4",
":. c #4682E4",
">. c #4983E4",
",. c #4984E4",
"<. c #4D86E5",
"1. c #4D87E5",
"2. c #5088E5",
"3. c #5288E5",
"4. c #508AE5",
"5. c #538BE6",
"6. c #558BE6",
"7. c #538CE6",
"8. c #588EE6",
"9. c #5B90E7",
"0. c #5B92E7",
"q. c #5E94E8",
"w. c #6093E8",
"e. c #6094E8",
"r. c #6395E8",
"t. c #6396E8",
"y. c #6798E9",
"u. c #6699E9",
"i. c #6799E9",
"p. c #6A9AE9",
"a. c #6B9BE9",
"s. c #6B9BEA",
"d. c #6E9DEA",
"f. c #6E9EEA",
"g. c #6F9EEA",
"h. c #709EEA",
"j. c #719EEA",
"k. c #72A0EB",
"l. c #75A2EB",
"z. c #78A4EC",
"x. c #7BA6EC",
"c. c #7BA7EC",
"v. c #7DA8ED",
"b. c #7FA9EC",
"n. c #8399D9",
"m. c #849CDF",
"M. c #869CE0",
"N. c #879EE0",
"B. c #889EE0",
"V. c #89A0E1",
"C. c #8BA1E1",
"Z. c #8BA2E2",
"A. c #8CA2E1",
"S. c #8EA2E0",
"D. c #8CA3E2",
"F. c #8DA3E2",
"G. c #8EA4E2",
"H. c #80A9ED",
"J. c #82ABED",
"K. c #83ACED",
"L. c #84ACED",
"P. c #85ACED",
"I. c #87AEEE",
"U. c #90A4E3",
"Y. c #90A5E3",
"T. c #90A6E3",
"R. c #91A7E3",
"E. c #92A7E3",
"W. c #91ACE0",
"Q. c #93A8E4",
"!. c #89B0EE",
"~. c #8BB0EE",
"^. c #8BB1EE",
"/. c #8EB3EF",
"(. c #8EB4EF",
"). c #90B4EF",
"_. c #92B6EF",
"`. c #94B7EF",
"'. c #9FB8E8",
"]. c #94B7F0",
"[. c #95B8F0",
"{. c #98B9F0",
"}. c #99BAF0",
"|. c #99BAF1",
" X c #9ABBF1",
".X c #9ABCF0",
"XX c #9BBCF1",
"oX c #9CBCF1",
"OX c #9DBDF1",
"+X c #9EBDF1",
"@X c #9EBEF1",
"#X c #A0BEF2",
"$X c #A1BFF2",
"%X c #ABC4EF",
"&X c #A1C0F2",
"*X c #A2C0F2",
"=X c #A3C0F2",
"-X c #A2C1F2",
";X c #A4C1F2",
":X c #A5C2F2",
">X c #A5C3F2",
",X c #A7C3F2",
"<X c #A6C4F2",
"1X c #A6C4F3",
"2X c #A7C4F3",
"3X c #A8C5F3",
"4X c #A9C5F3",
"5X c #AAC5F3",
"6X c #A9C6F3",
"7X c #ABC6F3",
"8X c #ABC7F3",
"9X c #ACC7F3",
"0X c #ACC8F3",
"qX c #ADC8F3",
"wX c #AEC8F3",
"eX c #AEC9F3",
"rX c #AFC9F3",
"tX c #B0C9F3",
"yX c #B0CAF4",
"uX c #B1CAF4",
"iX c #B1CBF4",
"pX c #B2CBF4",
"aX c None",
/* pixels */
"aXaXaXaXaXaXaXaXaXaXaXaXaXaXaXaXaXaXaXaXaXaXaXaXaXaXaXaXaXaXaXaX",
"aXaXaXaXaXaXaXaXaXaXaXaXaXaXaXaXaXaXaXaXaXaXaXaXaXaXaXaXaXaXaXaX",
"aXaXaXaXaXaXaXaXaXaXaXaXaXaXaXaXaXaXaXaXaXaXaXaXaXaXaXaXaXaXaXaX",
"aXaXaXaXaXaXaXaXaXaXaXaXaXaXaXaXaXaXaXaXaXaXaXaXaXaXaXaXaXaXaXaX",
"aXaXaXaXaXaXaXaXaXaXaXaXaXaXaXaXaXaXaXaXaXaXaXaXaXaXaXaXaXaXaXaX",
"aXaXaXaXaXaXaXaXaXaXaXaXaXaXaXaXaXaXaXaXaXaXaXaXaXaXaXaXaXaXaXaX",
"aXaXaXaXaXaXaXaXaXaXaXaXaXaXaXaXaXaXaXaXaXaXaXaXaXaXaXaXaXaXaXaX",
"aXaXaXaXaXaXaXaXaXaXaXaXaXaXaXaXaXaXaXaXaXaXaXaXaXaXaXaXaXaXaXaX",
"aXaXaXaXaXaXaXaX$ $ $ $ $ $ $ $ $ $ # # $ % $ : $ $ $ $ $ $ $ $ ",
"aXaXaXaXaXaXaX: W.8X,X$X$XoX[._.~.L.x.q.8.2.2.,.,.:.+.U U +.f % ",
"aXaXaXaXaXaX: k 8X8X<X*XoX{.]._.~.v.s.9.8.7.2.1.,.:.+.+.U f % aX",
"aXaXaXaXaXaX3 eX9X<X,X*XoX{._./.J.f.e.9.8.6.2.1.>.:.;.+.I $ aXaX",
"aXaXaXaXaX: '.rX8X8X*X$XoX{._.L.h.t.e.9.6.6.2.2.>.:.+.+.q % aXaX",
"aXaXaXaX: X.pXrX6X,X,X$XXX].J.h.i.e.q.9.9.6.2.2.>.:.+.r % aXaXaX",
"aXaXaXaX9 pXpXrX6X1X,XoX^.x.f.s.s.t.e.9.8.2.2.<.,.:.] $ aXaXaXaX",
"aXaXaX, %XtXrX8X6XXX/.v.l.k.f.s.i.t.e.9.8.7.2.<.,.:.0 % $ $ $ aX",
"aXaX: @.8X*X{.).L.v.c.z.l.k.f.s.i.e.9.9.6.6.7.2.:.e & u s 6 @ aX",
"aXaX$ $ $ & # % * $ $ $ $ $ & & $ $ # * $ $ % $ $ $ 7 u 7 % aXaX",
"aXaXaXaXaX2 G.G.V.m.| ^ ! E Q H G F A V B b b z j s s t $ o aXaX",
"aXaXaXaX: n.G.G.B.#.( ! ! Q L E H F C V b b v z s s s < + aXaXaX",
"aXaXaX: k E.G.V.*.` ^ ! ! Q L P G F C C m b z z j s 5 $ . aXaXaX",
"aXaXaX8 Q.Y.G.M.{ ` / ^ ! Q L H F F C V m b b j d y $ X aXaXaXaX",
"aXaX> G.R.Y.D.%.| { ( ^ ! Q Q H H F C V B m b z d < O aXaXaXaXaX",
"aX: ..m.=.&.$. .` ` ( ! ! E Q H H F C C N m c z 4 #   aXaXaXaXaX",
"aX# # & $ $ $ $ $ $ $ $ $ $ $ $ $ $ $ $ & # & # # X aXaXaXaXaXaX",
"aXaXaXaXaXaXaXaXaXaXaXaXaXaXaXaXaXaXaXaXaXaXaXaXaXaXaXaXaXaXaXaX",
"aXaXaXaXaXaXaXaXaXaXaXaXaXaXaXaXaXaXaXaXaXaXaXaXaXaXaXaXaXaXaXaX",
"aXaXaXaXaXaXaXaXaXaXaXaXaXaXaXaXaXaXaXaXaXaXaXaXaXaXaXaXaXaXaXaX",
"aXaXaXaXaXaXaXaXaXaXaXaXaXaXaXaXaXaXaXaXaXaXaXaXaXaXaXaXaXaXaXaX",
"aXaXaXaXaXaXaXaXaXaXaXaXaXaXaXaXaXaXaXaXaXaXaXaXaXaXaXaXaXaXaXaX",
"aXaXaXaXaXaXaXaXaXaXaXaXaXaXaXaXaXaXaXaXaXaXaXaXaXaXaXaXaXaXaXaX",
"aXaXaXaXaXaXaXaXaXaXaXaXaXaXaXaXaXaXaXaXaXaXaXaXaXaXaXaXaXaXaXaX"
};
