/* XPM */
static const char *Selection_xpm[] = {
/* columns rows colors chars-per-pixel */
"32 32 2 1",
"  c #00247E",
". c None",
/* pixels */
"................................",
"................................",
"................................",
"   ..   ..   ..   ..   ..   ..  ",
"............................... ",
"................................",
" ...............................",
" .............................. ",
" .............................. ",
"............................... ",
"................................",
" ...............................",
" .............................. ",
" .............................. ",
"............................... ",
"................................",
" ...............................",
" .............................. ",
" .............................. ",
"............................... ",
"................................",
" ...............................",
" .............................. ",
" .............................. ",
"............................... ",
"................................",
" ...............................",
"  ..   ..   ..   ..   ..   ..   ",
"................................",
"................................",
"................................",
"................................"
};
