/* XPM */
static const char *Sharpness_xpm[] = {
/* columns rows colors chars-per-pixel */
"32 32 82 1",
"  c #6C7B84",
". c #0997DF",
"X c #0C98DF",
"o c #149BDF",
"O c #229FDF",
"+ c #2DA2DE",
"@ c #35A2D9",
"# c #38A6DF",
"$ c #0E9AE0",
"% c #149CE0",
"& c #1A9EE1",
"* c #1EA1E2",
"= c #23A2E3",
"- c #2DA6E3",
"; c #2FA8E5",
": c #34A9E5",
"> c #3DADE6",
", c #4EA8D7",
"< c #44A7DA",
"1 c #4AACDF",
"2 c #59A9D4",
"3 c #63ACD4",
"4 c #69ADD2",
"5 c #6DB1D4",
"6 c #63B3DD",
"7 c #6EB6DD",
"8 c #6FB8DF",
"9 c #42AEE3",
"0 c #44B1E7",
"q c #4CB1E4",
"w c #46B1E9",
"e c #4CB4E9",
"r c #53B2E3",
"t c #5BB5E4",
"y c #52B7E9",
"u c #56B8EA",
"i c #5CBBEB",
"p c #67B6E1",
"a c #68B7E3",
"s c #67B9E4",
"d c #6CBAE4",
"f c #63BCEA",
"g c #6DBDE8",
"h c #73BCE3",
"j c #6CC2ED",
"k c #77C0E7",
"l c #7CC1E6",
"z c #74C4ED",
"x c #7AC5EC",
"c c #76C6F0",
"v c #7EC9F0",
"b c #85A1B0",
"n c #80C4E9",
"m c #83CBEF",
"M c #96CFED",
"N c #83CCF1",
"B c #89CEF1",
"V c #8DD0F2",
"C c #94D2F2",
"Z c #9CD5F5",
"A c #A0D7F4",
"S c #A8D7F0",
"D c #A3D9F4",
"F c #ABDCF4",
"G c #B1DEF5",
"H c #B9DFF3",
"J c #B3E0F7",
"K c #BAE2F6",
"L c #B7E2F8",
"P c #BCE3F8",
"I c #C1E4F6",
"U c #C3E6F8",
"Y c #C7E8F9",
"T c #CDEAFA",
"R c #D3EDFB",
"E c #DBEFFA",
"W c #DCF1FC",
"Q c #E5F4FD",
"! c #EAF7FD",
"~ c #EDF8FE",
"^ c #F2FAFE",
"/ c None",
/* pixels */
"////////////////////////////////",
"////////////////////////////////",
"/////////////:$/////////////////",
"/////////////z$/////////////////",
"////////////iB=$////////////////",
"////////////UjN$u///////////////",
"///////////jWZR%*///////////////",
"//////////vWFT^=>;//////////////",
"//////////BEV~^u%>//////////////",
"/////////i!TN~!C%C*/////////////",
"/////////F!IZ!~P:>fj////////////",
"////////i~YDYQ!Ww%T&////////////",
"////////I^GmQQQWu=VV0///////////",
"///////j^TJzQWWWvw;R-///////////",
"//////fR~ZJVWRWRZe$RJ=//////////",
"//////N^QmVKRRTFZ>;cRy//////////",
"/////eW~FAcREHAZZ0j=TT%/////////",
"/////C~!NLjEGZZZZuj$TRvy////////",
"////eQ!EcANGZZZZZce>gRR=////////",
"///zF!~CCcCZZZZZZZ>NoTRA;///////",
"///u!Q!iLeZZZZZZZZ0Z%KRTe///////",
"//eY!Wc%*$=*OO====$%%*YRR://////",
"//vQC=<3@Oadhhhhghe&sk-zEC6/////",
"/>D:<444&188hhhhkkkXlllfjKy/////",
"Be#34444X788hhhhhkk%tllMGMmq////",
"v+34444,o788h8hhkhk=:lnFHIZr////",
"//><444+O78888hhhklronMHFsb/////",
"////+24o178hhhhhhklhXnSx5///////",
"/////r@X666aaaadggggofr ////////",
"//////xoo%%%o%%%%%%o%9//////////",
"////////////////////////////////",
"////////////////////////////////"
};
