/* XPM */
static const char *Transparent_background_xpm[] = {
/* columns rows colors chars-per-pixel */
"32 32 183 2",
"   c #004D00",
".  c #004E00",
"X  c #005000",
"o  c #005500",
"O  c #005900",
"+  c #007E00",
"@  c #087A08",
"#  c #106C10",
"$  c #146F14",
"%  c #176F17",
"&  c #1E751E",
"*  c #207620",
"=  c #217721",
"-  c #257625",
";  c #227822",
":  c #257925",
">  c #257A25",
",  c #277B27",
"<  c #297C29",
"1  c #2A7C2A",
"2  c #2C7E2C",
"3  c #2E7F2E",
"4  c #2F7F2F",
"5  c #00237C",
"6  c #00247D",
"7  c #00247E",
"8  c #008400",
"9  c #008700",
"0  c #008900",
"q  c #008A00",
"w  c #008B00",
"e  c #008D00",
"r  c #008E00",
"t  c #008F00",
"y  c #0E870E",
"u  c #009100",
"i  c #009200",
"p  c #009300",
"a  c #009400",
"s  c #009500",
"d  c #009700",
"f  c #009900",
"g  c #009A00",
"h  c #009D00",
"j  c #009E00",
"k  c #009F00",
"l  c #0D9F0D",
"z  c #118911",
"x  c #138A13",
"c  c #00A000",
"v  c #00A100",
"b  c #00A200",
"n  c #00A300",
"m  c #00A400",
"M  c #00A500",
"N  c #00A600",
"B  c #00A700",
"V  c #07A707",
"C  c #00A800",
"Z  c #00A900",
"A  c #00AA00",
"S  c #00AB00",
"D  c #00AC00",
"F  c #00AD00",
"G  c #00AE00",
"H  c #00AF00",
"J  c #00B000",
"K  c #00B100",
"L  c #00B200",
"P  c #01B201",
"I  c #09B509",
"U  c #0AB40A",
"Y  c #14A214",
"T  c #1AA81A",
"R  c #1EB21E",
"E  c #18B918",
"W  c #19B819",
"Q  c #1ABA1A",
"!  c #1CBA1C",
"~  c #318031",
"^  c #338233",
"/  c #369236",
"(  c #379337",
")  c #399439",
"_  c #3A943A",
"`  c #21AB21",
"'  c #22A922",
"]  c #25AB25",
"[  c #2AAF2A",
"{  c #20B220",
"}  c #24B424",
"|  c #2AB72A",
" . c #2CB82C",
".. c #2CBF2C",
"X. c #32B132",
"o. c #33B433",
"O. c #37B437",
"+. c #31B831",
"@. c #32B932",
"#. c #32BB32",
"$. c #3EB63E",
"%. c #3CBE3C",
"&. c #729633",
"*. c #7E9D39",
"=. c #39C339",
"-. c #44C744",
";. c #47C747",
":. c #4FCA4F",
">. c #55CC55",
",. c #60CF60",
"<. c #66D166",
"1. c #6DD36D",
"2. c #6ED36E",
"3. c #6CDB6C",
"4. c #6DDB6D",
"5. c #6EDC6E",
"6. c #71D471",
"7. c #72D472",
"8. c #73D573",
"9. c #74D574",
"0. c #76D676",
"q. c #77D677",
"w. c #78D678",
"e. c #79D779",
"r. c #7AD77A",
"t. c #7BD77B",
"y. c #7CD77C",
"u. c #7DD87D",
"i. c #7ED87E",
"p. c #7FD87F",
"a. c #7FD97F",
"s. c #819F3C",
"d. c #FFD200",
"f. c #FFD40D",
"g. c #FFD616",
"h. c #FFD927",
"j. c #87A341",
"k. c #8DA645",
"l. c #FFDD40",
"z. c #FFE155",
"x. c #FFE35F",
"c. c #FFE360",
"v. c #FFE362",
"b. c #FFE466",
"n. c #FFE56A",
"m. c #FFE56D",
"M. c #FFE671",
"N. c #FFE673",
"B. c #FFE674",
"V. c #FFE777",
"C. c #FFE87A",
"Z. c #FFE87C",
"A. c #FFE87F",
"S. c #80D980",
"D. c #81D981",
"F. c #82D982",
"G. c #83DA83",
"H. c #84DA84",
"J. c #85DA85",
"K. c #86DA86",
"L. c #87DB87",
"P. c #88DB88",
"I. c #89DB89",
"U. c #8ADC8A",
"Y. c #8BDC8B",
"T. c #8CDC8C",
"R. c #8DDD8D",
"E. c #8EDD8E",
"W. c #90DD90",
"Q. c #90DE90",
"!. c #91DE91",
"~. c #92DE92",
"^. c #93DE93",
"/. c #93DF93",
"(. c #95DF95",
"). c #96DF96",
"_. c #99E099",
"`. c #9CE19C",
"'. c #A2E3A2",
"]. c #FFE981",
"[. c #FFE983",
"{. c #FFE985",
"}. c None",
/* pixels */
"7 7 7 x.x.7 7 7 x.x.7 7 7 x.x.7 7 7 }.}.7 7 7 }.}.7 7 7 }.}.7 7 ",
"v.v.v.v.v.v.v.v.v.v.v.v.v.v.v.7 }.}.}.}.}.}.}.}.}.}.}.}.}.}.}.7 ",
"b.b.b.b.b.b.b.b.b.b.b.b.b.b.b.7 }.}.}.}.}.}.}.}.}.}.}.}.}.}.}.}.",
"7 n.n.n.n.n.n.n.n.n.n.n.n.n.n.7 }.}.}.}.}.}.}.}.}.}.}.}.}.}.}.}.",
"7 m.m.m.m.m.m.m.m.m.m.m.m.m.m.7 }.}.}.}.}.}.}.}.}.}.}.}.}.}.}.7 ",
"7 M.M.M.M.M.M.M.M.&.% & * = ; : : : 1 1 1 ~ ~ ~ ~ - o }.}.}.}.7 ",
"B.B.B.B.B.B.B.B.*._ a.J.U.!.).`.'._.U.e.e.e.e.e.e.% o }.}.}.}.7 ",
"B.C.B.C.B.C.B.s._ u.D.I.R./.).G.2.>.:.:.:.:.>.e.# @ o }.}.}.}.}.",
"7 C.C.C.C.C.j.( t.a.J.U.!.y.<.:.:.:.:.:.:.:.t.# y T o }.}.}.}.}.",
"7 A.C.A.A.k./ 9.u.D.L.L.I.r.t.r.r.r.r.r.t.t.# z } ` o }.}.}.}.7 ",
"7 A.A.A.A.o o o o o o o o o o o o o o o X o x |  .] o }.}.}.}.7 ",
"].].].].].o 5.5.5.5.5.5.5.5.5.5.5.5.5.5.5.o | #.+.Y o }.}.}.}.7 ",
"].[.[.B.l.o 5.2.7.8.9.r.r.y.p.a.D.J.J.I.5.o o.%.{ d o }.}.}.}.}.",
"7 [.v.h.d.o 5.9.9.w.t.u.a.D.G.J.I.I.I.T.5.o O.+.V d o }.}.}.}.}.",
"7 z.g.d.d.o 5.e.t.u.a.D.G.J.L.I.T.I.R.!.5.o $.R n i o }.}.}.}.7 ",
"7 f.d.d.d.o 5.u.a.G.G.J.I.I.Y.R.R.!.!.).5.o X.N n r o }.}.}.}.7 ",
"f.d.d.d.d.o 5.D.J.J.U.u.>.-...E U P U W 5.o ' N k r o }.}.}.}.7 ",
"d.d.d.d.d.o 5.J.U.7.;.! P P P P P P D D 5.o l N k 0 o }.}.}.}.}.",
"7 d.d.d.d.o 5.J.:.Q P P P P P P P P D Z 5.o d n f 0 o }.}.}.}.}.",
"7 d.d.d.d.o 5.=.P P P P P P P P P D Z N 5.o f n d 0 o }.}.}.}.7 ",
"7 d.d.d.d.o 5.P P P P P L L L P D Z N n 5.X i k i r o }.}.}.}.7 ",
"d.d.d.d.d.o 5.P P P P P L L P P D Z n k 5.o i f i 8 o }.}.}.}.5 ",
"d.d.d.d.d.o 5.P P P P P P D D Z Z n k k 5.o r d 8 O . }.}.}.}.}.",
"7 d.d.d.d.o 5.P P P P D D Z N N n n n k 5.o r 0 O . }.}.}.}.}.}.",
"7 d.d.d.d.o 5.P P D D Z N n n n n n n n 5.o + O . }.}.}.}.}.}.7 ",
"7 d.d.d.d.o 5.5.5.5.5.5.5.5.5.5.5.5.5.5.3.o o . }.}.}.}.}.}.}.7 ",
"d.d.d.d.d.o o o o o o o o o o o X o o o o o X }.}.}.}.}.}.}.}.7 ",
"d.d.d.d.d.d.d.d.d.d.d.d.d.d.d.7 }.}.}.}.}.}.}.}.}.}.}.}.}.}.}.}.",
"7 d.d.d.d.d.d.d.d.d.d.d.d.d.d.7 }.}.}.}.}.}.}.}.}.}.}.}.}.}.}.}.",
"7 d.d.d.d.d.d.d.d.d.d.d.d.d.d.7 }.}.}.}.}.}.}.}.}.}.}.}.}.}.}.7 ",
"7 d.d.d.d.d.d.d.d.d.d.d.d.d.d.7 }.}.}.}.}.}.}.}.}.}.}.}.}.}.}.7 ",
"d.7 7 7 d.d.7 7 7 d.d.7 7 7 d.d.7 7 7 }.}.7 7 7 }.}.7 7 7 }.}.7 "
};
