/* XPM */
static const char *Units_xpm[] = {
/* columns rows colors chars-per-pixel */
"32 32 252 2",
"   c #072F02",
".  c #073402",
"X  c #073802",
"o  c #083C02",
"O  c #084002",
"+  c #084302",
"@  c #084702",
"#  c #084802",
"$  c #084803",
"%  c #0A4B02",
"&  c #0A4B03",
"*  c #0A4D02",
"=  c #0A5002",
"-  c #0A5402",
";  c #0A5702",
":  c #0A5902",
">  c #0A5903",
",  c #0B5F02",
"<  c #0B5F03",
"1  c #0B5D08",
"2  c #0B6002",
"3  c #0B6003",
"4  c #0B6302",
"5  c #0D6A02",
"6  c #0D6C02",
"7  c #0D6E02",
"8  c #0B6508",
"9  c #0D6F08",
"0  c #0D7102",
"q  c #0D7103",
"w  c #0D7202",
"e  c #0D7502",
"r  c #0D7503",
"t  c #0D7702",
"y  c #0F7902",
"u  c #0F7903",
"i  c #0F7C02",
"p  c #0F7D02",
"a  c #0F7C03",
"s  c #0F7B07",
"d  c #074B31",
"f  c #074D31",
"g  c #074F35",
"h  c #085237",
"j  c #08593B",
"k  c #725900",
"l  c #08614B",
"z  c #0F8002",
"x  c #0F8102",
"c  c #0F8103",
"v  c #0F8402",
"b  c #0F8403",
"n  c #108602",
"m  c #108702",
"M  c #108603",
"N  c #108703",
"B  c #108A02",
"V  c #108B02",
"C  c #108E02",
"Z  c #108E03",
"A  c #108D07",
"S  c #109002",
"D  c #109102",
"F  c #129402",
"G  c #129902",
"H  c #129A03",
"J  c #149F03",
"K  c #14A002",
"L  c #14A202",
"P  c #14A302",
"I  c #14A303",
"U  c #14A702",
"Y  c #14A507",
"T  c #15A803",
"R  c #15AA02",
"E  c #15AB02",
"W  c #15AB03",
"Q  c #15AD03",
"!  c #15AF02",
"~  c #15B002",
"^  c #15B202",
"/  c #15B203",
"(  c #17B302",
")  c #17B402",
"_  c #17B702",
"`  c #17B902",
"'  c #17BA02",
"]  c #17BF00",
"[  c #18BB02",
"{  c #18BD02",
"}  c #18BE02",
"|  c #18C002",
" . c #1AC103",
".. c #1AC105",
"X. c #1CC207",
"o. c #21C40A",
"O. c #22C50B",
"+. c #24C60D",
"@. c #2AC914",
"#. c #2AC915",
"$. c #31CC1A",
"%. c #37CF21",
"&. c #3FD229",
"*. c #48D632",
"=. c #4AD634",
"-. c #4BD735",
";. c #51DA3C",
":. c #53DA3D",
">. c #54DB3F",
",. c #57DC42",
"<. c #59DD43",
"1. c #5CDE47",
"2. c #5DDE48",
"3. c #60E04B",
"4. c #61E04D",
"5. c #61E04E",
"6. c #64E150",
"7. c #66E251",
"8. c #67E253",
"9. c #69E354",
"0. c #6AE456",
"q. c #6CE457",
"w. c #6DE559",
"e. c #6EE55A",
"r. c #70E65C",
"t. c #70E65D",
"y. c #71E65D",
"u. c #72E75F",
"i. c #74E760",
"p. c #75E861",
"a. c #77E863",
"s. c #78E964",
"d. c #79E966",
"f. c #7BEA67",
"g. c #7CEA69",
"h. c #7DEB6A",
"j. c #7FEB6C",
"k. c #CC9F00",
"l. c #CD9F00",
"z. c #CFA40E",
"x. c #D9A800",
"c. c #D9A900",
"v. c #DAA800",
"b. c #DAA900",
"n. c #DBAB07",
"m. c #DDB016",
"M. c #E6B200",
"N. c #E6B300",
"B. c #E6B301",
"V. c #E6B402",
"C. c #E6B403",
"Z. c #E7B403",
"A. c #E6B405",
"S. c #E7B70C",
"D. c #E8B508",
"F. c #E9B811",
"G. c #D5AE27",
"H. c #DFB527",
"J. c #E9BD20",
"K. c #EABF29",
"L. c #F2C528",
"P. c #F2C52C",
"I. c #ECC233",
"U. c #ECC63F",
"Y. c #F2C733",
"T. c #F2C937",
"R. c #F3CA3F",
"E. c #DAB842",
"W. c #80EC6D",
"Q. c #81EC6E",
"!. c #81EC70",
"~. c #82ED70",
"^. c #84ED71",
"/. c #84ED72",
"(. c #85EE72",
"). c #86EE74",
"_. c #87EF75",
"`. c #87EF77",
"'. c #89EF77",
"]. c #8AF078",
"[. c #8AF079",
"{. c #8BF079",
"}. c #8BF07B",
"|. c #8CF17B",
" X c #8CF07C",
".X c #8EF17C",
"XX c #8FF27D",
"oX c #90F27F",
"OX c #E5C44F",
"+X c #EECA4D",
"@X c #F3CC43",
"#X c #F4CE4B",
"$X c #F4CF4F",
"%X c #EFCF5D",
"&X c #F4D257",
"*X c #F5D35B",
"=X c #E0C461",
"-X c #E9CC67",
";X c #F0D267",
":X c #F5D464",
">X c #F0D36B",
",X c #F6D668",
"<X c #E4CB76",
"1X c #E5CD7B",
"2X c #E5CF7F",
"3X c #EAD073",
"4X c #EBD177",
"5X c #ECD37C",
"6X c #F1D574",
"7X c #F6D971",
"8X c #F6DA75",
"9X c #F2D678",
"0X c #F3D87D",
"qX c #F7DC7E",
"wX c #91F380",
"eX c #92F381",
"rX c #94F482",
"tX c #94F484",
"yX c #95F484",
"uX c #96F585",
"iX c #97F586",
"pX c #98F687",
"aX c #9AF78A",
"sX c #9BF78B",
"dX c #9DF88C",
"fX c #9FF98F",
"gX c #A1F991",
"hX c #A3FA94",
"jX c #A4FB95",
"kX c #A6FC97",
"lX c #A8FD99",
"zX c #A9FD9A",
"xX c #ABFE9D",
"cX c #ADFF9F",
"vX c #B3FFA5",
"bX c #B9FFAD",
"nX c #BAFFB0",
"mX c #ECD480",
"MX c #EDD684",
"NX c #EED789",
"BX c #F3D981",
"VX c #F7DD82",
"CX c #F3DB85",
"ZX c #F4DC8A",
"AX c #F4DD8E",
"SX c #F5DF93",
"DX c #F8E08B",
"FX c #F8E08F",
"GX c #F9E398",
"HX c #F9E49C",
"JX c #C4FFBB",
"KX c None",
/* pixels */
"KXKXKXKXKXKXKXKXKXKXKXKXKXKXKXKXKXKXKXKXKXKXKXKXKXKXKXKXKXKXKXKX",
"KXKXKXKXKXKXl 8 G G G G G G G G G G G P Q Q / J 3 KXKXKXKXKXKXKX",
"KXKXKXKXKXl 9 9.{.).Q.Q.s.i.i.y.w.w.a.h.(.!.uX} 4 KXKXKXKXKXKXKX",
"KXKXKXKXl s a.cXlXfXuX].w.-.$.O.} ` } ] | Q.} 6 4 KXKXKXKXKXKXKX",
"KXKXKXl A Q.bXvXkXh.*.} J R ( ` }  .| | h.[ 6 R 4 KXKXKXKXKXKXKX",
"KXKXl Y Q.'.'.(.h.y.i.a.(. XwXpXsXuXoX(.R 4 R +.4 KXKXKXKXKXKXKX",
"KXKX, , , , , , , , , , , , 3 < 3 , , , < R I O.> KXKXKXKXKXKXKX",
"KXKX, {.{.|.].].{.{.{.{.{.{.].].].|.{., R P r X.- KXKXKXKXKXKXKX",
"KXKX, ].JXbXvXlXkXfXaXtX}.).Q.a.y.6.{., [ u r  .= KXKXKXKXKXKXKX",
"KXKX, |.vXcXkXgXaXyX.X'.!.s.y.0.4.<.{., } B r } * KXKXKXKXKXKXKX",
"KXKX, {.lXhXdXpXoX{.(.h.i.q.6.1.;.*.|., } B w } & KXKXKXKXKXKXKX",
"KXKX, {.fXpXwX].).Q.i.w.-.#.` U G S ]., } B w } & KXKXKXKXKXKXKX",
"KXKX< |.tX|.'.j.s.6.$.) Z C C C Z Z {.: } B w [ $ KXKXKXKXKXKXKX",
"KXKX< ].'.Q.h.y.*.( C C C C C C Z Z {.; } B w ` @ KXKXKXKXKXKXKX",
"KXKX, }.h.i.6.+.C C C C C C C C Z Z _.; } B w ) @ KXKXKXKXKXKXKX",
"KXKX1 }.y.2.| Z C C C C C C C C Z B ^.% } B 6 ) + KXKXKXKXKXKXKX",
"KXKX1 {.3.| Z Z C C C C C C C C B n s.+ } n 6 ( + KXKXKXKXKXKXKX",
"KXKX1 {.@.Z Z Z C C C C m C m m n p r.o } n 6 ! + KXKXKXKXKXKXKX",
"KXKX< |.U Z Z Z C m C m m m v x p w 5.X [ n 6 P o KXKXKXKXKXKXKX",
"KXKX< {.Z Z B B C m m v x x u u r w 6.X [ p F * d KXKXKXKXKXKXKX",
"KXKX< |.B n n n x x x p p y u w w 6 1.X [ P ; d KXKXKXKXKXKXKXKX",
"KXKX, '.n n n y p u u u r u r w 6 6 ,.. P ; g KXKXKXKXKXKXKXKXKX",
"KXKX: (.f.a.u.r.y.y.y.i.u.u.0.4.<.>.:.. ; h KXKXKXKXKXKXKXKXKXKX",
"KXKX: * * $ $ $ $ * * * $ @ o .     . X j KXKXKXKXKXKXKXKXKXKXKX",
"KXKXKXKXKXKXKXKXKXKXKXKXKXKXKXKXKXKXKXKXKXKXKXKXKXKXKXKXKXKXKXKX",
"k k k k k k k k k k k k k k k k k k k k k k k k k k k k k k k KX",
"k HXGXk FXDXk VXqXk 8X7Xk ,X:Xk *X&Xk $X#Xk @X@Xk T.Y.k P.L.k KX",
"k SXAXZXCXBX0X9X6Xk >X;X%X+XU.I.K.J.k F.S.D.A.B.B.B.B.k Z.Z.k KX",
"k NXMXmX5X4X3X-XOXk H.m.n.b.b.b.b.b.k b.b.b.b.b.b.b.b.k b.b.k KX",
"k 2X1X<X=XE.G.z.l.l.l.l.k.l.l.l.l.l.l.l.l.l.l.l.l.l.l.l.l.l.k KX",
"k k k k k k k k k k k k k k k k k k k k k k k k k k k k k k k KX",
"KXKXKXKXKXKXKXKXKXKXKXKXKXKXKXKXKXKXKXKXKXKXKXKXKXKXKXKXKXKXKXKX"
};
