/* XPM */
static const char *Zoom_out_xpm[] = {
/* columns rows colors chars-per-pixel */
"32 32 176 2",
"   c #010202",
".  c #03070A",
"X  c #05090D",
"o  c #060B11",
"O  c #0A121B",
"+  c #241D06",
"@  c #00122A",
"#  c #101D2C",
"$  c #493D04",
"%  c #564303",
"&  c #1B314D",
"*  c #012656",
"=  c #01295E",
"-  c #11407B",
";  c #21497E",
":  c #294E7F",
">  c #826A01",
",  c #887101",
"<  c #9D7905",
"1  c #817952",
"2  c #A68103",
"3  c #B28B04",
"4  c #B59301",
"5  c #B99602",
"6  c #C7A400",
"7  c #CEA304",
"8  c #D4A604",
"9  c #D3AA01",
"0  c #DBAC05",
"q  c #DCB302",
"w  c #E1B204",
"e  c #EBBC03",
"r  c #EAC100",
"t  c #F4C602",
"y  c #F6C902",
"u  c #FACD01",
"i  c #F6CB0D",
"p  c #F9CE09",
"a  c #FCD10C",
"s  c #FCD314",
"d  c #FDD41A",
"f  c #F4CD20",
"g  c #FCD524",
"h  c #FDD82C",
"j  c #FDD933",
"k  c #FDDA3C",
"l  c #8A844D",
"z  c #868B61",
"x  c #938B69",
"c  c #9F997B",
"v  c #FDDC42",
"b  c #FDDD4D",
"n  c #F7D850",
"m  c #FDE15E",
"M  c #DEC065",
"N  c #F1D361",
"B  c #E9CE71",
"V  c #E3CB7E",
"C  c #FDE36D",
"Z  c #FDE67A",
"A  c #1B4883",
"S  c #1F4F8D",
"D  c #37639E",
"F  c #3A659A",
"G  c #1D57A3",
"H  c #1C5DB5",
"J  c #245DAB",
"K  c #215FB3",
"L  c #2E63AD",
"P  c #3462A1",
"I  c #2362B5",
"U  c #2666BB",
"Y  c #2B67B8",
"T  c #296ABF",
"R  c #356BB4",
"E  c #316CBB",
"W  c #3C72BA",
"Q  c #4A74AA",
"!  c #497CBF",
"~  c #2E6FC3",
"^  c #256DCC",
"/  c #3774C6",
"(  c #3372C9",
")  c #3876C9",
"_  c #3C78CA",
"`  c #2E76D6",
"'  c #3177D5",
"]  c #3278D5",
"[  c #3879D2",
"{  c #357CDA",
"}  c #397DD8",
"|  c #427BCA",
" . c #3D81DE",
".. c #3D83E2",
"X. c #4181DA",
"o. c #4D8BDF",
"O. c #5288D2",
"+. c #5A90DA",
"@. c #608BC3",
"#. c #6890C9",
"$. c #6097DE",
"%. c #6799DD",
"&. c #739ED8",
"*. c #4085E3",
"=. c #4087E8",
"-. c #468CED",
";. c #498FED",
":. c #5A95E1",
">. c #4E96F7",
",. c #5398F5",
"<. c #5097F8",
"1. c #539AFB",
"2. c #599DFC",
"3. c #5CA0FE",
"4. c #69A1ED",
"5. c #72A4E7",
"6. c #78AAED",
"7. c #6DA7F6",
"8. c #64A3FE",
"9. c #6BA9FE",
"0. c #7BAFF7",
"q. c #73ADFE",
"w. c #76B0FF",
"e. c #7DB3FD",
"r. c #A6A185",
"t. c #D8C78C",
"y. c #C5C8B6",
"u. c #D9D5BA",
"i. c #EEDDAC",
"p. c #8AAAD5",
"a. c #80A7DA",
"s. c #9CB9DF",
"d. c #82ABE1",
"f. c #8EB3E3",
"g. c #98B7E1",
"h. c #9BBCE5",
"j. c #84B8FF",
"k. c #8CBCFE",
"l. c #91BEFB",
"z. c #B6C7DE",
"x. c #94C1FF",
"c. c #9DC6FF",
"v. c #9FC8FF",
"b. c #A2C0E3",
"n. c #ABC8EE",
"m. c #BBCDE5",
"M. c #BCD1EC",
"N. c #A7C6F0",
"B. c #AFD1FF",
"V. c #B0D1FF",
"C. c #B8D6FE",
"Z. c #C3D2E4",
"A. c #C1D2E8",
"S. c #D7DCE1",
"D. c #DADEE3",
"F. c #D3DDE9",
"G. c #C6D8F0",
"H. c #CDDCF1",
"J. c #C6DEFF",
"K. c #DEE2E6",
"L. c #DEE6EF",
"P. c #D1E0F6",
"I. c #D7E8FF",
"U. c #DCEBFF",
"Y. c #E3E4E6",
"T. c #E4E6EA",
"R. c #E7E9EB",
"E. c #EBECED",
"W. c #F8F2E0",
"Q. c #EDEFF1",
"!. c #EEF1F5",
"~. c #EEF3FB",
"^. c #F3F3F4",
"/. c #F6F7F8",
"(. c #FDFDFD",
"). c None",
/* pixels */
").).).).).).).).).).).).).).).).).).).4.7.2.X.R ).).).).).).).).",
").).).).).).).).).).).).).).).).h.a.W J H ^ '  ...[ ).).).).).).",
").).).).).).).).).).).).).).).h.! @.g.H.~.~.P.N.6.-...P ).).).).",
").).).).).).).).).).).).).).f.@.s.(.^.E.E././.(.(.T.9.-.D ).).).",
").).).).).).).).).).).).).&.#.m.(.(.^.R.T.E.(.(.(.(.(.q.;.).).).",
").).).).).).).).).).).).).O.z.(./.K.S.K.K.K.Q.(.(.(.(.(.,.;.).).",
").).).).).).).).).).).).).p.(.(.D.S.T.E.T.D.Y.).).(.(.(.E.2.).).",
").).).).).).).).).).).)./ Z.(.Q.S.T.E.R.).).).).).).(.(./.<.Q ).",
").).).).).).).).).).).)...^.(.K.Y.Q.E.Y.).).).).).).(.(.(.1.%.).",
").).).).).).).).).).).).{ (./.K.E.E.R.).).).).).).).).(.(.9.e.).",
").).).).).).).).).).).).Y !./.T.E.Q.E.).).).).).).).).(.(.e.0.).",
").).).).).).).).).).).).; A.(.!.^.Q.E.).).).).).).).(.(.!.k.+.).",
").).).).).).).).).).).).).d.(./.^.Q.E.).).).).).).).(.(.F.k.F ).",
").).).).).).).).).).).).).R M.(././.^.^.).).).).(.(.(.Q.C.q.# ).",
").).).).).).).).).).).).).).$.G.(./././.(.(.(.(.(.(.^.U.k.: ).).",
").).).).).).).).).).).).).).~ :.n.(.(.(.W.i.V M t.t.u.k.W ).).).",
").).).).).).).).).).).).).` 9.` ' 5.b.y.B n n k f e 0 l + ).).).",
").).).).).).).).).).).).] 9.c.9.G J z w i g v n k g i w < ).).).",
").).).).).).).).).).).] 9.c.9.J L % 0 p k m m m C n k i 0 ).).).",
").).).).).).).).).).{ 9.c.9.K E   2 e j C C C C C C C j r 3 ).).",
").).).).).).).).)...9.V.9.I E   ).8 u m Z Z Z Z Z Z Z m p 7 ).).",
").).).).).).).).=.w.B.q.U (   ).).w u j 1 x c r.c x 1 j u w ).).",
").).).).).).).;.e.V.w.U [   ).).).w u u $ $ $ $ % $ $ u y 0 ).).",
").).).).).).1.j.J.e.T }   ).).).).w y u u a a s a p u u t 5 ).).",
").).).).).3.k.I.j.~ X.. ).).).).).).t u a d g h g d a u t > ).).",
").).).).9.x.U.k.( ;.o ).).).).).).).9 p s h k v k h s u 4 ).).).",
").).).9.c.U.x.( 1.. ).).).).).).).).).9 a g v m v g i 5 ).).).).",
").).w.N.U.c._ 8.X ).).).).).).).).).).).).9 r u r 6 , ).).).).).",
").* - M.c.| 9.O ).).).).).).).).).).).).).).).).).).).).).).).).",
").@ = A W w.# ).).).).).).).).).).).).).).).).).).).).).).).).).",
").).  * S & ).).).).).).).).).).).).).).).).).).).).).).).).).).",
").).).).).).).).).).).).).).).).).).).).).).).).).).).).).).).)."
};
