/* XPM */
static const char * amilab_logo_new_24x24_xpm[] = {
"24 24 367 2",
"  	c None",
". 	c #FFFFFF",
"+ 	c #FEFEFE",
"@ 	c #E8E7EE",
"# 	c #C3C2CD",
"$ 	c #D7D8E0",
"% 	c #F5F6F8",
"& 	c #FEFDFE",
"* 	c #F6F6FA",
"= 	c #EBEBF7",
"- 	c #E6E6F4",
"; 	c #EDEDF6",
"> 	c #FAFAFC",
", 	c #FFFFFE",
"' 	c #EFEEF4",
") 	c #9C9CC6",
"! 	c #B6B4BA",
"~ 	c #9D9EAA",
"{ 	c #AFAFC9",
"] 	c #F3F4F9",
"^ 	c #FDFDFD",
"/ 	c #D0D0E8",
"( 	c #A8A9D9",
"_ 	c #9191BE",
": 	c #9190B3",
"< 	c #9C9DB7",
"[ 	c #B9BAD1",
"} 	c #EFEFF6",
"| 	c #FEFEFD",
"1 	c #F2F0F6",
"2 	c #E0E0EA",
"3 	c #EFEFF2",
"4 	c #D1D0E6",
"5 	c #8F8FC1",
"6 	c #FCFBFB",
"7 	c #E6E5E7",
"8 	c #9999AB",
"9 	c #ABACD3",
"0 	c #EFEFF5",
"a 	c #BABBDC",
"b 	c #8383CB",
"c 	c #9091B7",
"d 	c #CECED9",
"e 	c #DFE0E2",
"f 	c #CCCBD0",
"g 	c #9C9CA8",
"h 	c #ACACC5",
"i 	c #E9EAF3",
"j 	c #FEFFFD",
"k 	c #FDFDFC",
"l 	c #D9DAE7",
"m 	c #B0AFDA",
"n 	c #AFAEBE",
"o 	c #C2C1C8",
"p 	c #F7F7F8",
"q 	c #BEBEDB",
"r 	c #8284BF",
"s 	c #F1F1F1",
"t 	c #8B8CA9",
"u 	c #7B7DC2",
"v 	c #7576CA",
"w 	c #A9A9C4",
"x 	c #F6F6F7",
"y 	c #F4F4F4",
"z 	c #A8A9B2",
"A 	c #B0AFCA",
"B 	c #EDECF5",
"C 	c #C9C9DD",
"D 	c #9899D1",
"E 	c #D1D0E8",
"F 	c #D2D1D2",
"G 	c #B1B0BE",
"H 	c #EFEFF3",
"I 	c #B9B9D6",
"J 	c #6F70B9",
"K 	c #FDFDFE",
"L 	c #9F9FC6",
"M 	c #6B6CC4",
"N 	c #7C7CB8",
"O 	c #F4F4F3",
"P 	c #FEFEFF",
"Q 	c #E2E3E3",
"R 	c #A9A9B8",
"S 	c #B1B1CD",
"T 	c #9191CD",
"U 	c #B8BAE0",
"V 	c #F5F5F8",
"W 	c #D4D4D8",
"X 	c #B2B2C3",
"Y 	c #BABAD4",
"Z 	c #6B6BBC",
"` 	c #EEEEF3",
" .	c #DFDEE8",
"..	c #7473CA",
"+.	c #6767B0",
"@.	c #8382BC",
"#.	c #DFDEF0",
"$.	c #FFFEFE",
"%.	c #FBFBFA",
"&.	c #C4C4CE",
"*.	c #8588BE",
"=.	c #9C9DD9",
"-.	c #E7E8F2",
";.	c #CDCDD4",
">.	c #B6B4CD",
",.	c #F1F0F6",
"'.	c #C6C5D7",
").	c #7371C6",
"!.	c #C8C9E0",
"~.	c #F0F0F5",
"{.	c #8B8BC5",
"].	c #7170CB",
"^.	c #ABACC5",
"/.	c #A4A4B9",
"(.	c #A09FD2",
"_.	c #E9E8F4",
":.	c #EFEEF3",
"<.	c #A1A1CC",
"[.	c #8786D4",
"}.	c #B8B9DB",
"|.	c #FCFCFC",
"1.	c #BCBDCA",
"2.	c #BDBDD9",
"3.	c #F6F5F8",
"4.	c #D6D5DF",
"5.	c #7C7AC5",
"6.	c #A0A0CF",
"7.	c #BEBDD9",
"8.	c #7677D2",
"9.	c #7E7EBB",
"0.	c #EBEBEF",
"a.	c #DEDEE0",
"b.	c #9393BD",
"c.	c #BCBAE2",
"d.	c #F6F5FA",
"e.	c #B8B8D3",
"f.	c #8282CD",
"g.	c #9493C8",
"h.	c #B8BAD6",
"i.	c #F1F1F8",
"j.	c #FCFCFB",
"k.	c #AAACBF",
"l.	c #C8C8E2",
"m.	c #FBFAFC",
"n.	c #EAEAED",
"o.	c #8280BC",
"p.	c #7676C3",
"q.	c #8687C7",
"r.	c #5E61C5",
"s.	c #BDBCD2",
"t.	c #BABACB",
"u.	c #9A9ACD",
"v.	c #D8D8EE",
"w.	c #E2E3E9",
"x.	c #7D7EC2",
"y.	c #8F90D7",
"z.	c #CCCCDC",
"A.	c #B7B6CB",
"B.	c #E1E1EF",
"C.	c #EEEEEE",
"D.	c #A4A6C3",
"E.	c #D4D5EA",
"F.	c #FDFEFE",
"G.	c #9998B8",
"H.	c #6565C0",
"I.	c #6363C4",
"J.	c #7070B7",
"K.	c #FAFAFA",
"L.	c #EFEFF1",
"M.	c #ACACC7",
"N.	c #A4A3D7",
"O.	c #F2F1F7",
"P.	c #EDEDF0",
"Q.	c #9090BF",
"R.	c #8686DA",
"S.	c #BFBFE1",
"T.	c #FCFBFD",
"U.	c #C2C1CD",
"V.	c #D3D1E6",
"W.	c #CFCED6",
"X.	c #ABADD3",
"Y.	c #E6E7F2",
"Z.	c #C8C8D3",
"`.	c #5E5EAD",
" +	c #6261C5",
".+	c #AAA8CE",
"++	c #D6D7DE",
"@+	c #A4A2CA",
"#+	c #C0C1E4",
"$+	c #B0B1CE",
"%+	c #807FD2",
"&+	c #999AD3",
"*+	c #D6D6DE",
"=+	c #C6C5DB",
"-+	c #B2B2C5",
";+	c #B7B8DE",
">+	c #EBEBEE",
",+	c #5C5CAF",
"'+	c #6C6BC2",
")+	c #D3D2E3",
"!+	c #F7F7F7",
"~+	c #BFBECD",
"{+	c #9796C8",
"]+	c #7B7BC2",
"^+	c #7677CC",
"/+	c #D7D7E8",
"(+	c #E7E7EA",
"_+	c #BBB9CB",
":+	c #A7A5C8",
"<+	c #CACBE7",
"[+	c #C4C3D3",
"}+	c #6465C9",
"|+	c #5D5CB4",
"1+	c #C0BEDA",
"2+	c #FEFFFE",
"3+	c #EEEEEF",
"4+	c #7474AB",
"5+	c #7473CF",
"6+	c #A9ABD6",
"7+	c #F1F1F2",
"8+	c #B6B6C5",
"9+	c #A6A5D2",
"0+	c #EDEEF5",
"a+	c #9898BD",
"b+	c #6567CC",
"c+	c #5E5FB4",
"d+	c #8A88CB",
"e+	c #FAF9FA",
"f+	c #BDBCD0",
"g+	c #6D6EC4",
"h+	c #7C7CCD",
"i+	c #C6C7E4",
"j+	c #EEEDF0",
"k+	c #AEAECA",
"l+	c #B8B9DD",
"m+	c #F7F8F9",
"n+	c #8280BA",
"o+	c #6A6BC5",
"p+	c #7475AA",
"q+	c #7270C8",
"r+	c #D0D0E4",
"s+	c #DDDDE5",
"t+	c #7C7DBB",
"u+	c #7C7DD6",
"v+	c #9C9DC6",
"w+	c #B6B4DB",
"x+	c #F3F3F9",
"y+	c #D4D4DF",
"z+	c #A4A3CF",
"A+	c #D5D5EE",
"B+	c #E0E0E7",
"C+	c #7D7AC9",
"D+	c #7575BE",
"E+	c #CCCDD6",
"F+	c #8687BD",
"G+	c #8D8CD1",
"H+	c #E9E9F2",
"I+	c #F0F0F2",
"J+	c #9292BE",
"K+	c #6F70CE",
"L+	c #A4A6D1",
"M+	c #F0EFF0",
"N+	c #C7C7D8",
"O+	c #CCCBEA",
"P+	c #F8F8FB",
"Q+	c #A7A6C5",
"R+	c #E2E2F0",
"S+	c #D2D1DE",
"T+	c #7675CB",
"U+	c #8888BE",
"V+	c #FAFAF8",
"W+	c #BCBDCD",
"X+	c #7978C3",
"Y+	c #B3B3DF",
"Z+	c #B8B7CE",
"`+	c #6B6BBE",
" @	c #8280C9",
".@	c #EEEEF2",
"+@	c #C4C4DB",
"@@	c #DBDBEC",
"#@	c #A7A7D5",
"$@	c #C7C7DD",
"%@	c #E8E9F1",
"&@	c #C6C6D7",
"*@	c #6E6DC8",
"=@	c #A5A4CA",
"-@	c #FEFDFD",
";@	c #9A99BF",
">@	c #8180C9",
",@	c #BCBCD9",
"'@	c #6B6CAD",
")@	c #7373CB",
"!@	c #C8C8E1",
"~@	c #FFFEFD",
"{@	c #E5E4EA",
"]@	c #BBBBD0",
"^@	c #A2A2CC",
"/@	c #C8C8E3",
"(@	c #DCDCE4",
"_@	c #EEEEF4",
":@	c #C0C0D4",
"<@	c #6868C1",
"[@	c #C6C6DA",
"}@	c #EEEEF1",
"|@	c #5D5DA3",
"1@	c #6C6CC8",
"2@	c #B3B4D8",
"3@	c #F9FAFB",
"4@	c #FFFEFF",
"5@	c #FCFBFC",
"6@	c #D7D7E3",
"7@	c #A7A6CC",
"8@	c #B5B6DD",
"9@	c #E9EAF0",
"0@	c #E2E2EA",
"a@	c #F7F7FA",
"b@	c #C5C5D7",
"c@	c #6868BC",
"d@	c #D6D6E1",
"e@	c #F6F6F8",
"f@	c #A0A0BE",
"g@	c #6361B7",
"h@	c #7776C2",
"i@	c #B2B3D9",
"j@	c #E1E1ED",
"k@	c #EFEFF4",
"l@	c #E3E3EB",
"m@	c #C7C7DC",
"n@	c #A4A4CE",
"o@	c #C3C2E2",
"p@	c #ECECF3",
"q@	c #EEEDF2",
"r@	c #F5F4F8",
"s@	c #D1D1DD",
"t@	c #6C6CBC",
"u@	c #DEDFE6",
"v@	c #C4C4D4",
"w@	c #6969AF",
"x@	c #8989C9",
"y@	c #A09ECC",
"z@	c #9898D3",
"A@	c #A2A2D9",
"B@	c #A0A0D6",
"C@	c #A8A9D6",
"D@	c #D7D7EC",
"E@	c #F6F6F9",
"F@	c #EEEEF0",
"G@	c #7D7CBA",
"H@	c #C9CBDB",
"I@	c #F4F4F6",
"J@	c #C7C8D4",
"K@	c #6364A7",
"L@	c #9897D0",
"M@	c #EBEAF4",
"N@	c #F3F2F5",
"O@	c #E8E8ED",
"P@	c #F1F1F5",
"Q@	c #B8B7D3",
"R@	c #7E7FB1",
"S@	c #9192BA",
"T@	c #6E6DA8",
"U@	c #A8A8D4",
"V@	c #EBEAF2",
"W@	c #F6F4F7",
"X@	c #B6B5D4",
"Y@	c #A3A1CD",
"Z@	c #CCCBE4",
". + @ # $ % . . . & * = - ; > , . . . . . , , . ",
". ' ) ! ~ { ] . ^ / ( _ : < [ } | . . | 1 2 3 + ",
". 4 5 6 7 8 9 0 a b c d e f g h i j k l m n o p ",
". q r & . s t u v w x . . . y z A B C D E F G H ",
"+ I J K . | L M N O P . . . . Q R S T U V W X H ",
". Y Z ` ,  ...+.@.#.$.. . . . %.&.*.=.-.| ;.>.,.",
". '.).!.~.{.].^./.(._.$.. . . :.<.[.}.|.$.1.2.3.",
". 4.5.6.7.8.9.0.a.b.c.d.. . + e.f.g.h.i.j.k.l.m.",
". n.o.p.q.r.s.+ ^ t.u.v.. . w.x.y.z.A.B.C.D.E.K ",
". F.G.H.I.J.K.. . L.M.N.O.P.Q.R.S.T.U.V.W.X.Y.. ",
". , Z.`. +.++ . . ^ ++@+#+$+%+&+' P *+=+-+;+* . ",
". . >+,+'+)+$.. . . !+~+{+]+^+/+| . (+_+:+<+K . ",
". , [+}+|+1+2+. . . , 3+4+5+6+^ . . 7+8+9+0+2+. ",
". + a+b+c+d+e+, , . ^ f+g+h+i+P . . j+k+l+k . . ",
". m+n+o+p+q+r+, , . s+t+u+v+w+x+, , y+z+A++ . . ",
". B+C+D+E+F+G+H+, I+J+K+L+M+N+O+P+O Q+m R+. . . ",
". S+T+U+V+W+X+Y+% Z+`+ @.@+ 3++@@@[+#@$@%@+ . . ",
". &@*@=@-@!+;@>@,@'@)@!@~@. + {@]@^@/@(@_@+ . . ",
". :@<@[@. , }@;@|@1@2@3@. 4@5@6@7@8@9@0@a@. . . ",
". b@c@d@. . e@f@g@h@i@j@k@l@m@n@o@p@q@r@K . . . ",
". s@t@u@. , v@w@x@m@y@z@A@B@C@D@E@2+, , . . . . ",
". F@G@H@I@J@K@L@M@+ k N@O@P@|.+ . . . . . . . . ",
". | Q@R@S@T@U@V@| . 2+. + 2+2+. . . . . . . . . ",
"4@+ W@X@Y@Z@3.~@4@4@4@4@4@4@4@4@4@4@4@4@4@4@4@4@"};
