/* XPM */
static const char * bullet_xpm[] = {
"25 25 2 1",
"X	c none",
".	c red s Foreground",
"XXXXXXXXXXXXXXXXXXXXXXXXX",
"XXXXXXXXXXXXXXXXXXXXXXXXX",
"XXXXXXXXXXXXXXXXXXXXXXXXX",
"XXXXXXXXXX.....XXXXXXXXXX",
"XXXXXXXX.........XXXXXXXX",
"XXXXXX.............XXXXXX",
"XXXXX...............XXXXX",
"XXXXX...............XXXXX",
"XXXX.................XXXX",
"XXXX.................XXXX",
"XXX...................XXX",
"XXX...................XXX",
"XXX...................XXX",
"XXX...................XXX",
"XXX...................XXX",
"XXXX.................XXXX",
"XXXX.................XXXX",
"XXXXX...............XXXXX",
"XXXXX...............XXXXX",
"XXXXXX.............XXXXXX",
"XXXXXXXX.........XXXXXXXX",
"XXXXXXXXXX.....XXXXXXXXXX",
"XXXXXXXXXXXXXXXXXXXXXXXXX",
"XXXXXXXXXXXXXXXXXXXXXXXXX",
"XXXXXXXXXXXXXXXXXXXXXXXXX"};
