/* XPM */
static const char *XY_string[] = {
/* columns rows colors chars-per-pixel */
"30 30 2 1",
"X c Gray0",
"  c White",
/* pixels */
"                              ",
"         XX XX                ",
"          X X                 ",
"    X      X                  ",
"   XXX     X                  ",
"   XX X   XXX                 ",
"  X X  X                      ",
"    X                         ",
"    X                         ",
"    X                         ",
"    X                         ",
"    X                         ",
"    X               XX  XX    ",
"    X                 XX      ",
"    X                 XX      ",
"    X                X  X     ",
"    X               XX  XX    ",
"    X                         ",
"    X                         ",
"    X                         ",
"    X                  X      ",
"    X                   XX    ",
"    X                    XX   ",
"    XXXXXXXXXXXXXXXXXXXXXXXX  ",
"                         XX   ",
"                        X     ",
"                       X      ",
"                              ",
"                              ",
"                              "
};
