/* XPM */
static const char *YZ2_string[]={
"30 30 45 1",
"# c #000000",
"c c #121212",
"I c #212121",
"x c #222222",
"P c #252525",
"f c #262626",
"p c #2a2a2a",
"i c #2d2d2d",
"b c #2f2f2f",
"M c #303030",
"w c #313131",
"z c #444444",
"a c #494949",
"l c #4a4a4a",
"C c #535353",
"F c #565656",
"K c #676767",
"o c #686868",
"E c #6e6e6e",
"Q c #6f6f6f",
"n c #777777",
"t c #7a7a7a",
"r c #7d7d7d",
"d c #808080",
"s c #8f8f8f",
"u c #909090",
"q c #979797",
"m c #989898",
"D c #a8a8a8",
"G c #b5b5b5",
"B c #b7b7b7",
"j c #c3c3c3",
"A c #cecece",
"O c #d5d5d5",
"e c #d8d8d8",
"N c #d9d9d9",
"v c #dfdfdf",
"g c #e2e2e2",
"y c #ececec",
"h c #f0f0f0",
"H c #f9f9f9",
"J c #fcfcfc",
"k c #fdfdfd",
"L c #fefefe",
". c #ffffff",
"..............................",
"..............................",
"..............................",
".......................#......",
"........................#.....",
".........................##...",
"....########################..",
"....#....................##...",
"....#...................##....",
"....#.........abbcd....#......",
"....#...........efg...........",
"....#..........hij............",
"....#.........klm.............",
"....#.........no..............",
"....#.........#pbbq...........",
"....#.........................",
"....#.........................",
"....#.........................",
"....#.........................",
"....#.........................",
"....#.........................",
"....#.....rs..tu..............",
"....#.....vw.kxy..............",
"..#.#..#...zABC...............",
"...##.#....DEFG...............",
"...###.....HfIJ...............",
"....#.......Kn................",
"...........LMN................",
"..........OPQ.................",
".............................."};
